<svg width="192" height="64" viewBox="0 0 192 64" fill="none" xmlns="http://www.w3.org/2000/svg">
<rect x="0.8" y="0.8" width="190.4" height="62.4" rx="8.8" fill="black"/>
<rect x="0.8" y="0.8" width="190.4" height="62.4" rx="8.8" stroke="#A6A6A6" stroke-width="1.6"/>
<path d="M39.5272 33.221C39.5467 31.7491 39.9471 30.306 40.6913 29.0258C41.4355 27.7457 42.4993 26.6701 43.7837 25.8992C42.9678 24.7615 41.8914 23.8252 40.64 23.1647C39.3886 22.5043 37.9967 22.1377 36.5748 22.0943C33.5417 21.7835 30.6013 23.8662 29.0557 23.8662C27.4801 23.8662 25.1005 22.1252 22.5379 22.1766C20.8804 22.2289 19.265 22.6995 17.8491 23.5425C16.4333 24.3855 15.2652 25.5722 14.4588 26.987C10.9657 32.8916 13.5713 41.5695 16.9175 46.3423C18.5916 48.6795 20.5483 51.2901 23.1085 51.1975C25.6139 51.0961 26.5496 49.6378 29.5737 49.6378C32.5698 49.6378 33.4476 51.1975 36.0598 51.1387C38.7482 51.0961 40.442 48.7912 42.0574 46.4319C43.2603 44.7666 44.186 42.9261 44.8 40.9785C43.2382 40.3336 41.9053 39.2541 40.9677 37.8746C40.03 36.495 39.5291 34.8766 39.5272 33.221Z" fill="white"/>
<path d="M34.5932 18.9554C36.059 17.2375 36.7812 15.0294 36.6063 12.8C34.3669 13.0296 32.2983 14.0745 30.8127 15.7266C30.0864 16.5336 29.5301 17.4725 29.1756 18.4896C28.8211 19.5067 28.6755 20.582 28.7469 21.6541C29.867 21.6653 30.9751 21.4283 31.9878 20.9608C33.0005 20.4934 33.8913 19.8077 34.5932 18.9554Z" fill="white"/>
<path d="M61.889 22.4H58.725V12.2188H62.0156C64.9898 12.2188 66.7406 14.1242 66.7406 17.2953C66.7406 20.4735 64.9898 22.4 61.889 22.4ZM59.9906 21.275H61.8047C64.3008 21.275 65.5031 19.7633 65.5031 17.2953C65.5031 14.8344 64.3008 13.3438 61.9312 13.3438H59.9906V21.275ZM71.564 22.5547C69.4828 22.5617 68.0765 20.9867 68.0765 18.6172C68.0765 16.2336 69.4828 14.6656 71.564 14.6656C73.6383 14.6656 75.0304 16.2336 75.0234 18.6172C75.0304 20.9867 73.6383 22.5617 71.564 22.5547ZM69.2859 18.6172C69.2929 20.143 70.0101 21.486 71.564 21.486C73.1039 21.486 73.814 20.143 73.814 18.6172C73.814 17.0985 73.1039 15.7344 71.564 15.7344C70.0101 15.7344 69.2929 17.0985 69.2859 18.6172ZM78.075 22.4L75.7547 14.7641H77.0344L78.6656 20.586H78.7359L80.3531 14.7641H81.6469L83.2359 20.5578H83.3203L84.9515 14.7641H86.2172L83.8969 22.4H82.7015L81.0422 16.5781H80.9297L79.2844 22.4H78.075ZM88.7625 17.8156V22.4H87.5531V14.7641H88.7203V15.9594H88.8187C89.1773 15.1789 89.8945 14.6656 91.0547 14.6656C92.6015 14.6656 93.6351 15.6078 93.6281 17.5485V22.4H92.4187V17.6328C92.4187 16.4516 91.7719 15.7485 90.689 15.7485C89.5781 15.7485 88.7625 16.4938 88.7625 17.8156ZM96.7781 12.2188V22.4H95.5687V12.2188H96.7781ZM101.827 22.5547C99.7453 22.5617 98.339 20.9867 98.339 18.6172C98.339 16.2336 99.7453 14.6656 101.827 14.6656C103.901 14.6656 105.293 16.2336 105.286 18.6172C105.293 20.9867 103.901 22.5617 101.827 22.5547ZM99.5484 18.6172C99.5554 20.143 100.273 21.486 101.827 21.486C103.366 21.486 104.077 20.143 104.077 18.6172C104.077 17.0985 103.366 15.7344 101.827 15.7344C100.273 15.7344 99.5554 17.0985 99.5484 18.6172ZM106.509 20.2344C106.509 18.4836 108.056 18.0828 109.378 17.9844C109.87 17.9492 111.101 17.8789 111.445 17.8719V17.2531C111.445 16.2828 110.869 15.7203 109.716 15.7203C108.752 15.7203 108.169 16.1633 108 16.7469H106.734C106.889 15.5164 108.084 14.6656 109.772 14.6656C110.77 14.6656 112.648 14.961 112.641 17.3656V22.4H111.445V21.3594H111.389C111.136 21.8727 110.44 22.5758 109.111 22.5828C107.662 22.5758 106.509 21.725 106.509 20.2344ZM107.719 20.2906C107.726 21.0992 108.394 21.5071 109.322 21.5C110.686 21.5071 111.445 20.593 111.445 19.6297V18.8633C111.087 18.8844 109.884 18.9758 109.519 18.9969C108.422 19.0672 107.726 19.4539 107.719 20.2906ZM117.464 22.5547C115.559 22.5617 114.216 21.0289 114.216 18.6031C114.216 16.1844 115.559 14.6656 117.478 14.6656C118.962 14.6656 119.426 15.5656 119.686 15.9735H119.77V12.2188H120.994V22.4H119.812V21.2328H119.686C119.419 21.6547 118.92 22.5617 117.464 22.5547ZM115.439 18.575C115.439 20.1992 116.184 21.4719 117.633 21.4719C119.032 21.4719 119.805 20.2906 119.812 18.575C119.805 16.8805 119.053 15.7485 117.633 15.7485C116.163 15.7485 115.439 16.9789 115.439 18.575ZM129.825 22.5547C127.744 22.5617 126.337 20.9867 126.337 18.6172C126.337 16.2336 127.744 14.6656 129.825 14.6656C131.899 14.6656 133.291 16.2336 133.284 18.6172C133.291 20.9867 131.899 22.5617 129.825 22.5547ZM127.547 18.6172C127.554 20.143 128.271 21.486 129.825 21.486C131.365 21.486 132.075 20.143 132.075 18.6172C132.075 17.0985 131.365 15.7344 129.825 15.7344C128.271 15.7344 127.554 17.0985 127.547 18.6172ZM136.083 17.8156V22.4H134.873V14.7641H136.041V15.9594H136.139C136.498 15.1789 137.215 14.6656 138.375 14.6656C139.922 14.6656 140.955 15.6078 140.948 17.5485V22.4H139.739V17.6328C139.739 16.4516 139.092 15.7485 138.009 15.7485C136.898 15.7485 136.083 16.4938 136.083 17.8156ZM149.836 14.7641V15.7766H148.233V20.2063C148.226 21.1836 148.718 21.3453 149.231 21.3453C149.449 21.3453 149.773 21.3242 149.948 21.3172V22.4422C149.759 22.4703 149.463 22.4985 149.105 22.4985C148.085 22.4985 147.016 21.8656 147.009 20.5156V15.7766H145.856V14.7641H147.009V12.936H148.233V14.7641H149.836ZM152.775 17.8156V22.4H151.566V12.2188H152.775V15.9594H152.873C153.232 15.1719 153.914 14.6656 155.123 14.6656C156.684 14.6656 157.725 15.5867 157.725 17.5485V22.4H156.516V17.6328C156.516 16.4305 155.855 15.7485 154.758 15.7485C153.619 15.7485 152.775 16.4938 152.775 17.8156ZM162.872 22.5547C160.664 22.5617 159.3 20.9867 159.3 18.6453C159.3 16.2969 160.685 14.6656 162.759 14.6656C164.362 14.6656 166.057 15.65 166.05 18.4766V18.9828H160.509C160.573 20.6 161.515 21.486 162.872 21.486C163.786 21.486 164.362 21.0852 164.644 20.6141H165.937C165.579 21.7742 164.447 22.5617 162.872 22.5547ZM160.516 17.9563H164.827C164.82 16.6836 164.018 15.7344 162.759 15.7344C161.437 15.7344 160.601 16.775 160.516 17.9563Z" fill="white"/>
<path d="M61.1297 50.4H57.8812L64.4906 31.2047H68.0625L74.6578 50.4H71.2828L69.5812 45.0844H62.8453L61.1297 50.4ZM66.2906 34.5235H66.164L63.5625 42.6375H68.864L66.2906 34.5235ZM83.623 50.611C81.6964 50.611 80.2339 49.6969 79.4464 48.3328H79.3339V55.336H76.212V35.536H79.2495V37.7156H79.362C80.1777 36.2953 81.6964 35.3391 83.6933 35.3391C87.0261 35.3391 89.4027 37.8563 89.4027 42.3V43.6219C89.4027 48.0375 87.0542 50.611 83.623 50.611ZM82.9058 48.0375C84.8886 48.0375 86.2386 46.4485 86.2386 43.4531V42.4125C86.2386 39.5297 84.973 37.8844 82.8495 37.8844C80.6699 37.8844 79.3058 39.6563 79.3058 42.3985V43.4531C79.3058 46.2656 80.6839 48.0375 82.9058 48.0375ZM99.4929 50.611C97.5663 50.611 96.1038 49.6969 95.3163 48.3328H95.2038V55.336H92.0819V35.536H95.1194V37.7156H95.2319C96.0475 36.2953 97.5663 35.3391 99.5632 35.3391C102.896 35.3391 105.273 37.8563 105.273 42.3V43.6219C105.273 48.0375 102.924 50.611 99.4929 50.611ZM98.7757 48.0375C100.758 48.0375 102.108 46.4485 102.108 43.4531V42.4125C102.108 39.5297 100.843 37.8844 98.7194 37.8844C96.5397 37.8844 95.1757 39.6563 95.1757 42.3985V43.4531C95.1757 46.2656 96.5538 48.0375 98.7757 48.0375ZM111.742 45.0703H114.864C115.004 46.7297 116.467 48.15 119.181 48.15C121.67 48.15 123.147 46.9828 123.147 45.1688C123.147 43.7063 122.162 42.9188 120.109 42.4266L116.959 41.6391C114.484 41.0625 112.262 39.586 112.262 36.4641C112.262 32.7938 115.469 30.7828 119.195 30.7828C122.922 30.7828 126.029 32.7938 126.1 36.3797H123.034C122.894 34.7485 121.642 33.3985 119.153 33.3985C116.959 33.3985 115.469 34.4391 115.469 36.225C115.469 37.4766 116.34 38.3766 118.126 38.7844L121.262 39.5578C124.145 40.261 126.339 41.625 126.339 44.8875C126.339 48.6563 123.287 50.7797 118.942 50.7797C113.598 50.7797 111.812 47.6578 111.742 45.0703ZM130.143 35.536V31.9219H133.209V35.536H136.106V38.0391H133.209V45.9703C133.209 47.5875 133.813 48.0375 135.487 48.0375C135.754 48.0375 136.007 48.0375 136.19 48.0094V50.4C135.937 50.4422 135.346 50.4985 134.713 50.4985C131.099 50.4985 130.101 49.2047 130.101 46.2235V38.0391H128.048V35.536H130.143ZM144.536 35.2828C148.811 35.2828 151.132 38.2922 151.132 42.3422V43.5375C151.132 47.7281 148.825 50.6531 144.536 50.6531C140.247 50.6531 137.913 47.7281 137.913 43.5375V42.3422C137.913 38.3063 140.261 35.2828 144.536 35.2828ZM144.536 37.786C142.216 37.786 141.063 39.6844 141.063 42.3844V43.5235C141.063 46.1813 142.202 48.136 144.536 48.136C146.871 48.136 147.996 46.1953 147.996 43.5235V42.3844C147.996 39.6703 146.857 37.786 144.536 37.786ZM153.769 50.4V35.536H156.891V37.4906H157.003C157.383 36.5625 158.494 35.325 160.561 35.325C160.969 35.325 161.32 35.3531 161.616 35.4094V38.1656C161.348 38.0953 160.8 38.0531 160.28 38.0531C157.777 38.0531 156.933 39.6 156.933 41.5969V50.4H153.769ZM169.189 50.6531C165.209 50.6531 162.678 48.0235 162.678 43.6219V42.1172C162.678 37.9688 165.153 35.2828 169.062 35.2828C173.028 35.2828 175.418 38.0672 175.418 42.2578V43.6781H165.757V44.0297C165.757 46.5328 167.107 48.1922 169.231 48.1922C170.82 48.1922 171.903 47.4047 172.282 46.125H175.25C174.8 48.5297 172.859 50.6531 169.189 50.6531ZM165.757 41.4985H172.367V41.4703C172.367 39.361 171.059 37.7016 169.076 37.7016C167.065 37.7016 165.757 39.361 165.757 41.4703V41.4985Z" fill="white"/>
</svg>
