<svg width="305" height="305" viewBox="0 0 305 305" fill="none" xmlns="http://www.w3.org/2000/svg">
<g clip-path="url(#clip0_1_1175)">
<path d="M118.809 116.611V298.504C118.809 302.088 115.904 304.993 112.32 304.993H6.49669C2.91294 304.993 0.00769043 302.088 0.00769043 298.504V116.611C0.00769043 113.027 2.91294 110.122 6.49669 110.122H112.32C115.904 110.122 118.809 113.027 118.809 116.611Z" fill="#1E2F2F"/>
<path d="M118.809 136.779H0.00769043V278.334H118.809V136.779Z" fill="white"/>
<path d="M81.4504 125.809H77.5688C75.7757 125.809 74.324 124.358 74.324 122.564C74.324 120.771 75.7751 119.319 77.5688 119.319H81.4504C83.2434 119.319 84.6952 120.77 84.6952 122.564C84.6952 124.358 83.244 125.809 81.4504 125.809ZM63.7074 125.809H37.3642C35.5711 125.809 34.1194 124.358 34.1194 122.564C34.1194 120.771 35.5705 119.319 37.3642 119.319H63.7068C65.4998 119.319 66.9516 120.77 66.9516 122.564C66.9516 124.358 65.5004 125.809 63.7074 125.809ZM63.8432 294.907H54.9714C53.1783 294.907 51.7266 293.456 51.7266 291.662C51.7266 289.869 53.1777 288.417 54.9714 288.417H63.8432C65.6363 288.417 67.088 289.869 67.088 291.662C67.088 293.456 65.6368 294.907 63.8432 294.907Z" fill="white"/>
<path d="M99.0667 261.832V278.334H19.75V261.832C19.75 245.122 33.2957 231.577 50.0046 231.577H68.8115C85.521 231.577 99.0667 245.122 99.0667 261.832Z" fill="#1BA3A1"/>
<path d="M69.6459 219.105V236.434C69.6459 241.841 65.2621 246.225 59.8549 246.225C54.4477 246.225 50.064 241.841 50.064 236.434V219.105H69.6459Z" fill="#EFD3CA"/>
<path d="M87.448 203.873L31.3691 203.817C31.7117 182.622 35.3949 165.558 59.4089 165.514C83.4634 165.514 87.1252 182.65 87.448 203.873Z" fill="#1BA3A1"/>
<path d="M89.3323 203.879C89.3323 207.406 86.4687 210.304 82.9076 210.304C81.0264 218.367 74.0072 225.567 64.7506 227.519C54.6594 229.614 44.7433 225.039 39.575 216.834C38.2829 214.809 37.4102 212.539 36.8866 210.2C33.4768 210.958 29.4838 208.083 29.4838 203.88C29.4838 200.318 32.3467 197.455 35.9084 197.455C36.0478 197.455 36.1878 197.455 36.3272 197.49C38.1781 192.672 45.6154 184.292 57.2078 184.292H61.8519C64.4706 184.292 67.0548 185.27 68.8353 187.19C70.8607 189.425 73.5843 190.996 76.5169 191.764C81.2742 192.983 82.6115 196.575 83.221 197.491C86.6439 197.629 89.3323 200.422 89.3323 203.879Z" fill="#EFD3CA"/>
<path d="M304.992 116.611V298.504C304.992 302.088 302.087 304.993 298.503 304.993H192.68C189.096 304.993 186.191 302.088 186.191 298.504V116.611C186.191 113.027 189.096 110.122 192.68 110.122H298.503C302.087 110.122 304.992 113.027 304.992 116.611Z" fill="#1E2F2F"/>
<path d="M304.993 136.779H186.191V278.334H304.993V136.779Z" fill="white"/>
<path d="M267.637 125.809H263.752C261.959 125.809 260.508 124.358 260.508 122.564C260.508 120.771 261.959 119.319 263.752 119.319H267.637C269.43 119.319 270.882 120.77 270.882 122.564C270.881 124.358 269.43 125.809 267.637 125.809ZM249.89 125.809H223.548C221.755 125.809 220.303 124.358 220.303 122.564C220.303 120.771 221.754 119.319 223.548 119.319H249.89C251.683 119.319 253.135 120.77 253.135 122.564C253.135 124.358 251.683 125.809 249.89 125.809ZM250.03 294.907H241.155C239.362 294.907 237.91 293.456 237.91 291.662C237.91 289.869 239.361 288.417 241.155 288.417H250.03C251.823 288.417 253.275 289.869 253.275 291.662C253.275 293.456 251.823 294.907 250.03 294.907Z" fill="white"/>
<path d="M218.673 207.951L217.039 256.596C216.947 259.087 218.891 261.181 221.382 261.273C221.437 261.275 221.491 261.276 221.546 261.276H270.852C273.347 261.274 275.367 259.25 275.365 256.755C275.365 256.702 275.364 256.649 275.362 256.596L273.724 207.951H218.673Z" fill="#1BA3A1"/>
<path d="M283.355 267.451V278.255H207.823V267.451C207.823 251.553 220.736 238.64 236.634 238.64H254.544C270.474 238.64 283.355 251.553 283.355 267.451Z" fill="#00B7B3"/>
<path d="M228.393 267.516V278.255H221.904V267.516C221.904 265.731 223.332 264.271 225.149 264.271C226.933 264.271 228.393 265.731 228.393 267.516ZM269.274 267.451V278.255H262.785V267.451C262.785 265.666 264.245 264.206 266.03 264.206C267.847 264.206 269.274 265.666 269.274 267.451Z" fill="#415252"/>
<path d="M253.88 226.484V241.154C253.88 245.731 250.17 249.442 245.592 249.442C241.014 249.442 237.303 245.732 237.303 241.154V226.484H253.88Z" fill="#EFD3CA"/>
<path d="M277.515 202.906C277.067 200.294 274.838 198.362 272.189 198.29L271.609 194.725C269.202 179.97 255.289 169.959 240.534 172.366C225.778 174.773 215.768 188.686 218.175 203.441L218.755 207.007C215.885 208.046 214.401 211.215 215.44 214.085C216.288 216.425 218.596 217.91 221.078 217.712C226.452 231.666 242.119 238.621 256.073 233.247C266.114 229.38 272.913 219.933 273.39 209.183C276.178 208.467 277.964 205.749 277.515 202.906Z" fill="#EFD3CA"/>
<path d="M252.832 165.782C251.184 166.119 249.887 167.391 249.52 169.033C250.882 170.44 251.82 172.202 252.228 174.116C252.94 177.41 252.715 180.838 251.577 184.01C252.106 187.24 263.493 195.705 269.774 198.973C270.869 199.533 272.211 199.101 272.772 198.005C272.958 197.642 273.041 197.236 273.011 196.83L271.988 180.833C271.476 171.876 263.8 165.029 254.842 165.541C254.168 165.579 253.497 165.66 252.832 165.782Z" fill="#1BA3A1"/>
<path d="M239.442 165.686C245.261 164.697 250.851 168.387 252.228 174.126C257.025 196.922 217.925 210.458 211.945 202.172C209.315 198.532 209.973 192.251 215.476 192.061C216.209 192.006 216.758 191.368 216.704 190.635C216.697 190.54 216.68 190.446 216.653 190.355C213.811 178.179 224.585 168.112 239.442 165.686Z" fill="#1BA3A1"/>
<path d="M216.419 35.5606C216.419 68.2676 169.3 104.824 155.981 114.504C153.901 116.016 151.122 116.016 149.043 114.505C135.719 104.825 88.5811 68.2682 88.5811 35.5606C88.5811 15.9268 104.5 0.0078125 124.134 0.0078125C135.715 0.0078125 146.005 5.54487 152.511 14.1272C158.994 5.54487 169.284 0.0078125 180.866 0.0078125C200.5 0.0078125 216.419 15.9268 216.419 35.5606Z" fill="#7DE2E2"/>
<path d="M216.419 35.5606C216.419 68.2676 169.3 104.824 155.981 114.504C153.901 116.016 151.122 116.016 149.043 114.505C135.719 104.825 88.5811 68.2682 88.5811 35.5606C88.5811 15.9268 104.5 0.0078125 124.134 0.0078125C135.715 0.0078125 146.005 5.54487 152.511 14.1272C158.994 5.54487 169.284 0.0078125 180.866 0.0078125C200.5 0.0078125 216.419 15.9268 216.419 35.5606Z" fill="#E2887D"/>
</g>
<defs>
<clipPath id="clip0_1_1175">
<rect width="305" height="305" fill="white"/>
</clipPath>
</defs>
</svg>
