<svg width="198" height="198" viewBox="0 0 198 198" fill="none" xmlns="http://www.w3.org/2000/svg">
<circle opacity="0.5" cx="99" cy="99" r="98.6586" fill="#1E2F2F" stroke="#5F7777" stroke-width="0.682759"/>
<path d="M193.05 99C195.784 99 198.013 101.218 197.876 103.948C196.918 123.107 190.41 141.614 179.093 157.191C166.804 174.105 149.476 186.694 129.593 193.155C109.709 199.615 88.2908 199.615 68.4073 193.155C48.5238 186.694 31.196 174.105 18.9073 157.191C6.61864 140.277 -1.82773e-06 119.907 0 99C1.82773e-06 78.0932 6.61864 57.7232 18.9073 40.8092C31.196 23.8953 48.5238 11.3059 68.4073 4.8454C86.7185 -1.10424 106.331 -1.57473 124.848 3.43393C127.487 4.14775 128.908 6.95313 128.063 9.55314C127.218 12.1531 124.428 13.5618 121.785 12.8626C105.261 8.49129 87.7891 8.95736 71.4666 14.2609C53.5714 20.0753 37.9764 31.4058 26.9166 46.6283C15.8568 61.8508 9.9 80.1839 9.9 99C9.9 117.816 15.8568 136.149 26.9166 151.372C37.9764 166.594 53.5714 177.925 71.4666 183.739C89.3617 189.554 108.638 189.554 126.533 183.739C144.429 177.925 160.024 166.594 171.083 151.372C181.171 137.487 187.014 121.014 187.963 103.948C188.114 101.218 190.316 99 193.05 99Z" fill="#00B7B3"/>
<path d="M61.7762 111.208C55.9588 111.208 52.4916 106.708 52.5083 98.8067C52.4916 90.939 55.9921 86.405 61.7762 86.405C67.5603 86.405 71.0441 90.939 71.0441 98.8067C71.0441 106.724 67.577 111.208 61.7762 111.208ZM56.8756 98.8067C56.8756 104.607 58.7425 107.558 61.7762 107.575C64.7933 107.558 66.6769 104.607 66.6769 98.8067C66.6602 93.0559 64.7933 90.0222 61.7762 90.0055C58.7592 90.0222 56.8922 93.0559 56.8756 98.8067ZM83.2458 111.208C78.4285 111.208 74.878 108.325 74.7446 104.341H78.9785C79.1119 106.291 80.9621 107.691 83.2458 107.708C85.9461 107.691 87.8964 105.741 87.8797 103.074C87.8964 100.307 85.8961 98.3566 83.1124 98.34C81.2288 98.3233 79.862 98.9901 79.1119 100.407H75.078L76.5449 86.7384H90.8135V90.3722H80.112L79.3786 96.7731H79.612C80.5454 95.723 82.2957 94.9562 84.2793 94.9395C88.7632 94.9562 92.097 98.29 92.0803 102.941C92.097 107.758 88.4632 111.208 83.2458 111.208ZM98.4145 107.875C96.981 107.875 95.7975 106.708 95.8141 105.274C95.7975 103.874 96.981 102.724 98.4145 102.707C99.798 102.724 100.982 103.874 100.982 105.274C100.982 106.708 99.798 107.875 98.4145 107.875ZM95.8141 92.3392C95.7975 90.939 96.981 89.7888 98.4145 89.7722C99.798 89.7888 100.982 90.939 100.982 92.3392C100.982 93.7727 99.798 94.9395 98.4145 94.9395C96.981 94.9395 95.7975 93.7727 95.8141 92.3392ZM113.817 111.208C108.666 111.208 104.982 108.408 104.882 104.341H109.249C109.366 106.274 111.3 107.558 113.817 107.541C116.467 107.558 118.384 106.091 118.384 103.941C118.384 101.774 116.517 100.224 113.383 100.207H111.216V96.8731H113.383C115.95 96.8731 117.734 95.4396 117.717 93.3393C117.734 91.3057 116.2 89.9388 113.85 89.9388C111.583 89.9388 109.633 91.2057 109.549 93.2393H105.382C105.482 89.1887 109.166 86.405 113.883 86.405C118.784 86.405 121.951 89.4054 121.918 93.1059C121.951 95.8063 120.151 97.7566 117.517 98.3066V98.5067C120.918 98.9567 122.851 101.14 122.818 104.174C122.851 108.258 119.034 111.208 113.817 111.208ZM136.42 86.7384V110.875H132.052V90.9723H131.919L126.285 94.5728V90.6056L132.252 86.7384H136.42Z" fill="#C6C6C6"/>
</svg>
