<svg width="199" height="181" viewBox="0 0 199 181" fill="none" xmlns="http://www.w3.org/2000/svg">
<path d="M142.537 147.624C140.21 149.314 137.602 150.729 134.812 151.84C120.69 157.463 100.17 157.021 100.17 157.021C100.17 157.021 78.8255 157.517 64.2061 151.264C61.9009 150.278 59.7386 149.035 57.7839 147.624C44.549 138.041 42.6502 130.853 42.6502 121.233C42.6502 111.631 48.5511 104.907 48.9978 101.75C49.426 98.5741 47.6575 80.1135 64.5785 62.4139C64.5785 62.4139 63.7595 60.4453 61.3581 59.1267C58.938 57.8266 56.0344 54.5949 56.3696 49.0234C56.7044 43.4516 58.8821 40.3872 63.1635 39.3657C67.4265 38.3257 71.8568 40.7213 73.6066 45.3644C75.3749 50.0076 75.6354 55.7464 75.6354 55.7464C75.6354 55.7464 83.193 50.0633 100.17 50.0633C117.146 50.0633 124.704 55.7464 124.704 55.7464C124.704 55.7464 124.965 50.0076 126.714 45.3644C128.464 40.7213 132.913 38.3257 137.176 39.3657C141.457 40.3872 143.635 43.4516 143.97 49.0234C144.287 54.5949 141.401 57.8266 138.981 59.1267C136.58 60.4453 135.761 62.4139 135.761 62.4139C152.663 80.1135 150.913 98.5741 151.341 101.75C151.788 104.907 157.689 111.631 157.689 121.233C157.689 130.853 155.79 138.041 142.537 147.624ZM99.5002 0C44.824 0 0.5 44.2229 0.5 98.7746C0.5 132.379 17.3236 162.058 43.021 179.901C46.4281 172.036 52.1251 162.97 61.6002 153.678C74.1322 160.798 100.17 160.443 100.17 160.443C100.17 160.443 123.303 161.082 137.063 154.324C144.662 163.09 150.809 172.162 154.365 181C180.971 163.293 198.5 133.078 198.5 98.7746C198.5 44.2229 154.176 0 99.5002 0Z" fill="#27B8B4"/>
</svg>
