<svg width="193" height="65" viewBox="0 0 193 65" fill="none" xmlns="http://www.w3.org/2000/svg">
<rect x="0.804167" y="0.804167" width="191.392" height="62.725" rx="8.84583" fill="white"/>
<rect x="0.804167" y="0.804167" width="191.392" height="62.725" rx="8.84583" stroke="black" stroke-width="1.60833"/>
<path d="M28.636 31.3009L13.0107 48.2595C13.0122 48.2625 13.0122 48.267 13.0137 48.27C13.4936 50.1115 15.1373 51.4667 17.0891 51.4667C17.8699 51.4667 18.6022 51.2506 19.2303 50.8724L19.2802 50.8424L36.8677 40.4646L28.636 31.3009Z" fill="#EA4335"/>
<path d="M44.4432 28.4131L44.4285 28.4026L36.8353 23.9018L28.2808 31.6863L36.8661 40.4628L44.4183 36.007C45.742 35.2746 46.6416 33.8474 46.6416 32.2025C46.6416 30.5667 45.7552 29.147 44.4432 28.4131Z" fill="#FBBC04"/>
<path d="M13.0105 16.0726C12.9166 16.4268 12.8667 16.7989 12.8667 17.1831V47.1505C12.8667 47.5347 12.9166 47.9068 13.012 48.2595L29.173 31.7346L13.0105 16.0726Z" fill="#4285F4"/>
<path d="M28.7514 32.1666L36.8377 23.8988L19.2708 13.4835C18.6324 13.0918 17.8869 12.8667 17.09 12.8667C15.1381 12.8667 13.4915 14.2249 13.0116 16.0678C13.0116 16.0693 13.0101 16.0708 13.0101 16.0723L28.7514 32.1666Z" fill="#34A853"/>
<path d="M66.9155 15.2199C66.4286 13.7592 65.3213 12.8325 63.6957 12.8325C61.6853 12.8325 60.0911 14.4189 60.0832 17.356C60.0911 20.2852 61.6853 21.8716 63.7899 21.8794C65.7061 21.8716 67.0333 20.5993 67.0568 18.5811H64.0883V17.3403H68.439V18.5654C68.439 21.3847 66.4993 23.1988 63.7899 23.1988C60.7507 23.1988 58.7089 20.9527 58.7168 17.356C58.7089 13.7592 60.7743 11.5132 63.6957 11.5132C66.0988 11.5132 67.9521 13.021 68.3762 15.2199H66.9155ZM70.5594 23.0417V11.6703H77.4545V12.9268H71.9729V16.7277H77.0932V17.9685H71.9729V21.7852H77.533V23.0417H70.5594ZM79.0565 12.9268V11.6703H87.6322V12.9268H84.0669V23.0417H82.6376V12.9268H79.0565ZM94.9671 11.6703V23.0417H93.5535V11.6703H94.9671ZM96.8518 12.9268V11.6703H105.428V12.9268H101.862V23.0417H100.433V12.9268H96.8518ZM120.961 17.356C120.969 20.9527 118.849 23.1988 115.935 23.1988C113.014 23.1988 110.901 20.9527 110.909 17.356C110.901 13.7592 113.014 11.5132 115.935 11.5132C118.849 11.5132 120.969 13.7592 120.961 17.356ZM112.276 17.356C112.283 20.2852 113.878 21.8716 115.935 21.8794C117.993 21.8716 119.587 20.2852 119.595 17.356C119.587 14.4189 117.993 12.8325 115.935 12.8325C113.878 12.8325 112.283 14.4189 112.276 17.356ZM132.066 11.6703V23.0417H130.715L124.558 14.1833H124.448V23.0417H123.034V11.6703H124.401L130.558 20.5444H130.668V11.6703H132.066Z" fill="black"/>
<path d="M150.408 50.2172H153.028V32.507H150.408V50.2172ZM174.004 38.8865L171.001 46.565H170.911L167.794 38.8865H164.972L169.646 49.618L166.983 55.5879H169.713L176.917 38.8865H174.004ZM159.148 48.2055C158.288 48.2055 157.092 47.7734 157.092 46.701C157.092 45.3353 158.582 44.8111 159.869 44.8111C161.02 44.8111 161.564 45.0619 162.263 45.4033C162.059 47.0438 160.66 48.2055 159.148 48.2055ZM159.463 38.4997C157.567 38.4997 155.601 39.3426 154.79 41.2113L157.115 42.1902C157.612 41.2113 158.537 40.8911 159.508 40.8911C160.863 40.8911 162.24 41.7114 162.263 43.1706V43.3519C161.788 43.0785 160.773 42.669 159.531 42.669C157.025 42.669 154.473 44.0588 154.473 46.6556C154.473 49.0258 156.528 50.553 158.83 50.553C160.592 50.553 161.564 49.7554 162.173 48.8204H162.263V50.1875H164.791V43.3972C164.791 40.2536 162.466 38.4997 159.463 38.4997M143.274 41.0427H139.548V34.9721H143.274C145.232 34.9721 146.344 36.6084 146.344 38.0067C146.344 39.3795 145.232 41.0427 143.274 41.0427ZM143.206 32.507H136.93V50.2172H139.548V43.5077H143.206C146.11 43.5077 148.964 41.3855 148.964 38.0067C148.964 34.6278 146.11 32.507 143.206 32.507M108.978 48.2083C107.168 48.2083 105.654 46.6797 105.654 44.5802C105.654 42.458 107.168 40.9053 108.978 40.9053C110.765 40.9053 112.166 42.458 112.166 44.5802C112.166 46.6797 110.765 48.2083 108.978 48.2083ZM111.987 39.8781H111.895C111.307 39.1712 110.177 38.5323 108.752 38.5323C105.766 38.5323 103.03 41.1787 103.03 44.5802C103.03 47.9576 105.766 50.5827 108.752 50.5827C110.177 50.5827 111.307 49.9438 111.895 49.2128H111.987V50.0812C111.987 52.3862 110.765 53.6187 108.797 53.6187C107.191 53.6187 106.195 52.4542 105.788 51.4724L103.504 52.4315C104.16 54.0296 105.902 55.9917 108.797 55.9917C111.873 55.9917 114.474 54.1656 114.474 49.7157V38.8964H111.987V39.8781ZM116.284 50.2172H118.908V32.5056H116.284V50.2172ZM122.774 44.3748C122.707 42.0471 124.561 40.8599 125.895 40.8599C126.937 40.8599 127.818 41.3841 128.112 42.1378L122.774 44.3748ZM130.917 42.3659C130.42 41.02 128.903 38.5323 125.805 38.5323C122.729 38.5323 120.174 40.9733 120.174 44.5575C120.174 47.9349 122.707 50.5827 126.098 50.5827C128.836 50.5827 130.42 48.894 131.075 47.9123L129.04 46.5423C128.362 47.5467 127.434 48.2083 126.098 48.2083C124.765 48.2083 123.814 47.5921 123.204 46.3836L131.188 43.0501L130.917 42.3659ZM67.3089 40.3811V42.9368H73.3696C73.1885 44.3748 72.7139 45.4245 71.9909 46.1541C71.1079 47.0452 69.7278 48.027 67.3089 48.027C63.576 48.027 60.6587 44.991 60.6587 41.2254C60.6587 37.4584 63.576 34.4238 67.3089 34.4238C69.3221 34.4238 70.792 35.2229 71.8772 36.25L73.6644 34.4465C72.1482 32.9859 70.1364 31.8667 67.3089 31.8667C62.1973 31.8667 57.9 36.0672 57.9 41.2254C57.9 46.3836 62.1973 50.5827 67.3089 50.5827C70.0676 50.5827 72.1482 49.669 73.7767 47.9576C75.4515 46.2689 75.971 43.8959 75.971 41.9777C75.971 41.3841 75.926 40.8372 75.8348 40.3811H67.3089ZM82.8627 48.2083C81.0531 48.2083 79.4919 46.7024 79.4919 44.5575C79.4919 42.3885 81.0531 40.9053 82.8627 40.9053C84.6709 40.9053 86.232 42.3885 86.232 44.5575C86.232 46.7024 84.6709 48.2083 82.8627 48.2083ZM82.8627 38.5323C79.5593 38.5323 76.8681 41.0653 76.8681 44.5575C76.8681 48.027 79.5593 50.5827 82.8627 50.5827C86.1647 50.5827 88.8559 48.027 88.8559 44.5575C88.8559 41.0653 86.1647 38.5323 82.8627 38.5323ZM95.9372 48.2083C94.1276 48.2083 92.5664 46.7024 92.5664 44.5575C92.5664 42.3885 94.1276 40.9053 95.9372 40.9053C97.7468 40.9053 99.3065 42.3885 99.3065 44.5575C99.3065 46.7024 97.7468 48.2083 95.9372 48.2083ZM95.9372 38.5323C92.6352 38.5323 89.9439 41.0653 89.9439 44.5575C89.9439 48.027 92.6352 50.5827 95.9372 50.5827C99.2391 50.5827 101.93 48.027 101.93 44.5575C101.93 41.0653 99.2391 38.5323 95.9372 38.5323Z" fill="black"/>
</svg>
