<svg width="152" height="151" viewBox="0 0 152 151" fill="none" xmlns="http://www.w3.org/2000/svg">
<path d="M75.9551 4.56543C115.43 4.56543 147.345 36.2033 147.345 75.125C147.345 114.047 115.43 145.685 75.9551 145.685C36.4803 145.685 4.56543 114.047 4.56543 75.125C4.56544 36.2033 36.4803 4.56545 75.9551 4.56543Z" stroke="#283F34" stroke-opacity="0.67" stroke-width="9.1312"/>
<rect x="11.6221" y="10.7915" width="128.667" height="128.667" rx="64.3335" fill="#00B76A" fill-opacity="0.15"/>
<path d="M105.029 84.5268L90.5234 78.3408C89.7749 78.0054 88.9532 77.8662 88.136 77.9366C87.3188 78.0069 86.5331 78.2844 85.8529 78.7429L78.0895 83.9082C73.358 81.6102 69.5272 77.8011 67.2022 73.0827L72.3366 65.2266C72.792 64.5457 73.0701 63.7619 73.1458 62.9463C73.2214 62.1307 73.0921 61.3091 72.7696 60.5561L66.5527 46.05C66.1189 45.0705 65.3843 44.2547 64.4556 43.7208C63.5268 43.1869 62.4522 42.9627 61.3874 43.0808C57.2106 43.6279 53.3746 45.6732 50.5926 48.8364C47.8107 51.9995 46.272 56.0653 46.2627 60.2778C46.2627 84.8361 66.2434 104.817 90.8017 104.817C95.0142 104.808 99.08 103.269 102.243 100.487C105.406 97.7049 107.452 93.8689 107.999 89.6921C108.117 88.6273 107.893 87.5527 107.359 86.6239C106.825 85.6952 106.009 84.9606 105.029 84.5268Z" fill="#00B76A"/>
</svg>
