<svg width="801" height="800" viewBox="0 0 801 800" fill="none" xmlns="http://www.w3.org/2000/svg">
<path d="M548.668 218.972L552.189 221.774L548.668 218.972ZM306.83 432.053L306.275 436.519L309.359 436.902L310.809 434.154L306.83 432.053ZM79.9813 557.919L75.719 556.475L79.9813 557.919ZM48.5074 768.162C46.9402 770.091 47.2336 772.926 49.1625 774.493C51.0914 776.06 53.9255 775.766 55.4926 773.838L48.5074 768.162ZM800 48.0125L800.351 43.5262C723.206 37.4862 676.567 58.6626 640.478 92.8381C622.585 109.782 607.383 129.826 592.385 150.938C577.316 172.149 562.512 194.347 545.147 216.17L548.668 218.972L552.189 221.774C569.758 199.695 584.849 177.085 599.722 156.151C614.664 135.118 629.447 115.68 646.666 99.373C680.802 67.0469 724.895 46.646 799.649 52.4988L800 48.0125ZM548.668 218.972L545.147 216.17C510.712 259.446 461.329 292.549 414.631 325.09C368.341 357.347 324.328 389.264 302.85 429.952L306.83 432.053L310.809 434.154C331.079 395.754 373.052 365.034 419.777 332.474C466.095 300.197 516.757 266.304 552.189 221.774L548.668 218.972ZM306.83 432.053L307.384 427.587C268.268 422.729 218.082 432.551 173.968 454.563C129.86 476.571 91.0656 511.157 75.719 556.475L79.9813 557.919L84.2435 559.362C98.5618 517.08 135.121 484.004 177.987 462.616C220.846 441.23 269.251 431.92 306.275 436.519L306.83 432.053ZM79.9813 557.919L75.719 556.475C60.5332 601.32 65.6786 640.83 68.3678 675.517C71.0715 710.391 71.2872 740.123 48.5074 768.162L52 771L55.4926 773.838C80.6807 742.834 80.0547 709.827 77.3409 674.821C74.6125 639.628 69.7646 602.119 84.2435 559.362L79.9813 557.919Z" fill="url(#paint0_linear_31_122)"/>
<path d="M569 256.5L565.752 253.385L569 256.5ZM323.433 471.103L322.886 475.569L325.944 475.944L327.399 473.228L323.433 471.103ZM123 575L127.256 576.463H127.256L123 575ZM81.9924 791.263C79.9287 792.648 79.3785 795.443 80.7634 797.507C82.1484 799.571 84.944 800.121 87.0076 798.736L81.9924 791.263ZM797.5 88.5003L798.129 84.0445C765.606 79.453 739.422 82.6778 717.239 91.6032C695.085 100.517 677.251 114.984 661.226 132.356C645.253 149.671 630.887 170.096 615.856 190.952C600.76 211.898 584.91 233.407 565.752 253.385L569 256.5L572.248 259.615C591.885 239.136 608.057 217.166 623.157 196.214C638.322 175.172 652.325 155.279 667.841 138.458C683.304 121.695 700.079 108.209 720.599 99.9527C741.089 91.7085 765.644 88.5477 796.871 92.9562L797.5 88.5003ZM569 256.5L565.752 253.385C531.101 289.522 480.271 324.045 432.399 359.371C384.946 394.388 340.164 430.355 319.467 468.977L323.433 471.103L327.399 473.228C346.979 436.693 389.981 401.858 437.742 366.613C485.084 331.678 536.899 296.478 572.248 259.615L569 256.5ZM323.433 471.103L323.979 466.636C286.497 462.05 242.714 467.305 204.566 484.354C166.37 501.424 133.553 530.462 118.744 573.537L123 575L127.256 576.463C141.067 536.288 171.737 508.884 208.238 492.571C244.787 476.237 286.91 471.168 322.886 475.569L323.433 471.103ZM123 575L118.744 573.537C104.1 616.133 108.466 662.91 109.352 702.338C109.8 722.281 109.381 740.278 105.563 755.508C101.784 770.586 94.7357 782.711 81.9924 791.263L84.5 794.999L87.0076 798.736C102.042 788.646 110.117 774.357 114.293 757.696C118.431 741.189 118.798 722.126 118.349 702.136C117.441 661.697 113.279 617.116 127.256 576.463L123 575Z" fill="url(#paint1_linear_31_122)"/>
<path d="M546.515 154.461L542.738 152.015L546.515 154.461ZM368.525 391.936L367.755 396.369L370.959 396.926L372.493 394.058L368.525 391.936ZM54.5435 497.704L58.4516 499.935L54.5435 497.704ZM2.48894 760.266C0.426576 761.653 -0.121064 764.449 1.26575 766.511C2.65257 768.573 5.44869 769.121 7.51106 767.734L2.48894 760.266ZM800 5.91502L800.285 1.42405C729.11 -3.09029 680.904 9.05106 642.22 35.4859C603.758 61.7693 575.204 101.886 542.738 152.015L546.515 154.461L550.292 156.907C582.821 106.681 610.514 68.053 647.298 42.9166C683.86 17.9317 729.898 5.97775 799.715 10.406L800 5.91502ZM546.515 154.461L542.738 152.015C512.552 198.622 478.732 238.17 447.016 276.08C415.38 313.893 385.769 350.153 364.557 389.814L368.525 391.936L372.493 394.058C393.205 355.333 422.223 319.74 453.919 281.855C485.535 244.065 519.747 204.069 550.292 156.907L546.515 154.461ZM368.525 391.936L369.296 387.502C329.091 380.516 264.289 381.899 202.295 397.64C140.417 413.351 80.2128 443.661 50.6355 495.473L54.5435 497.704L58.4516 499.935C86.2175 451.296 143.49 421.856 204.51 406.363C265.414 390.899 328.932 389.623 367.755 396.369L368.525 391.936ZM54.5435 497.704L50.6355 495.473C21.2287 546.986 23.4535 605.147 25.4563 654.123C26.4675 678.851 27.4196 701.018 24.6233 719.438C21.8465 737.729 15.4858 751.526 2.48894 760.266L5 764L7.51106 767.734C23.4269 757.032 30.5476 740.377 33.5214 720.788C36.4758 701.327 35.4478 678.185 34.4488 653.756C32.4313 604.418 30.5152 548.872 58.4516 499.935L54.5435 497.704Z" fill="url(#paint2_radial_31_122)"/>
<defs>
<linearGradient id="paint0_linear_31_122" x1="-820.619" y1="1444.99" x2="1053.3" y2="164.585" gradientUnits="userSpaceOnUse">
<stop offset="0.430575" stop-color="#0A3C3B" stop-opacity="0"/>
<stop offset="0.971154" stop-color="#112B2B"/>
</linearGradient>
<linearGradient id="paint1_linear_31_122" x1="-242" y1="657" x2="712.5" y2="406.5" gradientUnits="userSpaceOnUse">
<stop offset="0.430575" stop-color="#0A3C3B" stop-opacity="0.08"/>
<stop offset="0.971154" stop-color="#112B2B" stop-opacity="0.13"/>
</linearGradient>
<radialGradient id="paint2_radial_31_122" cx="0" cy="0" r="1" gradientUnits="userSpaceOnUse" gradientTransform="translate(136.539 122.168) rotate(109.435) scale(812.898 856.446)">
<stop offset="0.524467" stop-color="#0A3C3B" stop-opacity="0.73"/>
<stop offset="1" stop-color="#1BA2A0"/>
</radialGradient>
</defs>
</svg>
