<svg width="268" height="546" viewBox="0 0 268 546" fill="none" xmlns="http://www.w3.org/2000/svg">
<path d="M266.44 127.32V173.966" stroke="black" stroke-width="2.74316" stroke-linecap="round"/>
<path d="M2 99.4089V172.054" stroke="black" stroke-width="3.84042" stroke-linecap="round"/>
<path d="M25.5908 1.37109H242.085C254.356 1.37109 264.305 11.3194 264.305 23.5908V520.103C264.305 532.374 254.356 542.322 242.085 542.322H25.5908C13.3194 542.322 3.37109 532.374 3.37109 520.103V23.5908C3.37131 11.3196 13.3196 1.37128 25.5908 1.37109Z" fill="#070707" stroke="black" stroke-width="2.74316"/>
<g clip-path="url(#clip0_1_633)">
<rect x="8.7312" y="3.84639" width="245.207" height="532.725" rx="28.5289" fill="#080E0E"/>
<mask id="path-5-inside-1_1_633" fill="white">
<path d="M5.84644 457.459H255.474V510.158H5.84644V457.459Z"/>
</mask>
<path d="M5.84644 457.459H255.474V510.158H5.84644V457.459Z" fill="#080E0E"/>
<path d="M5.84644 457.459V458.152H255.474V457.459V456.765H5.84644V457.459Z" fill="#111C1C" mask="url(#path-5-inside-1_1_633)"/>
<path d="M59.0656 471.411H46.931C46.6092 471.411 46.3005 471.539 46.0729 471.765C45.8454 471.992 45.7175 472.299 45.7175 472.619V481.067V484.699C45.7175 485.019 45.8454 485.326 46.0729 485.553C46.3005 485.779 46.6092 485.907 46.931 485.907H59.0656C59.3874 485.907 59.6961 485.779 59.9237 485.553C60.1512 485.326 60.2791 485.019 60.2791 484.699V472.619C60.2791 472.299 60.1512 471.992 59.9237 471.765C59.6961 471.539 59.3874 471.411 59.0656 471.411V471.411ZM59.0656 484.699H46.931V481.679H49.1076L50.5714 483.136C50.6836 483.248 50.8171 483.338 50.9642 483.399C51.1113 483.46 51.2691 483.491 51.4284 483.491H54.5682C54.7275 483.491 54.8853 483.46 55.0324 483.399C55.1795 483.338 55.313 483.248 55.4252 483.136L56.889 481.679H59.0656V484.699Z" fill="#C6C6C6"/>
<path d="M58.7615 469.601C60.5596 469.601 62.0124 471.051 62.0125 472.833C62.0125 474.615 60.5596 476.065 58.7615 476.065C56.9636 476.065 55.5115 474.615 55.5115 472.833C55.5115 471.051 56.9636 469.601 58.7615 469.601Z" fill="#DC3B3B" stroke="#071010" stroke-width="1.38682"/>
<path d="M44.7282 492.34V493.772H45.3681V491.84H46.0141V496.984H45.3681V494.32H44.7282V495.832H42.5646V492.34H44.7282ZM43.1985 495.296H44.0943V492.876H43.1985V495.296ZM46.4955 497.252V491.742H47.1476V497.252H46.4955ZM49.8719 493.065C49.8658 494.077 50.399 495.088 51.2919 495.472L50.8896 496.015C50.2558 495.722 49.7926 495.14 49.5367 494.421C49.2837 495.195 48.8084 495.829 48.141 496.143L47.7266 495.576C48.6438 495.18 49.1801 494.128 49.1832 493.065V492.187H49.8719V493.065ZM51.688 497.258V491.742H52.3706V497.258H51.688ZM55.2593 493.309C55.2593 494.211 55.7895 495.161 56.6793 495.533L56.3076 496.069C55.6555 495.786 55.1801 495.21 54.9272 494.509C54.6743 495.265 54.1898 495.899 53.5468 496.204L53.1567 495.673C54.0252 495.271 54.5676 494.244 54.5707 493.309V492.846H53.3579V492.285H56.466V492.846H55.2593V493.309ZM57.0816 497.252V491.742H57.7641V497.252H57.0816ZM62.92 491.742V493.138H63.6879V493.705H62.92V495.064H62.2435V491.742H62.92ZM58.5808 492.815V492.273H59.8789V491.706H60.5554V492.273H61.8474V492.815H58.5808ZM58.8611 494.003C58.8611 493.415 59.4096 493.016 60.2141 493.016C61.0125 493.016 61.5579 493.415 61.5609 494.003C61.5579 494.598 61.0094 494.991 60.2141 494.991C59.4096 494.991 58.8611 494.598 58.8611 494.003ZM59.3609 497.185V495.326H62.92V497.185H59.3609ZM59.5193 494.003C59.5163 494.311 59.7966 494.485 60.2141 494.485C60.6316 494.485 60.9149 494.311 60.9149 494.003C60.9149 493.705 60.6316 493.528 60.2141 493.528C59.7966 493.528 59.5163 493.705 59.5193 494.003ZM60.0313 496.636H62.2496V495.862H60.0313V496.636Z" fill="#C6C6C6"/>
<rect x="112.537" y="464.393" width="38.8308" height="38.8308" rx="5.54728" fill="#00B7B3" fill-opacity="0.15"/>
<path d="M134.292 491.609V486.929C134.292 486.722 134.21 486.523 134.064 486.377C133.918 486.231 133.719 486.149 133.512 486.149H130.392C130.185 486.149 129.987 486.231 129.84 486.377C129.694 486.523 129.612 486.722 129.612 486.929V491.609C129.612 491.816 129.53 492.014 129.384 492.161C129.237 492.307 129.039 492.389 128.832 492.389H124.151C123.945 492.389 123.746 492.307 123.6 492.161C123.454 492.014 123.371 491.816 123.371 491.609V482.589C123.373 482.482 123.396 482.375 123.44 482.276C123.483 482.177 123.546 482.088 123.625 482.014L131.426 474.925C131.569 474.794 131.757 474.721 131.952 474.721C132.147 474.721 132.335 474.794 132.479 474.925L140.28 482.014C140.358 482.088 140.421 482.177 140.465 482.276C140.508 482.375 140.531 482.482 140.533 482.589V491.609C140.533 491.816 140.451 492.014 140.305 492.161C140.158 492.307 139.96 492.389 139.753 492.389H135.073C134.866 492.389 134.667 492.307 134.521 492.161C134.375 492.014 134.292 491.816 134.292 491.609Z" fill="#F4F4F4"/>
<path d="M209.614 481.345C211.457 481.345 212.951 479.851 212.951 478.008C212.951 476.165 211.457 474.671 209.614 474.671C207.771 474.671 206.277 476.165 206.277 478.008C206.277 479.851 207.771 481.345 209.614 481.345Z" fill="#C6C6C6"/>
<path d="M209.614 470.727C208.054 470.727 206.529 471.19 205.232 472.057C203.935 472.923 202.924 474.155 202.327 475.597C201.73 477.038 201.574 478.624 201.878 480.154C202.182 481.684 202.933 483.089 204.037 484.192C205.14 485.295 206.545 486.047 208.075 486.351C209.605 486.655 211.191 486.499 212.632 485.902C214.073 485.305 215.305 484.294 216.172 482.997C217.039 481.7 217.501 480.175 217.501 478.615C217.497 476.524 216.665 474.52 215.187 473.042C213.708 471.564 211.704 470.731 209.614 470.727V470.727ZM214.604 483.044C214.113 482.34 213.48 481.745 212.746 481.3C211.903 482.107 210.781 482.558 209.614 482.558C208.447 482.558 207.324 482.107 206.482 481.3C205.747 481.745 205.115 482.34 204.623 483.044C203.769 482.082 203.211 480.894 203.017 479.623C202.822 478.351 202.999 477.05 203.526 475.877C204.053 474.704 204.908 473.708 205.989 473.009C207.069 472.31 208.327 471.938 209.614 471.938C210.9 471.938 212.159 472.31 213.239 473.009C214.319 473.708 215.174 474.704 215.701 475.877C216.229 477.05 216.406 478.351 216.211 479.623C216.016 480.894 215.458 482.082 214.604 483.044Z" fill="#C6C6C6"/>
<path d="M206.741 496.021V496.587H201.707V496.021H206.741ZM202.121 492.797V492.254H206.302V492.797H205.497V494.552H206.284V495.088H202.139V494.552H202.913V492.797H202.121ZM203.59 494.552H204.827V492.797H203.59V494.552ZM212.134 496.051V496.612H207.1V496.051H209.27V495.155H207.698V493.351H210.867V492.669H207.685V492.12H211.537V493.888H208.374V494.601H211.665V495.155H209.94V496.051H212.134ZM217.089 491.742V494.582H216.413V491.742H217.089ZM212.585 493.906C212.783 493.906 212.994 493.903 213.213 493.9V492.62H212.732V492.096H215.724V492.62H215.23V493.818C215.48 493.799 215.724 493.775 215.956 493.747L215.986 494.235C214.889 494.409 213.621 494.442 212.658 494.442L212.585 493.906ZM213.396 495.344V494.814H217.089V496.234H214.078V496.667H217.266V497.203H213.408V495.74H216.419V495.344H213.396ZM213.865 493.885C214.103 493.878 214.344 493.869 214.584 493.857V492.62H213.865V493.885Z" fill="#C6C6C6"/>
<path d="M39.6035 66.427H24.6187" stroke="white" stroke-width="1.38682" stroke-linecap="round" stroke-linejoin="round"/>
<path d="M30.7488 60.4338L24.6187 66.4269L30.7488 72.42" stroke="white" stroke-width="1.38682" stroke-linecap="round" stroke-linejoin="round"/>
<path d="M33.006 348.185C33.006 349.337 33.7526 350.429 35.1695 350.876L34.5601 351.76C33.5697 351.425 32.8587 350.754 32.4575 349.901C32.0614 350.876 31.3199 351.643 30.2635 352.014L29.6541 351.13C31.132 350.617 31.8735 349.393 31.8785 348.083V347.209H33.006V348.185ZM30.9034 354.147C30.9034 353.06 32.0969 352.415 34.0116 352.42C35.911 352.415 37.0842 353.06 37.0893 354.147C37.0842 355.259 35.911 355.894 34.0116 355.894C32.0969 355.894 30.9034 355.259 30.9034 354.147ZM32.0309 354.147C32.0309 354.716 32.7521 355 34.0116 355C35.266 355 35.972 354.716 35.972 354.147C35.972 353.609 35.266 353.304 34.0116 353.304C32.7521 353.304 32.0309 353.609 32.0309 354.147ZM35.8704 352.217V346.722H36.9979V348.957H38.2777V349.891H36.9979V352.217H35.8704ZM46.6474 346.722V355.904H45.5707V351.222H44.5346V355.437H43.4986V346.895H44.5346V350.318H45.5707V346.722H46.6474ZM39.0293 353.761V347.809H42.4625V348.723H40.167V352.806C41.1624 352.796 41.9851 352.745 42.9196 352.573L43.0009 353.497C41.8886 353.72 40.9288 353.751 39.6489 353.761H39.0293ZM51.9901 352.39C53.8946 352.39 55.0627 353.035 55.0678 354.137C55.0627 355.254 53.8946 355.899 51.9901 355.904C50.0704 355.899 48.882 355.254 48.882 354.137C48.882 353.035 50.0704 352.39 51.9901 352.39ZM48.0491 351.587V347.301H49.1664V348.54H51.3096V347.301H52.4269V351.587H48.0491ZM49.1664 350.693H51.3096V349.424H49.1664V350.693ZM50.0094 354.137C50.0094 354.706 50.7306 355.015 51.9901 355.01C53.2446 355.015 53.9505 354.706 53.9505 354.137C53.9505 353.568 53.2446 353.279 51.9901 353.273C50.7306 353.279 50.0094 353.568 50.0094 354.137ZM53.8489 352.166V346.722H54.9764V348.916H56.2562V349.861H54.9764V352.166H53.8489ZM64.6462 346.722V355.904H63.5594V346.722H64.6462ZM56.8149 350.693C56.8149 348.672 57.597 347.418 58.7956 347.423C59.9078 347.418 60.6645 348.459 60.7966 350.175H61.6803V346.884H62.7569V355.457H61.6803V351.09H60.8067C60.7001 352.882 59.9332 353.979 58.7956 353.974C57.597 353.979 56.8149 352.72 56.8149 350.693ZM57.8611 350.693C57.856 352.131 58.2115 352.903 58.7956 352.898C59.405 352.903 59.7656 352.131 59.7707 350.693C59.7656 349.261 59.405 348.484 58.7956 348.489C58.2115 348.484 57.856 349.261 57.8611 350.693ZM73.6355 346.722V355.904H72.5588V346.722H73.6355ZM65.6416 353.162C67.5411 352.039 68.4146 350.602 68.5873 348.753H66.1089V347.839H69.7046C69.7046 348.728 69.5928 349.561 69.344 350.338H70.6187V346.945H71.6853V355.467H70.6187V351.242H68.9732C68.44 352.293 67.5766 353.212 66.2815 353.964L65.6416 353.162ZM79.3744 346.864V347.585H83.3358V346.864H84.4531V349.921H78.2571V346.864H79.3744ZM77.1702 351.415V350.49H85.5399V351.415H81.9036V352.095H84.4937V354.32H79.2728V354.96H84.7476V355.823H78.1657V353.527H83.3865V352.928H78.1555V352.095H80.7761V351.415H77.1702ZM79.3744 349.078H83.3358V348.408H79.3744V349.078ZM90.4358 347.626V348.418C90.4307 349.332 90.4307 350.44 90.1717 351.973L89.1356 351.862C89.2372 351.262 89.2981 350.729 89.3337 350.241L86.4033 350.49L86.2611 349.576L89.3743 349.424C89.3845 349.104 89.3896 348.809 89.3896 348.53H86.4947V347.626H90.4358ZM86.0376 352.928C86.449 352.928 86.9416 352.923 87.4698 352.913V350.988H88.4855V352.882C89.2524 352.847 90.0295 352.796 90.6795 352.715L90.7506 353.538C89.2727 353.822 87.3682 353.842 86.19 353.842L86.0376 352.928ZM91.1366 355.457V346.895H92.1828V350.47H93.0564V346.722H94.1229V355.904H93.0564V351.394H92.1828V355.457H91.1366ZM102.391 346.722V348.814H103.671V349.739H102.391V351.882H101.264V346.722H102.391ZM95.0777 351.151C97.2057 350.607 98.4144 349.52 98.6124 348.195H95.5144V347.281H99.8415C99.8364 349.668 98.2722 351.318 95.5246 352.055L95.0777 351.151ZM96.4489 355.782V352.248H102.391V355.782H96.4489ZM97.5764 354.888H101.274V353.172H97.5764V354.888ZM108.313 346.864C110.405 346.869 111.619 347.423 111.624 348.439C111.619 349.464 110.405 350.018 108.313 350.023C106.225 350.018 105.001 349.464 105.001 348.439C105.001 347.423 106.225 346.869 108.313 346.864ZM104.138 351.415V350.511H112.508V351.415H104.138ZM105.123 352.867V352.034H111.462V354.279H106.241V354.96H111.715V355.823H105.133V353.477H110.354V352.867H105.123ZM106.19 348.439C106.185 348.946 106.916 349.18 108.313 349.18C109.73 349.18 110.456 348.946 110.456 348.439C110.456 347.966 109.73 347.697 108.313 347.697C106.916 347.697 106.185 347.966 106.19 348.439ZM123.965 350.44V351.333H120.329V352.034H122.919V354.289H117.698V354.96H123.173V355.823H116.591V353.497H121.812V352.877H116.581V352.034H119.212V351.333H115.596V350.44H123.965ZM116.002 349.261C117.693 349.139 118.8 348.56 119.054 347.88H116.357V347.006H123.214V347.88H120.491C120.74 348.555 121.858 349.139 123.569 349.261L123.214 350.114C121.568 349.982 120.324 349.429 119.77 348.611C119.217 349.429 117.988 349.982 116.357 350.114L116.002 349.261ZM131.837 347.484C131.832 348.637 133.127 349.81 135.088 350.064L134.641 350.978C133.081 350.744 131.842 349.977 131.243 348.941C130.644 349.977 129.41 350.744 127.866 350.978L127.419 350.064C129.359 349.81 130.649 348.647 130.649 347.484V347.016H131.837V347.484ZM127.053 352.705V351.77H135.423V352.705H131.776V355.904H130.659V352.705H127.053ZM141.771 352.694C141.771 353.461 142.122 354.259 142.909 354.767C143.711 354.223 144.082 353.39 144.087 352.694V352.319H145.194V352.694C145.189 353.654 145.758 354.558 146.962 354.939L146.413 355.762C145.519 355.462 144.93 354.878 144.61 354.142C144.31 354.868 143.772 355.508 142.939 355.843C142.066 355.523 141.517 354.904 141.228 354.177C140.898 354.883 140.314 355.457 139.465 355.762L138.907 354.939C140.095 354.523 140.669 353.588 140.674 352.694V352.319H141.771V352.694ZM138.673 349.403C138.673 348.113 139.729 347.22 141.151 347.22C142.568 347.22 143.625 348.113 143.62 349.403C143.625 350.678 142.568 351.582 141.151 351.577C139.729 351.582 138.673 350.678 138.673 349.403ZM139.78 349.403C139.775 350.155 140.349 350.638 141.151 350.643C141.939 350.638 142.513 350.155 142.513 349.403C142.513 348.652 141.939 348.169 141.151 348.174C140.349 348.169 139.775 348.652 139.78 349.403ZM145.021 351.933V346.732H146.159V351.933H145.021ZM154.935 349.322V350.216H148.577V347.057H149.694V349.322H154.935ZM147.49 352.176V351.283H155.88V352.176H147.49ZM148.495 355.691V352.989H149.623V354.777H154.996V355.691H148.495ZM166.2 346.722V348.571H167.479V349.505H166.2V351.333H165.072V346.722H166.2ZM159.272 350.947V347.189H163.62V350.947H159.272ZM160.197 352.603V351.73H166.2V354.137H161.324V354.899H166.484V355.792H160.207V353.314H165.072V352.603H160.197ZM160.379 350.054H162.512V348.083H160.379V350.054ZM176.316 351.465V352.369H167.947V351.465H176.316ZM168.81 348.875C168.81 347.712 170.115 347.011 172.121 347.016C174.122 347.011 175.428 347.712 175.433 348.875C175.428 350.043 174.122 350.754 172.121 350.754C170.115 350.754 168.81 350.043 168.81 348.875ZM168.983 355.721V353.05H170.11V354.807H175.372V355.721H168.983ZM169.988 348.875C169.978 349.5 170.786 349.835 172.121 349.83C173.462 349.835 174.265 349.5 174.265 348.875C174.265 348.271 173.462 347.92 172.121 347.92C170.786 347.92 169.978 348.271 169.988 348.875ZM182.695 347.992C182.685 349.195 183.432 350.348 184.859 350.815L184.249 351.699C183.274 351.349 182.568 350.668 182.162 349.81C181.761 350.795 181.004 351.572 179.912 351.963L179.313 351.069C180.801 350.556 181.558 349.332 181.558 348.022V347.199H182.695V347.992ZM180.714 355.792V352.43H186.646V355.792H180.714ZM181.832 354.878H185.529V353.334H181.832V354.878ZM185.519 352.055V346.722H186.646V348.885H187.926V349.81H186.646V352.055H185.519ZM195.585 346.722V350.307H196.946V351.252H195.585V355.884H194.457V346.722H195.585ZM188.343 353.375C190.577 352.258 191.786 350.704 192.009 348.611H188.84V347.677H193.157C193.152 350.374 192.035 352.745 188.983 354.249L188.343 353.375ZM201.862 348.185V349.089H197.362V348.185H199.069V346.986H200.186V348.185H201.862ZM197.626 351.709C197.616 350.46 198.464 349.571 199.627 349.576C200.796 349.571 201.628 350.46 201.628 351.709C201.628 352.984 200.796 353.873 199.627 353.873C198.464 353.873 197.616 352.984 197.626 351.709ZM198.622 351.709C198.617 352.451 199.033 352.913 199.627 352.908C200.217 352.913 200.633 352.451 200.633 351.709C200.633 350.988 200.217 350.511 199.627 350.511C199.033 350.511 198.617 350.988 198.622 351.709ZM202.248 355.488V346.915H203.304V350.5H204.198V346.722H205.275V355.904H204.198V351.415H203.304V355.488H202.248ZM214.742 351.841V352.755H211.095V355.894H209.978V352.755H206.372V351.841H214.742ZM206.809 350.338C208.612 350.109 209.82 349.139 209.902 348.134H207.144V347.24H213.97V348.134H211.212C211.288 349.139 212.487 350.109 214.305 350.338L213.899 351.222C212.334 350.998 211.115 350.282 210.557 349.292C209.993 350.282 208.784 350.998 207.235 351.222L206.809 350.338ZM218.226 349.129C218.231 350.612 218.739 352.156 219.983 352.938L219.363 353.802C218.535 353.304 217.997 352.451 217.692 351.45C217.362 352.552 216.773 353.487 215.91 354.015L215.209 353.172C216.545 352.364 217.134 350.744 217.139 349.18V347.535H218.226V349.129ZM218.998 350.815V349.881H220.308V346.884H221.374V355.457H220.308V350.815H218.998ZM222.197 355.904V346.722H223.284V355.904H222.197ZM232.74 353.863V354.787H224.35V353.863H226.291V351.542C225.559 351.12 225.117 350.46 225.122 349.647C225.117 348.185 226.55 347.22 228.525 347.22C230.511 347.22 231.953 348.185 231.948 349.647C231.953 350.45 231.522 351.095 230.811 351.516V353.863H232.74ZM226.23 349.647C226.225 350.587 227.154 351.186 228.525 351.181C229.891 351.186 230.841 350.587 230.841 349.647C230.841 348.692 229.891 348.108 228.525 348.113C227.154 348.108 226.225 348.692 226.23 349.647ZM227.408 353.863H229.663V351.948C229.312 352.024 228.931 352.065 228.525 352.065C228.129 352.065 227.753 352.024 227.408 351.953V353.863ZM234.457 355.081C234.02 355.081 233.66 354.726 233.665 354.289C233.66 353.863 234.02 353.512 234.457 353.507C234.879 353.512 235.239 353.863 235.239 354.289C235.239 354.726 234.879 355.081 234.457 355.081Z" fill="#F4F4F4"/>
<path d="M42.1382 374.802V367.939H46.3V368.697H42.9914V370.991H46.0819V371.74H42.9914V374.044H46.3474V374.802H42.1382ZM48.1581 369.655L49.3716 371.75L50.5945 369.655H51.5331L49.874 372.224L51.5331 374.802H50.604L49.3716 372.811L48.1581 374.802H47.2196L48.8407 372.224L47.2196 369.655H48.1581ZM53.0973 374.859C52.7655 374.854 52.4811 374.58 52.4906 374.243C52.4811 373.911 52.7655 373.636 53.0973 373.636C53.4338 373.636 53.7088 373.911 53.704 374.243C53.7088 374.58 53.4338 374.854 53.0973 374.859ZM60.9279 367.322C62.7624 367.327 63.9 367.924 63.9047 368.934C63.9 369.512 63.5255 369.953 62.8619 370.228V371.446H64.7674V372.053H57.0885V371.446H58.994V370.228C58.3209 369.958 57.9417 369.512 57.9417 368.934C57.9417 367.924 59.0935 367.327 60.9279 367.322ZM57.9417 373.456V372.849H63.8194V375.57H63.0705V373.456H57.9417ZM58.7096 368.934C58.7048 369.564 59.5628 369.948 60.9279 369.948C62.2789 369.948 63.1416 369.564 63.1463 368.934C63.1416 368.294 62.2789 367.924 60.9279 367.92C59.5628 367.924 58.7048 368.294 58.7096 368.934ZM59.7334 371.446H62.1225V370.437C61.7669 370.503 61.3688 370.536 60.9279 370.536C60.4871 370.536 60.089 370.503 59.7334 370.437V371.446ZM72.4654 367.142V371.503H71.7164V369.313H69.8393V368.697H71.7164V367.142H72.4654ZM65.469 370.925C66.7393 370.503 67.6115 369.446 67.621 368.214V367.417H68.351V368.214C68.3415 369.318 69.2137 370.332 70.4461 370.735L70.0479 371.314C69.1141 370.982 68.3699 370.318 67.9954 369.465C67.6352 370.427 66.872 371.162 65.8766 371.522L65.469 370.925ZM67.0048 372.527V371.93H72.4654V373.94H67.7537V374.859H72.7782V375.456H67.0237V373.371H71.7259V372.527H67.0048ZM75.2525 374.167L74.5131 376.746H73.8115L74.333 374.167H75.2525ZM81.6896 368.47C81.6801 369.674 82.5381 370.731 83.7752 371.152L83.3581 371.731C82.4291 371.385 81.6991 370.697 81.3341 369.811C80.9738 370.821 80.206 371.603 79.1868 371.987L78.7792 371.38C80.078 370.925 80.9407 369.806 80.9501 368.498V367.626H81.6896V368.47ZM80.1538 373.978C80.1491 372.963 81.2251 372.38 82.9789 372.385C84.728 372.38 85.804 372.963 85.804 373.978C85.804 374.982 84.728 375.551 82.9789 375.551C81.2251 375.551 80.1491 374.982 80.1538 373.978ZM80.8933 373.978C80.8885 374.589 81.6849 374.959 82.9789 374.954C84.2682 374.959 85.0646 374.589 85.0646 373.978C85.0646 373.347 84.2682 372.973 82.9789 372.973C81.6849 372.973 80.8885 373.347 80.8933 373.978ZM83.1496 369.569V368.953H85.0266V367.142H85.7756V372.138H85.0266V369.569H83.1496ZM94.0897 367.142V375.57H93.3503V367.142H94.0897ZM87.226 373.267C88.8424 373.267 90.9518 373.262 92.7909 373.03L92.8478 373.579C90.947 373.892 88.9088 373.911 87.3398 373.902L87.226 373.267ZM87.4062 368.896V368.289H89.6151V367.237H90.3735V368.289H92.5729V368.896H87.4062ZM87.9845 370.953C87.975 369.982 88.7998 369.365 89.9943 369.361C91.1935 369.365 92.0135 369.982 92.023 370.953C92.0135 371.901 91.1935 372.537 89.9943 372.527C88.7998 372.537 87.975 371.901 87.9845 370.953ZM88.6765 370.953C88.6765 371.546 89.2169 371.944 89.9943 371.949C90.7716 371.944 91.3073 371.546 91.312 370.953C91.3073 370.356 90.7716 369.948 89.9943 369.948C89.2169 369.948 88.6765 370.356 88.6765 370.953ZM103.276 371.636V372.252H95.5591V371.636H99.0479V370.849H96.564V368.839H101.532V367.996H96.5356V367.389H102.281V369.389H97.3035V370.261H102.461V370.849H99.7778V371.636H103.276ZM96.4692 374.196C96.4598 373.3 97.5358 372.826 99.4081 372.821C101.261 372.826 102.333 373.3 102.337 374.196C102.333 375.077 101.261 375.551 99.4081 375.551C97.5358 375.551 96.4598 375.077 96.4692 374.196ZM97.2277 374.196C97.2182 374.703 98.0145 374.997 99.4081 374.992C100.778 374.997 101.574 374.703 101.579 374.196C101.574 373.684 100.778 373.399 99.4081 373.399C98.0145 373.399 97.2182 373.684 97.2277 374.196ZM105.343 374.167L104.603 376.746H103.902L104.423 374.167H105.343ZM115.866 367.152V373.38H115.117V371.105H112.936C112.548 371.603 111.922 371.901 111.201 371.901C109.941 371.901 109.007 371.029 109.012 369.797C109.007 368.56 109.941 367.687 111.201 367.683C111.917 367.687 112.533 367.981 112.927 368.47H115.117V367.152H115.866ZM109.723 369.797C109.723 370.64 110.339 371.242 111.201 371.238C112.031 371.242 112.661 370.64 112.661 369.797C112.661 368.958 112.031 368.351 111.201 368.346C110.339 368.351 109.723 368.958 109.723 369.797ZM110.453 375.39V372.726H111.201V374.764H116.103V375.39H110.453ZM113.263 369.086C113.339 369.304 113.382 369.541 113.382 369.797C113.382 370.043 113.339 370.276 113.268 370.489H115.117V369.086H113.263ZM121.45 367.654V369.977H118.378V371.2C119.876 371.195 120.961 371.143 122.274 370.925L122.35 371.541C120.999 371.764 119.871 371.821 118.302 371.816H117.648V369.389H120.72V368.261H117.629V367.654H121.45ZM118.34 373.323V372.717H123.858V375.57H123.118V373.323H118.34ZM123.118 372.271V367.152H123.858V369.313H125.137V369.939H123.858V372.271H123.118ZM132.646 367.142V375.589H131.897V371.152H130.048V370.536H131.897V367.142H132.646ZM125.678 373.361C126.915 372.783 127.839 371.342 127.839 369.892V369.218H125.905V368.612H127.839V367.303H128.579V368.612H130.484V369.218H128.569V369.892C128.569 371.28 129.522 372.65 130.769 373.21L130.342 373.788C129.38 373.352 128.588 372.428 128.214 371.318C127.849 372.494 127.067 373.475 126.104 373.94L125.678 373.361ZM135.433 374.167L134.693 376.746H133.992L134.513 374.167H135.433ZM145.918 367.142V375.589H145.169V367.142H145.918ZM139.282 370.735C139.287 368.944 140.178 367.801 141.434 367.796C142.685 367.801 143.591 368.944 143.586 370.735C143.591 372.532 142.685 373.669 141.434 373.665C140.178 373.669 139.287 372.532 139.282 370.735ZM140.002 370.735C140.002 372.105 140.59 373.006 141.434 373.001C142.282 373.006 142.865 372.105 142.865 370.735C142.865 369.365 142.282 368.465 141.434 368.46C140.59 368.465 140.002 369.365 140.002 370.735ZM150.26 368.47C150.25 369.674 151.108 370.731 152.346 371.152L151.928 371.731C150.999 371.385 150.269 370.697 149.904 369.811C149.544 370.821 148.776 371.603 147.757 371.987L147.35 371.38C148.648 370.925 149.511 369.806 149.52 368.498V367.626H150.26V368.47ZM148.724 373.978C148.719 372.963 149.795 372.38 151.549 372.385C153.298 372.38 154.374 372.963 154.374 373.978C154.374 374.982 153.298 375.551 151.549 375.551C149.795 375.551 148.719 374.982 148.724 373.978ZM149.464 373.978C149.459 374.589 150.255 374.959 151.549 374.954C152.839 374.959 153.635 374.589 153.635 373.978C153.635 373.347 152.839 372.973 151.549 372.973C150.255 372.973 149.459 373.347 149.464 373.978ZM151.72 369.569V368.953H153.597V367.142H154.346V372.138H153.597V369.569H151.72ZM160.006 367.91V371.788H156.109V367.91H160.006ZM156.839 371.19H159.285V368.517H156.839V371.19ZM157.067 375.39V372.736H157.797V374.764H162.726V375.39H157.067ZM161.598 373.323V367.142H162.338V369.711H163.608V370.337H162.338V373.323H161.598ZM169.448 368.906C169.453 369.915 170.296 370.84 171.543 371.209L171.192 371.778C170.221 371.484 169.467 370.859 169.092 370.057C168.727 370.939 167.945 371.622 166.945 371.949L166.575 371.361C167.832 370.982 168.713 370.015 168.718 368.906V368.744H166.812V368.128H168.718V367.104H169.467V368.128H171.353V368.744H169.448V368.906ZM167.429 374.963C168.784 374.745 170.017 374.006 170.14 373.105H167.76V372.499H173.316V373.105H170.927C171.045 373.987 172.287 374.745 173.638 374.963L173.363 375.542C172.131 375.338 171.012 374.726 170.529 373.883C170.05 374.722 168.936 375.324 167.713 375.532L167.429 374.963ZM172.425 372.044V367.142H173.164V369.228H174.434V369.854H173.164V372.044H172.425ZM181.782 369.702V370.299H176.008V367.455H176.748V369.702H181.782ZM174.956 372.053V371.446H182.673V372.053H174.956ZM175.961 375.362V372.916H176.7V374.745H181.829V375.362H175.961ZM192.949 367.142V372.48H192.238V370.062H191.11V372.176H190.409V367.313H191.11V369.446H192.238V367.142H192.949ZM185.744 368.754V368.157H187.546V367.209H188.285V368.157H190.067V368.754H185.744ZM186.114 370.65C186.109 369.768 186.854 369.204 187.915 369.209C188.982 369.204 189.721 369.768 189.726 370.65C189.721 371.517 188.982 372.081 187.915 372.081C186.854 372.081 186.109 371.517 186.114 370.65ZM186.778 370.65C186.778 371.167 187.242 371.522 187.915 371.522C188.588 371.522 189.053 371.167 189.053 370.65C189.053 370.114 188.588 369.759 187.915 369.759C187.242 369.759 186.778 370.114 186.778 370.65ZM187.337 374.101C187.328 373.153 188.385 372.622 190.162 372.622C191.935 372.622 192.992 373.153 192.997 374.101C192.992 375.025 191.935 375.551 190.162 375.551C188.385 375.551 187.328 375.025 187.337 374.101ZM188.076 374.101C188.067 374.646 188.849 374.978 190.162 374.973C191.47 374.978 192.248 374.646 192.257 374.101C192.248 373.522 191.47 373.2 190.162 373.21C188.849 373.2 188.067 373.522 188.076 374.101ZM196.959 367.559C198.22 367.55 199.126 368.247 199.121 369.275C199.126 370.304 198.22 371.005 196.959 371.001C195.699 371.005 194.798 370.304 194.798 369.275C194.798 368.247 195.699 367.55 196.959 367.559ZM194.163 371.721C195.746 371.726 197.912 371.693 199.785 371.418L199.832 371.977C199.026 372.124 198.192 372.214 197.377 372.266V375.314H196.637V372.309C195.779 372.347 194.969 372.352 194.267 372.356L194.163 371.721ZM195.528 369.275C195.518 369.934 196.12 370.389 196.959 370.385C197.808 370.389 198.415 369.934 198.41 369.275C198.415 368.621 197.808 368.157 196.959 368.166C196.12 368.157 195.518 368.621 195.528 369.275ZM200.401 375.58V367.152H201.131V375.58H200.401ZM211.711 367.597V368.223C211.711 368.877 211.711 369.645 211.488 370.697H212.725V371.314H205.008V370.697H210.739C210.976 369.636 210.976 368.877 210.971 368.223V368.214H205.985V367.597H211.711ZM205.956 375.456V372.48H211.749V375.456H205.956ZM206.696 374.85H211.009V373.067H206.696V374.85ZM216.413 369.73C216.418 371.162 217.456 372.617 218.698 373.153L218.28 373.741C217.294 373.295 216.446 372.323 216.053 371.157C215.659 372.394 214.806 373.466 213.844 373.949L213.398 373.361C214.607 372.783 215.659 371.19 215.664 369.73V368.631H213.673V368.014H218.423V368.631H216.413V369.73ZM219.598 375.57V367.142H220.347V375.57H219.598ZM223.153 367.939L223.087 372.868H222.291L222.224 367.939H223.153ZM222.082 374.243C222.073 373.911 222.357 373.636 222.689 373.636C223.025 373.636 223.3 373.911 223.295 374.243C223.3 374.58 223.025 374.854 222.689 374.859C222.357 374.854 222.073 374.58 222.082 374.243Z" fill="#F4F4F4"/>
<rect x="21.021" y="395.699" width="223.277" height="41.6044" rx="20.8022" fill="#1BA3A1"/>
<rect x="93.9705" y="400.553" width="31.8967" height="31.8967" rx="15.9484" fill="#1BA3A1"/>
<path d="M113.314 414.509H116.694V411.129" stroke="white" stroke-width="1.38682" stroke-linecap="round" stroke-linejoin="round"/>
<path d="M114.3 420.882C113.433 421.749 112.329 422.34 111.127 422.579C109.924 422.819 108.678 422.697 107.545 422.228C106.413 421.759 105.444 420.964 104.763 419.945C104.082 418.926 103.719 417.727 103.719 416.502C103.719 415.276 104.082 414.077 104.763 413.058C105.444 412.039 106.413 411.244 107.545 410.775C108.678 410.307 109.924 410.184 111.127 410.424C112.329 410.663 113.433 411.254 114.3 412.121L116.694 414.509" stroke="white" stroke-width="1.38682" stroke-linecap="round" stroke-linejoin="round"/>
<path d="M135.789 411.068V422.086H134.497V416.504H133.363V421.55H132.083V411.263H133.363V415.383H134.497V411.068H135.789ZM126.05 418.881C127.683 417.954 128.342 416.035 128.342 413.883V413.359H126.379V412.274H131.462V413.359H129.658V413.883C129.658 415.84 130.316 417.65 131.949 418.491L131.157 419.527C130.109 418.96 129.42 417.991 129.03 416.796C128.658 418.168 127.97 419.271 126.879 419.917L126.05 418.881ZM145.942 413.932V415.017H142.712V416.297H147.076V417.382H137.02V416.297H141.359V415.017H138.312V411.263H139.653V413.932H145.942ZM138.166 419.417V418.32H145.833V422.086H144.48V419.417H138.166ZM152.817 411.287C155.254 411.287 156.784 412.086 156.79 413.432C156.784 414.749 155.254 415.535 152.817 415.529C150.403 415.535 148.843 414.749 148.843 413.432C148.843 412.086 150.403 411.287 152.817 411.287ZM147.807 417.369V416.272H157.851V417.369H147.807ZM148.989 421.952V418.247H156.632V421.952H148.989ZM150.257 413.432C150.245 414.097 151.208 414.475 152.817 414.481C154.426 414.475 155.389 414.097 155.389 413.432C155.389 412.732 154.426 412.348 152.817 412.348C151.208 412.348 150.245 412.732 150.257 413.432ZM150.33 420.855H155.315V419.32H150.33V420.855Z" fill="#F4F4F4"/>
<path d="M132.661 134.631C183.786 134.631 225.23 175.922 225.23 226.853C225.23 277.785 183.787 319.077 132.661 319.077C81.5345 319.077 40.0903 277.786 40.0903 226.853C40.0906 175.921 81.5347 134.631 132.661 134.631Z" stroke="#1BA3A1" stroke-width="0.69341"/>
<path d="M174.072 245.975C174.072 297.361 179.168 318.73 130.917 318.73C83.7344 318.73 39.7437 279.172 39.7437 227.786C39.7437 176.399 81.9244 136.151 129.094 135.022C179.772 133.81 174.072 156.871 174.072 245.975Z" fill="#1BA3A1"/>
<path d="M115.058 233.719L115.038 231.579L120.144 226.886C121.469 225.619 122.186 224.833 122.186 223.704C122.186 222.438 121.234 221.652 119.928 221.662C118.593 221.652 117.719 222.497 117.729 223.861H114.92C114.911 221.083 116.972 219.305 119.967 219.305C123.011 219.305 125.034 221.043 125.034 223.508C125.034 225.128 124.248 226.454 121.322 229.105L119.162 231.206V231.284H125.23V233.719H115.058ZM132.849 233.916C129.285 233.916 127.135 231.265 127.135 226.611C127.135 221.966 129.305 219.305 132.849 219.305C136.394 219.305 138.564 221.966 138.564 226.611C138.564 231.284 136.404 233.916 132.849 233.916ZM130.159 226.611C130.139 229.89 131.2 231.481 132.849 231.481C134.499 231.481 135.55 229.89 135.54 226.611C135.55 223.361 134.489 221.731 132.849 221.721C131.21 221.731 130.159 223.361 130.159 226.611ZM146.714 226.218C146.586 225.472 145.938 224.991 144.966 224.981C144.023 224.991 143.306 225.432 143.316 226.08C143.306 226.562 143.68 226.935 144.691 227.141L146.596 227.534C148.668 227.966 149.669 228.889 149.679 230.42C149.669 232.522 147.784 233.926 144.946 233.935C142.069 233.926 140.38 232.639 140.135 230.558H143.061C143.198 231.392 143.876 231.824 144.946 231.834C146.007 231.824 146.714 231.402 146.714 230.715C146.714 230.165 146.262 229.821 145.26 229.615L143.493 229.262C141.461 228.859 140.42 227.818 140.43 226.238C140.42 224.195 142.177 222.919 144.927 222.919C147.617 222.919 149.286 224.195 149.443 226.218H146.714Z" fill="#F4F4F4"/>
<path d="M200.615 75.725C204.061 75.725 206.855 72.931 206.855 69.4843C206.855 66.0377 204.061 63.2437 200.615 63.2437C197.168 63.2437 194.374 66.0377 194.374 69.4843C194.374 72.931 197.168 75.725 200.615 75.725Z" stroke="white" stroke-width="0.69341" stroke-linecap="round" stroke-linejoin="round"/>
<path d="M200.614 73.6445C200.997 73.6445 201.307 73.3341 201.307 72.9511C201.307 72.5682 200.997 72.2577 200.614 72.2577C200.231 72.2577 199.92 72.5682 199.92 72.9511C199.92 73.3341 200.231 73.6445 200.614 73.6445Z" fill="white"/>
<path d="M199.92 70.8715V70.1781C200.263 70.1781 201.022 70.3781 201.307 70.1781C201.592 69.9781 201.869 69.8173 202 69.4847C202.132 69.1521 202.067 68.451 202 68.0979C201.934 67.7448 201.549 67.659 201.307 67.4045C201.065 67.1499 200.95 66.7813 200.614 66.7111C200.277 66.6408 200.237 66.5733 199.92 66.7111C199.603 66.8488 198.724 67.1051 198.533 67.4045C198.343 67.7038 198.533 68.4313 198.533 68.7913" stroke="white" stroke-width="0.69341" stroke-linecap="round" stroke-linejoin="round"/>
<path d="M219.429 69.6092V70.2254H216.007V71.9508H215.258V70.2254H211.713V69.6092H219.429ZM212.585 67.2392C212.58 66.1916 213.76 65.5469 215.562 65.5422C217.363 65.5469 218.529 66.1916 218.529 67.2392C218.529 68.2772 217.363 68.9219 215.562 68.9172C213.76 68.9219 212.58 68.2772 212.585 67.2392ZM212.708 73.5719V71.1071H213.457V72.9368H218.567V73.5719H212.708ZM213.381 67.2392C213.372 67.8933 214.249 68.3104 215.562 68.3104C216.87 68.3104 217.742 67.8933 217.742 67.2392C217.742 66.5661 216.87 66.1537 215.562 66.1489C214.249 66.1537 213.372 66.5661 213.381 67.2392ZM222.338 65.8361C223.049 65.8313 223.651 66.1015 224.044 66.5471H226.253V65.3242H227.002V70.3202H226.253V69.1162H224.044C223.655 69.5618 223.049 69.832 222.338 69.8273C221.077 69.832 220.143 69.0072 220.148 67.8364C220.143 66.6561 221.077 65.8313 222.338 65.8361ZM220.859 67.8364C220.859 68.6185 221.475 69.1968 222.338 69.1921C223.172 69.1968 223.798 68.6185 223.798 67.8364C223.798 67.0353 223.172 66.476 222.338 66.4807C221.475 66.476 220.859 67.0353 220.859 67.8364ZM221.38 72.1215C221.375 71.1071 222.456 70.5193 224.205 70.5193C225.95 70.5193 227.03 71.1071 227.03 72.1215C227.03 73.1453 225.95 73.7331 224.205 73.7331C222.456 73.7331 221.375 73.1453 221.38 72.1215ZM222.11 72.1215C222.105 72.7566 222.911 73.1406 224.205 73.1358C225.499 73.1406 226.305 72.7566 226.3 72.1215C226.305 71.4815 225.499 71.1023 224.205 71.0976C222.911 71.1023 222.105 71.4815 222.11 72.1215ZM224.4 67.1538C224.475 67.3624 224.518 67.5899 224.518 67.8364C224.518 68.0734 224.475 68.2962 224.404 68.5H226.253V67.1538H224.4ZM232.195 70.6236C233.925 70.6236 234.972 71.1924 234.972 72.1783C234.972 73.1738 233.925 73.7426 232.195 73.7521C230.46 73.7426 229.403 73.1738 229.398 72.1783C229.403 71.1924 230.46 70.6236 232.195 70.6236ZM228.668 69.7419V65.855H229.398V67.1444H231.853V65.855H232.593V69.7419H228.668ZM229.398 69.1352H231.853V67.7321H229.398V69.1352ZM230.147 72.1783C230.138 72.7851 230.924 73.1453 232.195 73.1453C233.47 73.1453 234.247 72.7851 234.252 72.1783C234.247 71.5764 233.47 71.2208 232.195 71.2114C230.924 71.2208 230.138 71.5764 230.147 72.1783ZM234.157 70.3961V65.3242H234.897V67.4477H236.167V68.0829H234.897V70.3961H234.157ZM239.663 67.0401C239.658 68.1113 240.582 69.0546 241.843 69.4196L241.493 70.0074C240.492 69.7087 239.696 69.0594 239.307 68.2204C238.938 69.1399 238.141 69.851 237.132 70.1875L236.771 69.6092C238.023 69.2016 238.923 68.1824 238.923 67.0401V66.9263H236.98V66.3291H238.923V65.2862H239.672V66.3291H241.597V66.9263H239.663V67.0401ZM238.08 73.6383V70.7563H243.559V73.6383H238.08ZM238.81 73.0316H242.829V71.363H238.81V73.0316ZM242.82 70.3297V65.3336H243.559V70.3297H242.82Z" fill="#F4F4F4"/>
</g>
<rect x="10.25" y="8.25349" width="247.176" height="527.186" rx="17.8305" stroke="black" stroke-width="2.74316"/>
<g filter="url(#filter0_d_1_633)">
<mask id="path-32-inside-2_1_633" fill="white">
<path d="M6.58618 25.22C6.58618 13.403 16.1658 3.82338 27.9828 3.82338H240.459C252.276 3.82338 261.855 13.403 261.855 25.22V519.238C261.855 531.056 252.276 540.635 240.459 540.635H27.9828C16.1658 540.635 6.58618 531.056 6.58618 519.239V25.22Z"/>
</mask>
<path d="M4.94029 25.22C4.94029 12.494 15.2568 2.17748 27.9828 2.17748H238.813C251.539 2.17748 261.855 12.494 261.855 25.22V25.22C261.855 14.312 252.276 5.46927 240.459 5.46927H27.9828C17.0748 5.46927 8.23208 14.312 8.23208 25.22L4.94029 25.22ZM261.855 540.635H6.58618H261.855ZM27.9828 540.635C15.2568 540.635 4.94029 530.319 4.94029 517.593V25.22C4.94029 12.494 15.2568 2.17748 27.9828 2.17748L27.9828 5.46927C17.0748 5.46927 8.23208 14.312 8.23208 25.22V519.239C8.23208 531.056 17.0748 540.635 27.9828 540.635H27.9828ZM261.855 3.82338V540.635V3.82338Z" fill="#939393" mask="url(#path-32-inside-2_1_633)"/>
<path d="M4.94029 25.22C4.94029 12.494 15.2568 2.17748 27.9828 2.17748H238.813C251.539 2.17748 261.855 12.494 261.855 25.22V25.22C261.855 14.312 252.276 5.46927 240.459 5.46927H27.9828C17.0748 5.46927 8.23208 14.312 8.23208 25.22L4.94029 25.22ZM261.855 540.635H6.58618H261.855ZM27.9828 540.635C15.2568 540.635 4.94029 530.319 4.94029 517.593V25.22C4.94029 12.494 15.2568 2.17748 27.9828 2.17748L27.9828 5.46927C17.0748 5.46927 8.23208 14.312 8.23208 25.22V519.239C8.23208 531.056 17.0748 540.635 27.9828 540.635H27.9828ZM261.855 3.82338V540.635V3.82338Z" fill="black" fill-opacity="0.2" mask="url(#path-32-inside-2_1_633)"/>
</g>
<ellipse cx="33.3353" cy="26.6486" rx="8.40704" ry="8.29632" fill="black"/>
<ellipse cx="33.335" cy="29.967" rx="5.04422" ry="4.97779" fill="#0B0B0B"/>
<ellipse cx="35.0164" cy="28.3075" rx="6.72563" ry="6.63706" fill="#D9D9D9" fill-opacity="0.11"/>
<ellipse cx="33.335" cy="26.6483" rx="5.04422" ry="4.97779" fill="black"/>
<ellipse cx="33.3352" cy="26.6485" rx="1.68141" ry="1.65926" fill="#474747"/>
<ellipse cx="0.840704" cy="0.829632" rx="0.840704" ry="0.829632" transform="matrix(-1 0 0 1 36.6987 24.9892)" fill="#D9D9D9"/>
<path d="M102.885 528.4H165.174" stroke="#DBDBDB" stroke-width="1.6459" stroke-linecap="round"/>
<path d="M218.494 22.6145C218.268 22.4706 216.021 20.9219 212.656 20.9219C209.286 20.9219 207.044 22.4706 206.818 22.6145L212.656 28.7501L218.494 22.6145Z" fill="#D2D2D2" fill-opacity="0.3"/>
<path d="M208.408 24.2818L212.656 28.7502L216.904 24.2818C216.688 24.1421 215.068 23.0335 212.656 23.0335C210.244 23.0335 208.624 24.1421 208.408 24.2818V24.2818Z" fill="white"/>
<path d="M239.237 21.9078C239.237 21.5989 238.936 21.345 238.57 21.345H237.732V20.4987H235.726V21.345H234.888C234.522 21.345 234.221 21.5989 234.221 21.9078V23.0376H239.237V21.9078Z" fill="#D2D2D2" fill-opacity="0.3"/>
<path d="M234.221 23.0376V28.3989C234.221 28.7078 234.522 28.9617 234.888 28.9617H238.565C238.936 28.9617 239.237 28.7078 239.237 28.3989V23.0376H234.221Z" fill="white"/>
<path d="M219.676 28.9617H229.694V20.4987L219.676 28.9617Z" fill="#D2D2D2" fill-opacity="0.3"/>
<path d="M227.19 22.6147L219.676 28.9619H227.19V22.6147Z" fill="white"/>
<path d="M51.0487 24.6424V28.9446H50.2678V25.5529L49.2335 25.8947V25.2641L50.9603 24.6424H51.0487ZM55.0518 28.3317V28.9446H52.1463V28.4201L53.5401 26.9143C53.6855 26.7493 53.8004 26.6059 53.8849 26.4841C53.9694 26.3623 54.0293 26.2523 54.0646 26.1541C54.102 26.0539 54.1206 25.9586 54.1206 25.8682C54.1206 25.7366 54.0971 25.6217 54.0499 25.5234C54.0028 25.4233 53.934 25.3457 53.8436 25.2907C53.7552 25.2356 53.6462 25.2081 53.5165 25.2081C53.3731 25.2081 53.2504 25.2415 53.1482 25.3083C53.048 25.3732 52.9714 25.4635 52.9184 25.5794C52.8673 25.6953 52.8417 25.8279 52.8417 25.9772H52.0608C52.0608 25.7238 52.1198 25.493 52.2377 25.2848C52.3555 25.0746 52.5245 24.9066 52.7445 24.7809C52.9645 24.6551 53.2258 24.5923 53.5283 24.5923C53.823 24.5923 54.0725 24.6414 54.2768 24.7396C54.4811 24.8359 54.6363 24.9734 54.7424 25.1522C54.8485 25.3309 54.9015 25.5441 54.9015 25.7916C54.9015 25.9291 54.8789 26.0647 54.8337 26.1983C54.7886 26.3318 54.7247 26.4644 54.6422 26.5961C54.5617 26.7257 54.4654 26.8573 54.3534 26.9909C54.2414 27.1245 54.1167 27.261 53.9792 27.4005L53.1423 28.3317H55.0518ZM55.7133 28.5645C55.7133 28.4466 55.7536 28.3474 55.8341 28.2669C55.9147 28.1863 56.0237 28.1461 56.1612 28.1461C56.2987 28.1461 56.4077 28.1863 56.4883 28.2669C56.5688 28.3474 56.6091 28.4466 56.6091 28.5645C56.6091 28.6804 56.5688 28.7786 56.4883 28.8592C56.4077 28.9378 56.2987 28.977 56.1612 28.977C56.0237 28.977 55.9147 28.9378 55.8341 28.8592C55.7536 28.7786 55.7133 28.6804 55.7133 28.5645ZM55.7162 26.0922C55.7162 25.9743 55.7565 25.8751 55.8371 25.7945C55.9176 25.714 56.0266 25.6737 56.1641 25.6737C56.3017 25.6737 56.4107 25.714 56.4912 25.7945C56.5718 25.8751 56.612 25.9743 56.612 26.0922C56.612 26.2081 56.5718 26.3063 56.4912 26.3868C56.4107 26.4654 56.3017 26.5047 56.1641 26.5047C56.0266 26.5047 55.9176 26.4654 55.8371 26.3868C55.7565 26.3063 55.7162 26.2081 55.7162 26.0922ZM60.2586 26.431V27.153C60.2586 27.483 60.2252 27.7649 60.1584 27.9987C60.0916 28.2325 59.9954 28.424 59.8696 28.5733C59.7439 28.7207 59.5936 28.8297 59.4188 28.9004C59.2439 28.9692 59.0494 29.0036 58.8353 29.0036C58.6644 29.0036 58.5053 28.982 58.3579 28.9387C58.2106 28.8935 58.078 28.8248 57.9601 28.7325C57.8442 28.6382 57.744 28.5183 57.6596 28.373C57.5771 28.2276 57.5132 28.0537 57.468 27.8514C57.4248 27.649 57.4032 27.4162 57.4032 27.153V26.431C57.4032 26.101 57.4366 25.8201 57.5034 25.5883C57.5721 25.3565 57.6694 25.1669 57.7951 25.0196C57.9208 24.8722 58.0711 24.7651 58.246 24.6984C58.4208 24.6296 58.6153 24.5952 58.8294 24.5952C59.0023 24.5952 59.1614 24.6168 59.3068 24.66C59.4541 24.7033 59.5858 24.771 59.7017 24.8634C59.8195 24.9537 59.9197 25.0716 60.0022 25.217C60.0847 25.3604 60.1476 25.5333 60.1908 25.7356C60.236 25.936 60.2586 26.1678 60.2586 26.431ZM59.4807 27.2591V26.322C59.4807 26.157 59.4708 26.0136 59.4512 25.8918C59.4335 25.768 59.407 25.6629 59.3716 25.5765C59.3363 25.49 59.2921 25.4203 59.239 25.3673C59.186 25.3123 59.1251 25.272 59.0563 25.2465C58.9876 25.2209 58.9119 25.2081 58.8294 25.2081C58.7273 25.2081 58.6359 25.2288 58.5554 25.27C58.4748 25.3093 58.4071 25.3722 58.352 25.4586C58.297 25.5451 58.2548 25.66 58.2253 25.8034C58.1978 25.9448 58.1841 26.1177 58.1841 26.322V27.2591C58.1841 27.4241 58.1929 27.5685 58.2106 27.6923C58.2302 27.816 58.2578 27.9221 58.2931 28.0105C58.3304 28.0989 58.3746 28.1716 58.4257 28.2286C58.4788 28.2836 58.5397 28.3248 58.6084 28.3523C58.6772 28.3779 58.7528 28.3906 58.8353 28.3906C58.9394 28.3906 59.0308 28.37 59.1094 28.3288C59.1899 28.2875 59.2577 28.2227 59.3127 28.1343C59.3677 28.0439 59.409 27.927 59.4365 27.7836C59.4659 27.6382 59.4807 27.4634 59.4807 27.2591ZM63.8845 26.431V27.153C63.8845 27.483 63.8511 27.7649 63.7843 27.9987C63.7175 28.2325 63.6213 28.424 63.4955 28.5733C63.3698 28.7207 63.2195 28.8297 63.0447 28.9004C62.8699 28.9692 62.6754 29.0036 62.4612 29.0036C62.2903 29.0036 62.1312 28.982 61.9839 28.9387C61.8365 28.8935 61.7039 28.8248 61.586 28.7325C61.4701 28.6382 61.37 28.5183 61.2855 28.373C61.203 28.2276 61.1391 28.0537 61.0939 27.8514C61.0507 27.649 61.0291 27.4162 61.0291 27.153V26.431C61.0291 26.101 61.0625 25.8201 61.1293 25.5883C61.1981 25.3565 61.2953 25.1669 61.421 25.0196C61.5468 24.8722 61.697 24.7651 61.8719 24.6984C62.0467 24.6296 62.2412 24.5952 62.4553 24.5952C62.6282 24.5952 62.7873 24.6168 62.9327 24.66C63.0801 24.7033 63.2117 24.771 63.3276 24.8634C63.4455 24.9537 63.5456 25.0716 63.6281 25.217C63.7107 25.3604 63.7735 25.5333 63.8167 25.7356C63.8619 25.936 63.8845 26.1678 63.8845 26.431ZM63.1066 27.2591V26.322C63.1066 26.157 63.0968 26.0136 63.0771 25.8918C63.0594 25.768 63.0329 25.6629 62.9975 25.5765C62.9622 25.49 62.918 25.4203 62.8649 25.3673C62.8119 25.3123 62.751 25.272 62.6822 25.2465C62.6135 25.2209 62.5379 25.2081 62.4553 25.2081C62.3532 25.2081 62.2618 25.2288 62.1813 25.27C62.1007 25.3093 62.033 25.3722 61.978 25.4586C61.923 25.5451 61.8807 25.66 61.8513 25.8034C61.8238 25.9448 61.81 26.1177 61.81 26.322V27.2591C61.81 27.4241 61.8188 27.5685 61.8365 27.6923C61.8562 27.816 61.8837 27.9221 61.919 28.0105C61.9564 28.0989 62.0006 28.1716 62.0516 28.2286C62.1047 28.2836 62.1656 28.3248 62.2343 28.3523C62.3031 28.3779 62.3787 28.3906 62.4612 28.3906C62.5654 28.3906 62.6567 28.37 62.7353 28.3288C62.8158 28.2875 62.8836 28.2227 62.9386 28.1343C62.9936 28.0439 63.0349 27.927 63.0624 27.7836C63.0918 27.6382 63.1066 27.4634 63.1066 27.2591Z" fill="#D9D9D9" fill-opacity="0.92"/>
<defs>
<filter id="filter0_d_1_633" x="4.39165" y="3.82338" width="259.658" height="541.201" filterUnits="userSpaceOnUse" color-interpolation-filters="sRGB">
<feFlood flood-opacity="0" result="BackgroundImageFix"/>
<feColorMatrix in="SourceAlpha" type="matrix" values="0 0 0 0 0 0 0 0 0 0 0 0 0 0 0 0 0 0 127 0" result="hardAlpha"/>
<feOffset dy="2.19453"/>
<feGaussianBlur stdDeviation="1.09726"/>
<feComposite in2="hardAlpha" operator="out"/>
<feColorMatrix type="matrix" values="0 0 0 0 0 0 0 0 0 0 0 0 0 0 0 0 0 0 0.25 0"/>
<feBlend mode="normal" in2="BackgroundImageFix" result="effect1_dropShadow_1_633"/>
<feBlend mode="normal" in="SourceGraphic" in2="effect1_dropShadow_1_633" result="shape"/>
</filter>
<clipPath id="clip0_1_633">
<rect x="8.7312" y="3.84639" width="245.207" height="532.725" rx="28.5289" fill="white"/>
</clipPath>
</defs>
</svg>
