<svg width="187" height="62" viewBox="0 0 187 62" fill="none" xmlns="http://www.w3.org/2000/svg">
<path d="M48.7803 50.5672C47.9811 51.1462 47.0854 51.6308 46.1272 52.0114C41.2774 53.9377 34.23 53.7863 34.23 53.7863C34.23 53.7863 26.8997 53.956 21.8789 51.8141C21.0872 51.4765 20.3446 51.0507 19.6733 50.5672C15.1279 47.2846 14.4758 44.8225 14.4758 41.5272C14.4758 38.2381 16.5024 35.9351 16.6558 34.8535C16.8029 33.7657 16.1955 27.4422 22.0067 21.3794C22.0067 21.3794 21.7255 20.705 20.9008 20.2534C20.0696 19.808 19.0724 18.701 19.1875 16.7925C19.3025 14.884 20.0504 13.8343 21.5208 13.4844C22.9848 13.1281 24.5064 13.9487 25.1073 15.5392C25.7146 17.1297 25.8041 19.0954 25.8041 19.0954C25.8041 19.0954 28.3996 17.1488 34.23 17.1488C40.0603 17.1488 42.6558 19.0954 42.6558 19.0954C42.6558 19.0954 42.7454 17.1297 43.3463 15.5392C43.9473 13.9487 45.4751 13.1281 46.9391 13.4844C48.4095 13.8343 49.1575 14.884 49.2725 16.7925C49.3812 18.701 48.3903 19.808 47.5591 20.2534C46.7345 20.705 46.4533 21.3794 46.4533 21.3794C52.2581 27.4422 51.6571 33.7657 51.8041 34.8535C51.9575 35.9351 53.9842 38.2381 53.9842 41.5272C53.9842 44.8225 53.332 47.2846 48.7803 50.5672ZM34.0001 -2.04552e-06C15.2224 -2.04552e-06 0 15.1482 0 33.8344C0 45.3452 5.77781 55.5116 14.6032 61.6234C15.7733 58.9296 17.7298 55.8239 20.9839 52.6412C25.2878 55.0799 34.23 54.9584 34.23 54.9584C34.23 54.9584 42.1749 55.1771 46.9004 52.8624C49.5102 55.8652 51.6214 58.9726 52.8424 62C61.9798 55.9346 68 45.5848 68 33.8344C68 15.1482 52.7777 -2.04552e-06 34.0001 -2.04552e-06" fill="#27B8B4"/>
<path d="M87.208 34.4639C86.8564 34.5811 86.4902 34.5664 86.1094 34.4199C85.7578 34.2441 85.4355 33.9805 85.1426 33.6289C84.8496 33.2773 84.6152 32.8672 84.4395 32.3984C84.293 31.9297 84.2197 31.4316 84.2197 30.9043C84.6006 30.8457 85.0107 30.7871 85.4502 30.7285C85.8896 30.6406 86.2998 30.5674 86.6807 30.5088C87.1201 30.4502 87.5449 30.3916 87.9551 30.333C87.9844 28.6338 88.0137 27.0225 88.043 25.499C88.1016 23.9463 88.1455 22.5693 88.1748 21.3682C88.2334 20.1377 88.2773 19.1123 88.3066 18.292C88.3652 17.4424 88.4092 16.8711 88.4385 16.5781C88.4385 16.4316 88.5117 16.2852 88.6582 16.1387C88.8926 15.9629 89.2295 15.7139 89.6689 15.3916C90.1377 15.0693 90.665 14.7764 91.251 14.5127C91.749 14.3076 92.0713 14.3809 92.2178 14.7324C92.3936 15.0547 92.4814 15.6846 92.4814 16.6221C92.4229 17.9404 92.3643 19.7129 92.3057 21.9395C92.2471 24.166 92.1885 26.7881 92.1299 29.8057C92.5986 29.7471 93.0527 29.7031 93.4922 29.6738C93.9316 29.6445 94.4004 29.6152 94.8984 29.5859C96.2461 29.5273 97.5498 29.4541 98.8096 29.3662C100.099 29.2783 101.227 29.2783 102.193 29.3662C102.34 25.1768 102.384 22.042 102.325 19.9619C102.267 17.8525 102.237 16.6074 102.237 16.2266C102.237 16.0508 102.428 15.8457 102.809 15.6113C103.189 15.377 103.6 15.1719 104.039 14.9961C104.508 14.791 104.933 14.6592 105.313 14.6006C105.694 14.5127 105.899 14.5273 105.929 14.6445C105.958 14.8496 105.958 15.3623 105.929 16.1826C105.929 17.0029 105.914 18.1602 105.885 19.6543C105.885 21.1191 105.885 22.9502 105.885 25.1475C105.914 27.3447 105.973 29.9082 106.061 32.8379C106.002 34.1855 105.973 35.5918 105.973 37.0566C105.973 38.3164 106.002 39.7227 106.061 41.2754C106.119 42.8281 106.251 44.3955 106.456 45.9775C106.075 46.2998 105.665 46.5488 105.226 46.7246C104.786 46.9004 104.361 47.0469 103.951 47.1641C103.482 47.2812 103.014 47.3691 102.545 47.4277C102.281 47.457 102.062 47.3984 101.886 47.252C101.739 47.1348 101.637 46.9736 101.578 46.7686C101.52 46.5928 101.476 46.4023 101.446 46.1973C101.446 45.9922 101.446 45.8018 101.446 45.626C101.446 45.2451 101.446 44.8789 101.446 44.5273C101.476 44.2051 101.505 43.9414 101.534 43.7363C101.593 42.4766 101.666 40.9531 101.754 39.166C101.842 37.3789 101.93 35.3867 102.018 33.1895C101.812 33.1602 101.622 33.1455 101.446 33.1455C101.271 33.1162 101.065 33.0869 100.831 33.0576C99.5127 32.9697 98.0771 32.9697 96.5244 33.0576C95.001 33.1455 93.5068 33.292 92.042 33.4971C92.0127 34.9326 92.0127 36.2949 92.042 37.584C92.0713 38.8438 92.1006 40.001 92.1299 41.0557C92.1885 42.0811 92.2471 42.9746 92.3057 43.7363C92.3643 44.4688 92.4229 45.0107 92.4814 45.3623C92.5107 45.6553 92.4668 45.8604 92.3496 45.9775C92.2324 46.124 92.0566 46.3145 91.8223 46.5488C91.6172 46.7832 91.3389 47.0029 90.9873 47.208C90.665 47.4424 90.2695 47.6328 89.8008 47.7793C89.332 47.9551 88.79 48.043 88.1748 48.043C87.8818 48.043 87.7354 47.9111 87.7354 47.6475C87.7354 47.2666 87.7354 46.666 87.7354 45.8457C87.7646 45.0254 87.7793 44.0293 87.7793 42.8574C87.8086 41.6855 87.8232 40.3818 87.8232 38.9463C87.8525 37.4814 87.8818 35.9287 87.9111 34.2881C87.7646 34.3174 87.6328 34.3467 87.5156 34.376C87.4277 34.4053 87.3252 34.4346 87.208 34.4639ZM109.017 28.4434C109.017 28.2676 109.252 28.0771 109.72 27.8721C110.189 27.667 110.702 27.5059 111.258 27.3887C111.844 27.2422 112.372 27.1689 112.84 27.1689C113.338 27.1396 113.587 27.2422 113.587 27.4766C113.587 27.916 113.558 28.5459 113.5 29.3662C113.441 30.1572 113.368 31.0068 113.28 31.915C113.192 32.7939 113.104 33.6875 113.016 34.5957C112.928 35.4746 112.87 36.2217 112.84 36.8369C112.782 37.4814 112.723 38.1846 112.665 38.9463C112.606 39.5908 112.562 40.3086 112.533 41.0996C112.504 41.8906 112.504 42.6963 112.533 43.5166C112.533 43.6631 112.386 43.8096 112.093 43.9561C111.8 44.1025 111.478 44.2051 111.127 44.2637C110.775 44.3516 110.438 44.3955 110.116 44.3955C109.794 44.3955 109.618 44.3369 109.588 44.2197C109.53 44.1025 109.471 43.8975 109.413 43.6045C109.354 43.3115 109.296 42.9014 109.237 42.374C109.178 41.8174 109.134 41.1143 109.105 40.2646C109.076 39.3857 109.09 38.3311 109.149 37.1006C109.266 34.6689 109.281 32.7939 109.193 31.4756C109.105 30.1279 109.046 29.1172 109.017 28.4434ZM112.093 19.6982C112.679 19.6982 113.236 19.874 113.763 20.2256C114.291 20.5771 114.554 21.0459 114.554 21.6318C114.554 22.0713 114.437 22.4961 114.203 22.9062C113.998 23.3164 113.734 23.6826 113.412 24.0049C113.089 24.3271 112.723 24.5908 112.313 24.7959C111.903 24.9717 111.522 25.0596 111.171 25.0596C110.702 25.0596 110.321 24.9863 110.028 24.8398C109.735 24.6641 109.501 24.4736 109.325 24.2686C109.178 24.0342 109.076 23.7852 109.017 23.5215C108.959 23.2578 108.929 23.0088 108.929 22.7744C108.929 22.4814 108.973 22.1592 109.061 21.8076C109.149 21.4268 109.31 21.0898 109.545 20.7969C109.779 20.4746 110.101 20.2109 110.511 20.0059C110.921 19.8008 111.449 19.6982 112.093 19.6982ZM110.995 23.7852C111.171 23.7852 111.361 23.7266 111.566 23.6094C111.8 23.4629 112.005 23.3018 112.181 23.126C112.386 22.9502 112.547 22.7598 112.665 22.5547C112.811 22.3496 112.884 22.1738 112.884 22.0273C112.884 21.793 112.767 21.6758 112.533 21.6758C112.386 21.6758 112.196 21.7344 111.962 21.8516C111.756 21.9688 111.551 22.1152 111.346 22.291C111.141 22.4375 110.965 22.6133 110.819 22.8184C110.702 22.9941 110.643 23.1699 110.643 23.3457C110.643 23.6387 110.76 23.7852 110.995 23.7852ZM118.258 14.9082C118.844 15.1719 119.357 15.5527 119.796 16.0508C120.265 16.5195 120.485 17.1201 120.455 17.8525C120.426 18.2041 120.25 18.7607 119.928 19.5225C119.606 20.2549 119.239 21.002 118.829 21.7637C118.448 22.5254 118.082 23.2139 117.731 23.8291C117.408 24.4443 117.218 24.8105 117.159 24.9277C117.042 25.1328 116.793 25.2939 116.412 25.4111C116.031 25.5283 115.636 25.4551 115.226 25.1914C115.079 25.1035 114.947 25.001 114.83 24.8838C114.713 24.7666 114.611 24.6494 114.523 24.5322C114.435 24.3857 114.362 24.1953 114.303 23.9609C114.742 22.3789 115.094 21.1484 115.358 20.2695C115.621 19.3613 115.826 18.6582 115.973 18.1602C116.119 17.6035 116.222 17.2227 116.28 17.0176C116.398 16.6367 116.471 16.2705 116.5 15.9189C116.529 15.5381 116.486 15.1426 116.368 14.7324C116.72 14.5859 117.13 14.5713 117.599 14.6885C117.833 14.7471 118.053 14.8203 118.258 14.9082ZM137.619 26.5977C138.439 26.5977 139.201 26.832 139.904 27.3008C140.607 27.7695 141.207 28.3848 141.705 29.1465C142.204 29.9082 142.599 30.7871 142.892 31.7832C143.185 32.75 143.331 33.7607 143.331 34.8154C143.331 35.8701 143.214 36.9834 142.98 38.1553C142.746 39.3271 142.379 40.4111 141.881 41.4072C141.383 42.4033 140.739 43.2383 139.948 43.9121C139.157 44.5566 138.19 44.8789 137.047 44.8789C136.139 44.8789 135.275 44.5566 134.454 43.9121C133.663 43.2383 133.048 42.4033 132.609 41.4072C132.55 42.4326 132.418 43.4727 132.213 44.5273C132.008 45.6113 131.906 46.9004 131.906 48.3945C131.906 48.834 131.92 49.332 131.95 49.8887C131.979 50.4453 132.023 51.002 132.081 51.5586C132.14 52.1152 132.228 52.6279 132.345 53.0967C132.462 53.5654 132.594 53.9316 132.741 54.1953C132.243 54.4883 131.788 54.708 131.378 54.8545C130.997 55.001 130.661 55.1035 130.368 55.1621C130.045 55.25 129.738 55.2939 129.445 55.2939C129.064 55.2939 128.815 55.1328 128.698 54.8105C128.58 54.4883 128.522 53.917 128.522 53.0967C128.522 52.5693 128.537 51.8076 128.566 50.8115C128.624 49.8447 128.683 48.7314 128.742 47.4717C128.829 46.2119 128.903 44.8936 128.961 43.5166C129.049 42.1104 129.122 40.7334 129.181 39.3857C129.269 38.0381 129.328 36.793 129.357 35.6504C129.415 34.4785 129.445 33.4971 129.445 32.7061C129.445 31.7393 129.43 30.9922 129.401 30.4648C129.371 29.9082 129.328 29.498 129.269 29.2344C129.24 28.9414 129.196 28.7363 129.137 28.6191C129.079 28.502 129.005 28.3701 128.917 28.2236C129.181 28.0186 129.489 27.8428 129.84 27.6963C130.221 27.5205 130.587 27.4033 130.939 27.3447C131.32 27.2568 131.657 27.2275 131.95 27.2568C132.272 27.2861 132.521 27.3594 132.697 27.4766C132.843 27.623 132.946 27.8428 133.004 28.1357C133.092 28.4287 133.165 28.8682 133.224 29.4541C133.781 28.6924 134.411 28.0332 135.114 27.4766C135.846 26.8906 136.681 26.5977 137.619 26.5977ZM135.905 42.2861C136.432 42.2861 136.93 42.0371 137.399 41.5391C137.897 41.041 138.322 40.4111 138.673 39.6494C139.054 38.8584 139.347 37.9941 139.552 37.0566C139.787 36.0898 139.904 35.1377 139.904 34.2002C139.904 33.1748 139.801 32.3398 139.596 31.6953C139.42 31.0215 139.186 30.4941 138.893 30.1133C138.629 29.7031 138.336 29.4248 138.014 29.2783C137.721 29.1025 137.457 29.0146 137.223 29.0146C136.666 29.0146 136.139 29.249 135.641 29.7178C135.143 30.1572 134.704 30.7432 134.323 31.4756C133.942 32.1787 133.634 32.9697 133.4 33.8486C133.195 34.7275 133.092 35.6064 133.092 36.4854C133.092 37.3057 133.165 38.0674 133.312 38.7705C133.488 39.4736 133.707 40.0889 133.971 40.6162C134.235 41.1436 134.528 41.5537 134.85 41.8467C135.202 42.1396 135.553 42.2861 135.905 42.2861ZM156.659 36.4414C156.601 37.584 156.396 38.6387 156.044 39.6055C155.722 40.5723 155.268 41.4219 154.682 42.1543C154.096 42.8574 153.393 43.4141 152.572 43.8242C151.781 44.2344 150.902 44.4541 149.936 44.4834C149.086 44.5127 148.28 44.3076 147.519 43.8682C146.786 43.4287 146.142 42.8135 145.585 42.0225C145.028 41.2314 144.604 40.2939 144.311 39.21C144.047 38.0967 143.974 36.8955 144.091 35.6064C144.179 34.1123 144.457 32.8379 144.926 31.7832C145.395 30.6992 145.893 29.8057 146.42 29.1025C146.947 28.3994 147.431 27.8867 147.87 27.5645C148.339 27.2129 148.632 27.0078 148.749 26.9492C148.954 26.8613 149.145 26.8467 149.32 26.9053C149.496 26.9346 149.687 26.9785 149.892 27.0371C149.95 27.0664 150.009 27.1396 150.067 27.2568C150.185 27.4619 150.258 27.8428 150.287 28.3994C150.434 28.0771 150.624 27.8135 150.858 27.6084C151.093 27.4033 151.327 27.2568 151.562 27.1689C151.854 27.0518 152.147 26.9785 152.44 26.9492C152.646 26.9199 152.997 27.0811 153.495 27.4326C154.022 27.7842 154.521 28.3408 154.989 29.1025C155.487 29.8643 155.912 30.8604 156.264 32.0908C156.615 33.292 156.747 34.7422 156.659 36.4414ZM153.671 35.9141C153.7 35.2109 153.671 34.5078 153.583 33.8047C153.524 33.0723 153.407 32.4131 153.231 31.8271C153.085 31.2119 152.895 30.7285 152.66 30.377C152.426 29.9961 152.191 29.8057 151.957 29.8057C151.693 29.8643 151.4 29.9961 151.078 30.2012C150.814 30.377 150.521 30.6553 150.199 31.0361C149.877 31.417 149.569 31.959 149.276 32.6621C149.247 32.5742 149.218 32.4131 149.188 32.1787C149.159 31.9736 149.13 31.71 149.101 31.3877C149.101 31.0361 149.13 30.5674 149.188 29.9814C148.778 30.4795 148.456 31.0654 148.222 31.7393C148.017 32.4131 147.855 33.0576 147.738 33.6729C147.621 34.4053 147.533 35.1377 147.475 35.8701C147.445 36.6611 147.475 37.4375 147.562 38.1992C147.68 38.9609 147.855 39.6348 148.09 40.2207C148.354 40.8066 148.661 41.2754 149.013 41.627C149.364 41.9785 149.789 42.1396 150.287 42.1104C150.785 42.0811 151.225 41.876 151.605 41.4951C151.986 41.1143 152.323 40.6309 152.616 40.0449C152.909 39.459 153.144 38.7998 153.319 38.0674C153.495 37.335 153.612 36.6172 153.671 35.9141ZM166.252 26.5977C167.072 26.5977 167.834 26.832 168.537 27.3008C169.24 27.7695 169.84 28.3848 170.338 29.1465C170.837 29.9082 171.232 30.7871 171.525 31.7832C171.818 32.75 171.964 33.7607 171.964 34.8154C171.964 35.8701 171.847 36.9834 171.613 38.1553C171.379 39.3271 171.012 40.4111 170.514 41.4072C170.016 42.4033 169.372 43.2383 168.581 43.9121C167.79 44.5566 166.823 44.8789 165.68 44.8789C164.772 44.8789 163.908 44.5566 163.088 43.9121C162.296 43.2383 161.681 42.4033 161.242 41.4072C161.183 42.4326 161.051 43.4727 160.846 44.5273C160.641 45.6113 160.539 46.9004 160.539 48.3945C160.539 48.834 160.553 49.332 160.583 49.8887C160.612 50.4453 160.656 51.002 160.714 51.5586C160.773 52.1152 160.861 52.6279 160.978 53.0967C161.095 53.5654 161.227 53.9316 161.374 54.1953C160.876 54.4883 160.421 54.708 160.011 54.8545C159.63 55.001 159.294 55.1035 159.001 55.1621C158.678 55.25 158.371 55.2939 158.078 55.2939C157.697 55.2939 157.448 55.1328 157.331 54.8105C157.213 54.4883 157.155 53.917 157.155 53.0967C157.155 52.5693 157.17 51.8076 157.199 50.8115C157.257 49.8447 157.316 48.7314 157.375 47.4717C157.463 46.2119 157.536 44.8936 157.594 43.5166C157.682 42.1104 157.755 40.7334 157.814 39.3857C157.902 38.0381 157.961 36.793 157.99 35.6504C158.048 34.4785 158.078 33.4971 158.078 32.7061C158.078 31.7393 158.063 30.9922 158.034 30.4648C158.004 29.9082 157.961 29.498 157.902 29.2344C157.873 28.9414 157.829 28.7363 157.77 28.6191C157.712 28.502 157.638 28.3701 157.55 28.2236C157.814 28.0186 158.122 27.8428 158.473 27.6963C158.854 27.5205 159.22 27.4033 159.572 27.3447C159.953 27.2568 160.29 27.2275 160.583 27.2568C160.905 27.2861 161.154 27.3594 161.33 27.4766C161.476 27.623 161.579 27.8428 161.637 28.1357C161.725 28.4287 161.798 28.8682 161.857 29.4541C162.414 28.6924 163.044 28.0332 163.747 27.4766C164.479 26.8906 165.314 26.5977 166.252 26.5977ZM164.538 42.2861C165.065 42.2861 165.563 42.0371 166.032 41.5391C166.53 41.041 166.955 40.4111 167.306 39.6494C167.687 38.8584 167.98 37.9941 168.185 37.0566C168.42 36.0898 168.537 35.1377 168.537 34.2002C168.537 33.1748 168.434 32.3398 168.229 31.6953C168.053 31.0215 167.819 30.4941 167.526 30.1133C167.262 29.7031 166.969 29.4248 166.647 29.2783C166.354 29.1025 166.09 29.0146 165.856 29.0146C165.299 29.0146 164.772 29.249 164.274 29.7178C163.776 30.1572 163.337 30.7432 162.956 31.4756C162.575 32.1787 162.267 32.9697 162.033 33.8486C161.828 34.7275 161.725 35.6064 161.725 36.4854C161.725 37.3057 161.798 38.0674 161.945 38.7705C162.121 39.4736 162.34 40.0889 162.604 40.6162C162.868 41.1436 163.161 41.5537 163.483 41.8467C163.835 42.1396 164.186 42.2861 164.538 42.2861ZM185.292 36.4414C185.234 37.584 185.029 38.6387 184.677 39.6055C184.355 40.5723 183.901 41.4219 183.315 42.1543C182.729 42.8574 182.026 43.4141 181.205 43.8242C180.414 44.2344 179.535 44.4541 178.569 44.4834C177.719 44.5127 176.913 44.3076 176.152 43.8682C175.419 43.4287 174.775 42.8135 174.218 42.0225C173.661 41.2314 173.237 40.2939 172.944 39.21C172.68 38.0967 172.607 36.8955 172.724 35.6064C172.812 34.1123 173.09 32.8379 173.559 31.7832C174.028 30.6992 174.526 29.8057 175.053 29.1025C175.58 28.3994 176.064 27.8867 176.503 27.5645C176.972 27.2129 177.265 27.0078 177.382 26.9492C177.587 26.8613 177.778 26.8467 177.953 26.9053C178.129 26.9346 178.32 26.9785 178.525 27.0371C178.583 27.0664 178.642 27.1396 178.7 27.2568C178.818 27.4619 178.891 27.8428 178.92 28.3994C179.067 28.0771 179.257 27.8135 179.491 27.6084C179.726 27.4033 179.96 27.2568 180.195 27.1689C180.488 27.0518 180.78 26.9785 181.073 26.9492C181.279 26.9199 181.63 27.0811 182.128 27.4326C182.655 27.7842 183.154 28.3408 183.622 29.1025C184.12 29.8643 184.545 30.8604 184.897 32.0908C185.248 33.292 185.38 34.7422 185.292 36.4414ZM182.304 35.9141C182.333 35.2109 182.304 34.5078 182.216 33.8047C182.157 33.0723 182.04 32.4131 181.864 31.8271C181.718 31.2119 181.528 30.7285 181.293 30.377C181.059 29.9961 180.824 29.8057 180.59 29.8057C180.326 29.8643 180.033 29.9961 179.711 30.2012C179.447 30.377 179.154 30.6553 178.832 31.0361C178.51 31.417 178.202 31.959 177.909 32.6621C177.88 32.5742 177.851 32.4131 177.821 32.1787C177.792 31.9736 177.763 31.71 177.734 31.3877C177.734 31.0361 177.763 30.5674 177.821 29.9814C177.411 30.4795 177.089 31.0654 176.855 31.7393C176.65 32.4131 176.488 33.0576 176.371 33.6729C176.254 34.4053 176.166 35.1377 176.108 35.8701C176.078 36.6611 176.108 37.4375 176.196 38.1992C176.313 38.9609 176.488 39.6348 176.723 40.2207C176.987 40.8066 177.294 41.2754 177.646 41.627C177.997 41.9785 178.422 42.1396 178.92 42.1104C179.418 42.0811 179.858 41.876 180.238 41.4951C180.619 41.1143 180.956 40.6309 181.249 40.0449C181.542 39.459 181.777 38.7998 181.952 38.0674C182.128 37.335 182.245 36.6172 182.304 35.9141Z" fill="white"/>
</svg>
