<svg width="191" height="191" viewBox="0 0 191 191" fill="none" xmlns="http://www.w3.org/2000/svg">
<path d="M95.5029 0.5C147.973 0.5 190.506 42.8764 190.506 95.1465C190.506 147.417 147.973 189.793 95.5029 189.793C43.0325 189.793 0.5 147.417 0.5 95.1465C0.50005 42.8764 43.0325 0.5 95.5029 0.5Z" fill="#1BA3A1" stroke="#1BA3A1"/>
<path d="M77.4016 56.776C75.8865 55.929 74.1461 55.5135 72.4081 55.5282C70.67 55.543 68.9149 55.9034 67.4145 56.776C65.9141 57.6487 64.5345 59.0202 63.6693 60.5195C62.8041 62.0187 62.4216 63.7821 62.4209 65.5107V124.782C62.4204 126.511 62.8046 128.273 63.6693 129.773C64.534 131.273 65.9139 132.643 67.4145 133.517C68.9151 134.39 70.6694 134.749 72.4081 134.764C74.1467 134.779 75.886 134.364 77.4016 133.517L130.458 103.569C131.999 102.708 133.311 101.967 134.204 100.45C135.096 98.9323 135.452 96.5921 135.452 94.8344C135.452 93.0766 135.096 91.3603 134.204 89.8431C133.311 88.3259 131.999 87.5851 130.458 86.7236L77.4016 56.776Z" fill="white"/>
</svg>
