<svg width="276" height="552" viewBox="0 0 276 552" fill="none" xmlns="http://www.w3.org/2000/svg">
<g filter="url(#filter0_d_1_1061)">
<path d="M270.44 127.32V173.966" stroke="black" stroke-width="2.74316" stroke-linecap="round"/>
<path d="M6 99.4089V172.054" stroke="black" stroke-width="3.84042" stroke-linecap="round"/>
<path d="M29.5908 1.37109H246.085C258.356 1.37109 268.305 11.3194 268.305 23.5908V520.103C268.305 532.374 258.356 542.322 246.085 542.322H29.5908C17.3194 542.322 7.37109 532.374 7.37109 520.103V23.5908C7.37131 11.3196 17.3196 1.37128 29.5908 1.37109Z" fill="#070707" stroke="black" stroke-width="2.74316"/>
<rect x="16" y="7" width="246" height="527" rx="19" fill="#080E0E"/>
<path d="M230.483 162.774V169.07H229.691V163.591H229.656L228.126 164.609V163.818L229.691 162.774H230.483ZM232.072 169.07L232.063 168.496L234.211 166.235C234.955 165.444 235.311 165.018 235.316 164.435C235.311 163.787 234.772 163.37 234.063 163.365C233.311 163.37 232.842 163.844 232.837 164.548H232.098C232.089 163.435 232.95 162.687 234.09 162.687C235.233 162.687 236.042 163.457 236.046 164.435C236.042 165.139 235.716 165.687 234.603 166.835L233.159 168.322V168.374H236.159V169.07H232.072ZM237.749 168.235C237.444 168.231 237.183 167.979 237.192 167.67C237.183 167.366 237.444 167.113 237.749 167.113C238.057 167.113 238.309 167.366 238.305 167.67C238.309 167.979 238.057 168.231 237.749 168.235ZM237.192 164.174C237.183 163.87 237.444 163.617 237.749 163.617C238.057 163.617 238.309 163.87 238.305 164.174C238.309 164.483 238.057 164.735 237.749 164.739C237.444 164.735 237.183 164.483 237.192 164.174ZM241.555 169.157C240.303 169.157 239.403 168.487 239.364 167.487H240.155C240.199 168.087 240.795 168.461 241.547 168.461C242.377 168.461 242.977 168.013 242.982 167.357C242.977 166.67 242.429 166.187 241.451 166.183H240.938V165.496H241.451C242.216 165.496 242.751 165.065 242.747 164.418C242.751 163.787 242.29 163.37 241.573 163.365C240.899 163.37 240.286 163.739 240.251 164.357H239.494C239.534 163.357 240.464 162.687 241.582 162.687C242.782 162.687 243.512 163.474 243.503 164.374C243.512 165.092 243.095 165.613 242.434 165.8V165.844C243.256 165.97 243.751 166.557 243.747 167.357C243.751 168.392 242.812 169.157 241.555 169.157ZM244.788 169.07L244.78 168.496L246.928 166.235C247.671 165.444 248.028 165.018 248.032 164.435C248.028 163.787 247.489 163.37 246.78 163.365C246.028 163.37 245.558 163.844 245.554 164.548H244.814C244.806 163.435 245.667 162.687 246.806 162.687C247.949 162.687 248.758 163.457 248.763 164.435C248.758 165.139 248.432 165.687 247.319 166.835L245.875 168.322V168.374H248.876V169.07H244.788Z" fill="#C6C6C6"/>
<rect x="107.79" y="124.82" width="141.795" height="31.51" rx="6.85" fill="#172326"/>
<rect x="145.808" y="125.163" width="103.435" height="30.825" rx="6.5075" stroke="#133B3A" stroke-width="0.685"/>
<path d="M145.465 131.67C145.465 127.887 148.532 124.82 152.315 124.82H242.735C246.518 124.82 249.585 127.887 249.585 131.67V149.48C249.585 153.263 246.518 156.33 242.735 156.33H152.315C148.532 156.33 145.465 153.263 145.465 149.48V131.67Z" fill="#133B3A"/>
<path d="M217.494 143.812C215.976 143.812 215.072 142.638 215.076 140.577C215.072 138.525 215.985 137.342 217.494 137.342C219.003 137.342 219.911 138.525 219.911 140.577C219.911 142.642 219.007 143.812 217.494 143.812ZM216.215 140.577C216.215 142.09 216.702 142.86 217.494 142.864C218.281 142.86 218.772 142.09 218.772 140.577C218.768 139.077 218.281 138.286 217.494 138.281C216.707 138.286 216.22 139.077 216.215 140.577ZM223.181 143.812C221.664 143.812 220.759 142.638 220.764 140.577C220.759 138.525 221.672 137.342 223.181 137.342C224.69 137.342 225.599 138.525 225.599 140.577C225.599 142.642 224.694 143.812 223.181 143.812ZM221.903 140.577C221.903 142.09 222.39 142.86 223.181 142.864C223.968 142.86 224.46 142.09 224.46 140.577C224.455 139.077 223.968 138.286 223.181 138.281C222.394 138.286 221.907 139.077 221.903 140.577ZM227.242 142.942C226.868 142.942 226.56 142.638 226.564 142.264C226.56 141.899 226.868 141.599 227.242 141.595C227.603 141.599 227.912 141.899 227.912 142.264C227.912 142.638 227.603 142.942 227.242 142.942ZM226.564 138.89C226.56 138.525 226.868 138.225 227.242 138.22C227.603 138.225 227.912 138.525 227.912 138.89C227.912 139.264 227.603 139.568 227.242 139.568C226.868 139.568 226.56 139.264 226.564 138.89ZM231.53 137.429V143.725H230.39V138.533H230.356L228.886 139.473V138.438L230.443 137.429H231.53ZM235.382 143.812C233.865 143.812 232.96 142.638 232.965 140.577C232.96 138.525 233.873 137.342 235.382 137.342C236.891 137.342 237.8 138.525 237.8 140.577C237.8 142.642 236.895 143.812 235.382 143.812ZM234.104 140.577C234.104 142.09 234.591 142.86 235.382 142.864C236.169 142.86 236.66 142.09 236.66 140.577C236.656 139.077 236.169 138.286 235.382 138.281C234.595 138.286 234.108 139.077 234.104 140.577Z" fill="#F4F4F4"/>
<path d="M96.6336 136.445C97.1997 136.445 97.6586 136.002 97.6586 135.456C97.6586 134.911 97.1997 134.468 96.6336 134.468C96.0676 134.468 95.6086 134.911 95.6086 135.456C95.6086 136.002 96.0676 136.445 96.6336 136.445Z" fill="white"/>
<path d="M96.6336 131.174C97.1997 131.174 97.6586 130.732 97.6586 130.186C97.6586 129.64 97.1997 129.198 96.6336 129.198C96.0676 129.198 95.6086 129.64 95.6086 130.186C95.6086 130.732 96.0676 131.174 96.6336 131.174Z" fill="white"/>
<path d="M96.6336 141.714C97.1997 141.714 97.6586 141.272 97.6586 140.726C97.6586 140.18 97.1997 139.738 96.6336 139.738C96.0676 139.738 95.6086 140.18 95.6086 140.726C95.6086 141.272 96.0676 141.714 96.6336 141.714Z" fill="white"/>
<path d="M200.777 108.587V110.153H201.907V110.848H200.777V112.492H199.95V108.587H200.777ZM195.011 112.17V108.935H195.837V111.474C196.885 111.47 197.985 111.383 199.185 111.144L199.29 111.831C197.976 112.096 196.794 112.166 195.646 112.17H195.011ZM195.741 113.501V112.848H200.777V114.831H196.576V115.614H201.046V116.283H195.759V114.196H199.95V113.501H195.741ZM208.899 108.596V116.379H208.073V108.596H208.899ZM202.307 112.84C203.877 112.84 205.851 112.844 207.629 112.631L207.673 113.24C206.921 113.357 206.16 113.427 205.412 113.466V116.127H204.586V113.501C203.816 113.527 203.081 113.527 202.412 113.527L202.307 112.84ZM202.785 111.97V109.144H204.803V109.813H203.603V111.305C204.007 111.292 204.416 111.257 204.89 111.153L204.951 111.814C204.264 111.961 203.733 111.974 203.142 111.97H202.785ZM205.212 111.97V109.144H207.29V109.813H206.02V111.309H207.342V111.97H205.212ZM216.352 110.866V111.527H210.986V108.865H211.804V110.866H216.352ZM210.038 113.17V112.509H217.169V113.17H210.038ZM210.925 116.196V113.909H211.751V115.518H216.404V116.196H210.925ZM223.465 109.057C225.131 109.061 226.344 109.883 226.344 111.127C226.344 112.292 225.326 113.07 223.874 113.188V114.718H227.048V115.405H219.917V114.718H223.057V113.188C221.613 113.07 220.591 112.292 220.595 111.127C220.591 109.883 221.809 109.061 223.465 109.057ZM221.396 111.127C221.396 112 222.265 112.544 223.465 112.553C224.674 112.544 225.539 112 225.544 111.127C225.539 110.283 224.674 109.726 223.465 109.735C222.265 109.726 221.396 110.283 221.396 111.127ZM233.736 108.596V110.5H234.875V111.187H233.736V113.283H232.909V108.596H233.736ZM227.926 109.735V109.065H231.475V111.248H228.761V112.196C230.114 112.196 231.07 112.144 232.205 111.953L232.292 112.622C231.088 112.835 230.057 112.883 228.561 112.874H227.935V110.613H230.666V109.735H227.926ZM228.596 114.935C228.596 114.031 229.592 113.492 231.214 113.492C232.814 113.492 233.805 114.031 233.805 114.935C233.805 115.84 232.814 116.362 231.214 116.362C229.592 116.362 228.596 115.84 228.596 114.935ZM229.405 114.935C229.4 115.444 230.07 115.736 231.214 115.727C232.34 115.736 233.001 115.444 232.996 114.935C233.001 114.431 232.34 114.14 231.214 114.144C230.07 114.14 229.4 114.431 229.405 114.935ZM242.432 113.014V113.701H239.249V116.379H238.44V113.701H235.301V113.014H242.432ZM236.075 110.613C236.079 109.552 237.201 108.883 238.849 108.883C240.497 108.883 241.627 109.552 241.623 110.613C241.627 111.661 240.497 112.327 238.849 112.327C237.201 112.327 236.079 111.661 236.075 110.613ZM236.927 110.613C236.923 111.261 237.692 111.666 238.849 111.666C240.01 111.666 240.775 111.261 240.78 110.613C240.775 109.957 240.01 109.548 238.849 109.544C237.692 109.548 236.923 109.957 236.927 110.613ZM246.963 109.205V109.866H244.171V110.848H246.815V111.509H244.171V112.553C245.619 112.54 246.454 112.505 247.45 112.335L247.537 112.979C246.471 113.183 245.554 113.218 243.954 113.222H243.345V109.205H246.963ZM244.188 116.214V113.831H245.015V115.544H249.458V116.214H244.188ZM248.302 114.353V108.579H249.128V110.97H250.259V111.657H249.128V114.353H248.302Z" fill="#F4F4F4"/>
<path d="M119.183 128.885V142.686C119.183 143.738 120.414 144.378 121.362 143.805L132.876 136.905C133.753 136.385 133.753 135.186 132.876 134.653L121.362 127.766C120.414 127.193 119.183 127.833 119.183 128.885Z" fill="white"/>
<path d="M230.482 349.094V355.39H229.691V349.911H229.656L228.126 350.929V350.137L229.691 349.094H230.482ZM232.072 355.39L232.063 354.816L234.211 352.555C234.955 351.764 235.311 351.337 235.315 350.755C235.311 350.107 234.772 349.689 234.063 349.685C233.311 349.689 232.841 350.163 232.837 350.868H232.098C232.089 349.755 232.95 349.007 234.089 349.007C235.233 349.007 236.042 349.776 236.046 350.755C236.042 351.459 235.715 352.007 234.602 353.155L233.159 354.642V354.694H236.159V355.39H232.072ZM237.748 354.555C237.444 354.551 237.183 354.299 237.192 353.99C237.183 353.685 237.444 353.433 237.748 353.433C238.057 353.433 238.309 353.685 238.305 353.99C238.309 354.299 238.057 354.551 237.748 354.555ZM237.192 350.494C237.183 350.19 237.444 349.937 237.748 349.937C238.057 349.937 238.309 350.19 238.305 350.494C238.309 350.803 238.057 351.055 237.748 351.059C237.444 351.055 237.183 350.803 237.192 350.494ZM241.555 355.477C240.303 355.477 239.403 354.807 239.364 353.807H240.155C240.199 354.407 240.794 354.781 241.547 354.781C242.377 354.781 242.977 354.333 242.981 353.677C242.977 352.99 242.429 352.507 241.451 352.503H240.938V351.816H241.451C242.216 351.816 242.751 351.385 242.747 350.737C242.751 350.107 242.29 349.689 241.573 349.685C240.899 349.689 240.286 350.059 240.251 350.677H239.494C239.533 349.676 240.464 349.007 241.581 349.007C242.781 349.007 243.512 349.794 243.503 350.694C243.512 351.411 243.094 351.933 242.434 352.12V352.164C243.255 352.29 243.751 352.877 243.747 353.677C243.751 354.712 242.812 355.477 241.555 355.477ZM244.788 355.39L244.779 354.816L246.927 352.555C247.671 351.764 248.028 351.337 248.032 350.755C248.028 350.107 247.488 349.689 246.78 349.685C246.027 349.689 245.558 350.163 245.553 350.868H244.814C244.806 349.755 245.666 349.007 246.806 349.007C247.949 349.007 248.758 349.776 248.762 350.755C248.758 351.459 248.432 352.007 247.319 353.155L245.875 354.642V354.694H248.875V355.39H244.788Z" fill="#C6C6C6"/>
<rect x="154.37" y="311.14" width="95.215" height="31.51" rx="6.85" fill="black"/>
<rect x="216.02" y="314.565" width="24.66" height="24.66" rx="12.33" fill="#00B76A" fill-opacity="0.15"/>
<path d="M226.98 326.895C227.318 327.592 227.652 327.929 228.35 328.265C228.402 328.289 228.978 328.269 229.035 328.265C229.092 328.261 228.988 328.297 229.035 328.265L229.72 327.58C229.765 327.549 230.351 327.585 230.405 327.58C230.46 327.575 230.355 327.558 230.405 327.58L232.46 328.265C232.526 328.292 232.424 328.203 232.46 328.265C232.496 328.326 232.469 328.194 232.46 328.265C232.399 328.74 232.134 329.319 231.775 329.635C231.416 329.951 230.884 330.32 230.405 330.32C228.925 330.32 227.341 329.996 226.295 328.95C225.249 327.904 224.925 326.32 224.925 324.84C224.925 324.361 225.294 323.829 225.61 323.47C225.926 323.11 226.505 322.846 226.98 322.785C227.051 322.776 226.919 322.749 226.98 322.785C227.042 322.82 226.953 322.719 226.98 322.785L227.665 324.84C227.686 324.889 227.669 324.786 227.665 324.84C227.661 324.894 227.694 325.48 227.665 325.525L226.98 326.21C226.95 326.257 226.984 326.154 226.98 326.21C226.976 326.266 226.956 326.844 226.98 326.895V326.895Z" fill="#00B76A"/>
<path d="M174.82 327.532V328.297H171.69V330.819H170.733V328.297H167.637V327.532H174.82ZM168.507 326.714V323.271H169.463V324.236H172.977V323.271H173.951V326.714H168.507ZM169.463 325.932H172.977V325.001H169.463V325.932ZM182.16 322.957V330.819H181.238V326.836H180.429V330.436H179.516V323.097H180.429V326.036H181.238V322.957H182.16ZM175.212 328.532C176.377 327.871 176.847 326.501 176.847 324.966V324.592H175.446V323.818H179.073V324.592H177.786V324.966C177.786 326.362 178.255 327.653 179.421 328.253L178.855 328.993C178.108 328.588 177.616 327.897 177.338 327.045C177.073 328.023 176.581 328.81 175.803 329.271L175.212 328.532ZM190.204 326.566V327.349H187.091V328.01C188.495 328.101 189.33 328.588 189.334 329.401C189.33 330.306 188.304 330.81 186.613 330.81C184.895 330.81 183.873 330.306 183.873 329.401C183.873 328.588 184.708 328.097 186.134 328.006V327.349H183.038V326.566H190.204ZM183.386 325.445C184.83 325.31 185.773 324.723 185.934 324.079H183.691V323.305H189.561V324.079H187.295C187.452 324.727 188.387 325.31 189.865 325.445L189.526 326.21C188.095 326.062 187.039 325.492 186.613 324.697C186.186 325.492 185.143 326.062 183.717 326.21L183.386 325.445ZM184.856 329.401C184.852 329.836 185.469 330.075 186.613 330.071C187.739 330.075 188.36 329.836 188.369 329.401C188.36 328.967 187.739 328.736 186.613 328.732C185.469 328.736 184.852 328.967 184.856 329.401Z" fill="#F4F4F4"/>
<path d="M200.776 294.907V296.473H201.907V297.168H200.776V298.812H199.95V294.907H200.776ZM195.011 298.49V295.255H195.837V297.794C196.885 297.79 197.985 297.703 199.185 297.464L199.289 298.151C197.976 298.416 196.793 298.486 195.646 298.49H195.011ZM195.741 299.821V299.168H200.776V301.151H196.576V301.934H201.046V302.603H195.759V300.516H199.95V299.821H195.741ZM208.899 294.916V302.699H208.073V294.916H208.899ZM202.307 299.16C203.877 299.16 205.851 299.164 207.629 298.951L207.673 299.56C206.92 299.677 206.159 299.747 205.412 299.786V302.447H204.585V299.821C203.816 299.847 203.081 299.847 202.411 299.847L202.307 299.16ZM202.785 298.29V295.464H204.803V296.133H203.603V297.625C204.007 297.612 204.416 297.577 204.89 297.473L204.951 298.134C204.264 298.281 203.733 298.294 203.142 298.29H202.785ZM205.211 298.29V295.464H207.29V296.133H206.02V297.629H207.342V298.29H205.211ZM216.351 297.186V297.847H210.986V295.186H211.803V297.186H216.351ZM210.038 299.49V298.829H217.169V299.49H210.038ZM210.925 302.517V300.229H211.751V301.838H216.404V302.517H210.925ZM223.465 295.377C225.13 295.381 226.343 296.203 226.343 297.447C226.343 298.612 225.326 299.39 223.874 299.508V301.038H227.048V301.725H219.917V301.038H223.056V299.508C221.613 299.39 220.591 298.612 220.595 297.447C220.591 296.203 221.808 295.381 223.465 295.377ZM221.395 297.447C221.395 298.321 222.265 298.864 223.465 298.873C224.674 298.864 225.539 298.321 225.543 297.447C225.539 296.603 224.674 296.046 223.465 296.055C222.265 296.046 221.395 296.603 221.395 297.447ZM233.735 294.916V296.82H234.875V297.507H233.735V299.603H232.909V294.916H233.735ZM227.926 296.055V295.386H231.474V297.568H228.761V298.516C230.113 298.516 231.07 298.464 232.205 298.273L232.292 298.942C231.087 299.155 230.057 299.203 228.561 299.195H227.935V296.934H230.666V296.055H227.926ZM228.596 301.256C228.596 300.351 229.592 299.812 231.213 299.812C232.814 299.812 233.805 300.351 233.805 301.256C233.805 302.16 232.814 302.682 231.213 302.682C229.592 302.682 228.596 302.16 228.596 301.256ZM229.405 301.256C229.4 301.764 230.07 302.056 231.213 302.047C232.34 302.056 233 301.764 232.996 301.256C233 300.751 232.34 300.46 231.213 300.464C230.07 300.46 229.4 300.751 229.405 301.256ZM242.432 299.334V300.021H239.249V302.699H238.44V300.021H235.301V299.334H242.432ZM236.075 296.934C236.079 295.873 237.201 295.203 238.849 295.203C240.497 295.203 241.627 295.873 241.623 296.934C241.627 297.981 240.497 298.647 238.849 298.647C237.201 298.647 236.079 297.981 236.075 296.934ZM236.927 296.934C236.923 297.581 237.692 297.986 238.849 297.986C240.01 297.986 240.775 297.581 240.779 296.934C240.775 296.277 240.01 295.868 238.849 295.864C237.692 295.868 236.923 296.277 236.927 296.934ZM246.962 295.525V296.186H244.171V297.168H246.815V297.829H244.171V298.873C245.619 298.86 246.454 298.825 247.449 298.655L247.536 299.299C246.471 299.503 245.554 299.538 243.953 299.542H243.345V295.525H246.962ZM244.188 302.534V300.151H245.014V301.864H249.458V302.534H244.188ZM248.302 300.673V294.899H249.128V297.29H250.258V297.977H249.128V300.673H248.302Z" fill="#F4F4F4"/>
<path d="M31.8325 238.124V244.42H31.0411V238.941H31.0063L29.4758 239.959V239.167L31.0411 238.124H31.8325ZM33.4218 244.42L33.4131 243.846L35.5611 241.585C36.3046 240.794 36.6612 240.367 36.6655 239.785C36.6612 239.137 36.122 238.72 35.4133 238.715C34.661 238.72 34.1914 239.193 34.1871 239.898H33.4479C33.4392 238.785 34.3001 238.037 35.4394 238.037C36.5829 238.037 37.3917 238.806 37.396 239.785C37.3917 240.489 37.0656 241.037 35.9524 242.185L34.5089 243.672V243.724H37.5091V244.42H33.4218ZM39.0984 243.585C38.794 243.581 38.5332 243.329 38.5419 243.02C38.5332 242.715 38.794 242.463 39.0984 242.463C39.4071 242.463 39.6593 242.715 39.655 243.02C39.6593 243.329 39.4071 243.581 39.0984 243.585ZM38.5419 239.524C38.5332 239.22 38.794 238.967 39.0984 238.967C39.4071 238.967 39.6593 239.22 39.655 239.524C39.6593 239.833 39.4071 240.085 39.0984 240.089C38.794 240.085 38.5332 239.833 38.5419 239.524ZM42.9053 244.507C41.653 244.507 40.753 243.837 40.7138 242.837H41.5052C41.5487 243.437 42.1444 243.811 42.8966 243.811C43.7271 243.811 44.3271 243.363 44.3315 242.707C44.3271 242.02 43.7793 241.537 42.8009 241.533H42.2879V240.846H42.8009C43.5662 240.846 44.101 240.415 44.0967 239.767C44.101 239.137 43.6401 238.72 42.9227 238.715C42.2487 238.72 41.6356 239.089 41.6009 239.707H40.8443C40.8834 238.706 41.8139 238.037 42.9314 238.037C44.1315 238.037 44.862 238.824 44.8533 239.724C44.862 240.441 44.4445 240.963 43.7836 241.15V241.194C44.6054 241.32 45.1011 241.907 45.0968 242.707C45.1011 243.742 44.1619 244.507 42.9053 244.507ZM46.1382 244.42L46.1295 243.846L48.2775 241.585C49.0211 240.794 49.3776 240.367 49.3819 239.785C49.3776 239.137 48.8384 238.72 48.1297 238.715C47.3775 238.72 46.9079 239.193 46.9035 239.898H46.1643C46.1556 238.785 47.0166 238.037 48.1558 238.037C49.2993 238.037 50.1081 238.806 50.1124 239.785C50.1081 240.489 49.782 241.037 48.6689 242.185L47.2253 243.672V243.724H50.2255V244.42H46.1382Z" fill="#C6C6C6"/>
<rect x="29.0149" y="200.17" width="141.795" height="31.51" rx="6.85" fill="#172326"/>
<path d="M55.6334 201.331V214.506C55.6334 214.856 55.4894 215.191 55.2331 215.438C54.9768 215.685 54.6292 215.824 54.2668 215.824H51.1918C50.8293 215.824 50.4817 215.685 50.2254 215.438C49.9691 215.191 49.8251 214.856 49.8251 214.506V201.331C49.8251 200.982 49.9691 200.647 50.2254 200.4C50.4817 200.152 50.8293 200.014 51.1918 200.014H54.2668C54.6292 200.014 54.9768 200.152 55.2331 200.4C55.4894 200.647 55.6334 200.982 55.6334 201.331ZM45.0418 200.014H41.9668C41.6043 200.014 41.2567 200.152 41.0004 200.4C40.7441 200.647 40.6001 200.982 40.6001 201.331V214.506C40.6001 214.856 40.7441 215.191 41.0004 215.438C41.2567 215.685 41.6043 215.824 41.9668 215.824H45.0418C45.4042 215.824 45.7518 215.685 46.0081 215.438C46.2644 215.191 46.4084 214.856 46.4084 214.506V201.331C46.4084 200.982 46.2644 200.647 46.0081 200.4C45.7518 200.152 45.4042 200.014 45.0418 200.014V200.014Z" fill="white"/>
<rect x="67.0324" y="200.512" width="103.435" height="30.825" rx="6.5075" stroke="#00B7B3" stroke-width="0.685"/>
<path d="M66.6899 207.02C66.6899 203.237 69.7568 200.17 73.5399 200.17H118.065C121.848 200.17 124.915 203.237 124.915 207.02V224.83C124.915 228.613 121.848 231.68 118.065 231.68H73.5399C69.7568 231.68 66.6899 228.613 66.6899 224.83V207.02Z" fill="#00B7B3"/>
<path d="M138.719 219.162C137.201 219.162 136.297 217.988 136.301 215.927C136.297 213.875 137.21 212.692 138.719 212.692C140.227 212.692 141.136 213.875 141.136 215.927C141.136 217.992 140.232 219.162 138.719 219.162ZM137.44 215.927C137.44 217.44 137.927 218.21 138.719 218.214C139.506 218.21 139.997 217.44 139.997 215.927C139.993 214.427 139.506 213.635 138.719 213.631C137.932 213.635 137.445 214.427 137.44 215.927ZM144.406 219.162C142.889 219.162 141.984 217.988 141.988 215.927C141.984 213.875 142.897 212.692 144.406 212.692C145.915 212.692 146.824 213.875 146.824 215.927C146.824 217.992 145.919 219.162 144.406 219.162ZM143.128 215.927C143.128 217.44 143.615 218.21 144.406 218.214C145.193 218.21 145.684 217.44 145.684 215.927C145.68 214.427 145.193 213.635 144.406 213.631C143.619 213.635 143.132 214.427 143.128 215.927ZM148.467 218.292C148.093 218.292 147.785 217.988 147.789 217.614C147.785 217.249 148.093 216.949 148.467 216.944C148.828 216.949 149.137 217.249 149.137 217.614C149.137 217.988 148.828 218.292 148.467 218.292ZM147.789 214.24C147.785 213.875 148.093 213.575 148.467 213.57C148.828 213.575 149.137 213.875 149.137 214.24C149.137 214.614 148.828 214.918 148.467 214.918C148.093 214.918 147.785 214.614 147.789 214.24ZM152.754 212.779V219.075H151.615V213.883H151.58L150.111 214.822V213.788L151.667 212.779H152.754ZM156.607 219.162C155.089 219.162 154.185 217.988 154.189 215.927C154.185 213.875 155.098 212.692 156.607 212.692C158.116 212.692 159.025 213.875 159.025 215.927C159.025 217.992 158.12 219.162 156.607 219.162ZM155.329 215.927C155.329 217.44 155.816 218.21 156.607 218.214C157.394 218.21 157.885 217.44 157.885 215.927C157.881 214.427 157.394 213.635 156.607 213.631C155.82 213.635 155.333 214.427 155.329 215.927Z" fill="#F4F4F4"/>
<path d="M181.367 208.907C181.933 208.907 182.392 208.464 182.392 207.919C182.392 207.373 181.933 206.93 181.367 206.93C180.8 206.93 180.342 207.373 180.342 207.919C180.342 208.464 180.8 208.907 181.367 208.907Z" fill="white"/>
<path d="M181.367 203.637C181.933 203.637 182.392 203.194 182.392 202.649C182.392 202.103 181.933 201.661 181.367 201.661C180.8 201.661 180.342 202.103 180.342 202.649C180.342 203.194 180.8 203.637 181.367 203.637Z" fill="white"/>
<path d="M181.367 214.177C181.933 214.177 182.392 213.735 182.392 213.189C182.392 212.643 181.933 212.201 181.367 212.201C180.8 212.201 180.342 212.643 180.342 213.189C180.342 213.735 180.8 214.177 181.367 214.177Z" fill="white"/>
<path d="M35.7632 183.946V189.651H34.9371V183.946H35.7632ZM29.3454 187.894C30.5672 187.442 31.289 186.32 31.2933 185.146V184.372H32.1369V185.146C32.1325 186.285 32.8543 187.329 34.0587 187.746L33.6326 188.407C32.7326 188.072 32.0673 187.411 31.7194 186.568C31.3759 187.472 30.702 188.194 29.7889 188.546L29.3454 187.894ZM30.6672 191.564V189.112H31.502V190.894H35.998V191.564H30.6672ZM38.1808 184.494V187.494C39.2374 187.494 40.3462 187.425 41.5549 187.172L41.6506 187.851C40.3462 188.12 39.1504 188.194 37.9895 188.19H37.3546V184.494H38.1808ZM38.1982 191.564V189.016H39.033V190.894H43.3899V191.564H38.1982ZM42.2941 189.564V183.946H43.1203V186.216H44.2508V186.92H43.1203V189.564H42.2941ZM52.9993 183.937V185.911H54.1211V186.59H52.9993V188.538H52.1644V183.937H52.9993ZM47.1988 187.972V184.511H50.6773V185.181H48.0163V187.303C49.5512 187.294 50.4165 187.251 51.3991 187.051L51.4774 187.72C50.4339 187.933 49.5033 187.972 47.8163 187.972H47.1988ZM47.8598 190.199C47.8598 189.246 48.8685 188.69 50.4773 188.685C52.0688 188.69 53.0601 189.246 53.0601 190.199C53.0601 191.16 52.0688 191.716 50.4773 191.712C48.8685 191.716 47.8598 191.16 47.8598 190.199ZM48.6772 190.199C48.6729 190.738 49.3512 191.055 50.4773 191.051C51.5818 191.055 52.2644 190.738 52.2688 190.199C52.2644 189.659 51.5818 189.351 50.4773 189.355C49.3512 189.351 48.6729 189.659 48.6772 190.199ZM61.8434 186.998V187.677H60.6346V191.72H59.8085V183.937H60.6346V186.998H61.8434ZM54.8603 189.764V184.694H55.6777V189.077C56.7647 189.072 57.8996 188.981 59.1388 188.729L59.2345 189.425C57.8996 189.69 56.6734 189.768 55.5038 189.764H54.8603ZM68.8178 183.937V191.729H67.983V183.937H68.8178ZM62.2086 187.607C63.2217 187.603 64.387 187.594 65.548 187.538C65.7393 186.503 65.7741 185.724 65.7872 185.19H62.8869V184.52H66.6089V184.876C66.6046 185.385 66.6046 186.259 66.3915 187.49C66.7524 187.464 67.1133 187.433 67.4612 187.398L67.5134 188.016C66.7437 188.116 65.948 188.181 65.1654 188.225V191.277H64.3392V188.264C63.6305 188.285 62.9478 188.294 62.3217 188.294L62.2086 187.607Z" fill="#F4F4F4"/>
<rect x="115.667" y="75.1574" width="47.265" height="17.125" rx="6.5075" stroke="#FAFAFA" stroke-opacity="0.5" stroke-width="0.685"/>
<rect x="115.667" y="261.478" width="47.265" height="17.125" rx="6.5075" stroke="#FAFAFA" stroke-opacity="0.5" stroke-width="0.685"/>
<path d="M130.992 86.9571C129.597 86.9571 128.788 85.7831 128.792 83.7221C128.788 81.6784 129.605 80.487 130.992 80.487C132.375 80.487 133.193 81.6784 133.193 83.7221C133.193 85.7831 132.388 86.9571 130.992 86.9571ZM129.549 83.7221C129.553 85.3526 130.079 86.2614 130.992 86.2614C131.901 86.2614 132.432 85.3526 132.427 83.7221C132.432 82.0915 131.897 81.1697 130.992 81.1654C130.088 81.1697 129.553 82.0915 129.549 83.7221ZM136.288 86.9571C135.154 86.9571 134.293 86.257 134.245 85.2874H135.001C135.058 85.8483 135.606 86.2657 136.288 86.2701C137.106 86.2657 137.697 85.67 137.697 84.8787C137.697 84.0612 137.084 83.4568 136.236 83.4525C135.706 83.4438 135.293 83.609 135.062 84.0177H134.306L134.749 80.574H138.158V81.2697H135.401L135.167 83.1133H135.228C135.51 82.8959 135.932 82.7481 136.375 82.7481C137.576 82.7481 138.458 83.6351 138.463 84.8613C138.458 86.0788 137.545 86.9571 136.288 86.9571ZM139.854 86.9223C139.55 86.9179 139.289 86.6658 139.297 86.357C139.289 86.0527 139.55 85.8005 139.854 85.8005C140.163 85.8005 140.415 86.0527 140.411 86.357C140.415 86.6658 140.163 86.9179 139.854 86.9223ZM143.515 86.9571C142.263 86.9571 141.363 86.2875 141.324 85.2874H142.115C142.158 85.8874 142.754 86.2614 143.506 86.2614C144.337 86.2614 144.937 85.8135 144.941 85.1569C144.937 84.4699 144.389 83.9873 143.411 83.9829H142.898V83.2959H143.411C144.176 83.2959 144.711 82.8655 144.707 82.2176C144.711 81.5871 144.25 81.1697 143.533 81.1654C142.859 81.1697 142.245 81.5393 142.211 82.1567H141.454C141.493 81.1567 142.424 80.487 143.541 80.487C144.741 80.487 145.472 81.2741 145.463 82.1741C145.472 82.8916 145.054 83.4133 144.393 83.6003V83.6438C145.215 83.7699 145.711 84.3569 145.707 85.1569C145.711 86.1918 144.772 86.9571 143.515 86.9571ZM149.063 80.574V86.8701H148.272V81.3915H148.237L146.707 82.4089V81.6176L148.272 80.574H149.063Z" fill="#BCBCBC"/>
<path d="M130.992 273.277C129.597 273.277 128.788 272.103 128.792 270.042C128.788 267.998 129.605 266.807 130.992 266.807C132.375 266.807 133.193 267.998 133.193 270.042C133.193 272.103 132.388 273.277 130.992 273.277ZM129.549 270.042C129.553 271.672 130.079 272.581 130.992 272.581C131.901 272.581 132.432 271.672 132.427 270.042C132.432 268.411 131.897 267.49 130.992 267.485C130.088 267.49 129.553 268.411 129.549 270.042ZM136.462 266.894V273.19H135.671V267.711H135.636L134.106 268.729V267.937L135.671 266.894H136.462ZM138.306 273.242C138.002 273.238 137.741 272.986 137.749 272.677C137.741 272.372 138.002 272.12 138.306 272.12C138.615 272.12 138.867 272.372 138.863 272.677C138.867 272.986 138.615 273.238 138.306 273.242ZM141.863 273.277C140.467 273.277 139.658 272.103 139.663 270.042C139.658 267.998 140.476 266.807 141.863 266.807C143.246 266.807 144.063 267.998 144.063 270.042C144.063 272.103 143.259 273.277 141.863 273.277ZM140.419 270.042C140.424 271.672 140.95 272.581 141.863 272.581C142.772 272.581 143.302 271.672 143.298 270.042C143.302 268.411 142.767 267.49 141.863 267.485C140.958 267.49 140.424 268.411 140.419 270.042ZM145.133 273.19L148.02 267.633V267.59H144.689V266.894H148.829V267.624L145.95 273.19H145.133Z" fill="#BCBCBC"/>
<g clip-path="url(#clip0_1_1061)">
<rect x="28.7532" y="236.213" width="144.373" height="32.7184" fill="#111C1C"/>
<rect x="28.7532" y="236.213" width="144.373" height="32.7184" stroke="#1F2727" stroke-width="0.52341"/>
<path d="M46.7725 248.121C48.5529 248.125 49.6569 248.705 49.6615 249.685C49.6569 250.246 49.2935 250.674 48.6495 250.941V252.123H50.4988V252.712H43.0463V252.123H44.8956V250.941C44.2424 250.679 43.8744 250.246 43.8744 249.685C43.8744 248.705 44.9922 248.125 46.7725 248.121ZM43.8744 254.074V253.485H49.5787V256.125H48.8519V254.074H43.8744ZM44.6196 249.685C44.615 250.297 45.4477 250.669 46.7725 250.669C48.0836 250.669 48.9209 250.297 48.9255 249.685C48.9209 249.064 48.0836 248.705 46.7725 248.701C45.4477 248.705 44.615 249.064 44.6196 249.685ZM45.6133 252.123H47.9318V251.143C47.5868 251.208 47.2004 251.24 46.7725 251.24C46.3447 251.24 45.9583 251.208 45.6133 251.143V252.123ZM57.9696 247.946V252.178H57.2428V250.053H55.4211V249.455H57.2428V247.946H57.9696ZM51.1796 251.617C52.4125 251.208 53.2589 250.182 53.2681 248.986V248.213H53.9766V248.986C53.9674 250.058 54.8138 251.042 56.0099 251.433L55.6235 251.994C54.7172 251.672 53.995 251.028 53.6316 250.2C53.2819 251.134 52.5413 251.847 51.5752 252.197L51.1796 251.617ZM52.6701 253.172V252.592H57.9696V254.543H53.397V255.435H58.2733V256.015H52.6885V253.991H57.252V253.172H52.6701ZM65.9649 248.48V251.81H62.1283V248.48H65.9649ZM62.7171 255.537C64.1248 255.38 65.4773 254.584 65.4773 253.77H63.0576V253.209H65.4865V252.408H66.2042V253.209H68.6515V253.77H66.2226C66.218 254.566 67.5336 255.362 68.9367 255.537L68.6883 256.098C67.46 255.928 66.3376 255.348 65.8499 254.593C65.3577 255.366 64.2076 255.928 62.9748 256.098L62.7171 255.537ZM62.8367 251.24H65.2565V249.069H62.8367V251.24ZM67.7314 252.648V247.946H68.4399V252.648H67.7314ZM78.9469 247.946V256.144H78.2201V247.946H78.9469ZM72.6814 254.166V248.645H73.399V250.807H75.8372V248.645H76.5456V254.166H72.6814ZM73.399 253.558H75.8372V251.387H73.399V253.558ZM84.1177 253.089C85.7968 253.089 86.8134 253.641 86.8134 254.598C86.8134 255.564 85.7968 256.116 84.1177 256.125C82.434 256.116 81.4081 255.564 81.4035 254.598C81.4081 253.641 82.434 253.089 84.1177 253.089ZM80.6951 252.234V248.461H81.4035V249.713H83.7864V248.461H84.5041V252.234H80.6951ZM81.4035 251.645H83.7864V250.283H81.4035V251.645ZM82.1303 254.598C82.1211 255.187 82.8848 255.537 84.1177 255.537C85.3551 255.537 86.1096 255.187 86.1142 254.598C86.1096 254.014 85.3551 253.669 84.1177 253.66C82.8848 253.669 82.1211 254.014 82.1303 254.598ZM86.0222 252.868V247.946H86.7398V250.007H87.9727V250.623H86.7398V252.868H86.0222Z" fill="#F4F4F4"/>
<rect x="28.7532" y="268.408" width="144.373" height="32.7184" fill="#111C1C"/>
<rect x="28.7532" y="268.408" width="144.373" height="32.7184" stroke="#1F2727" stroke-width="0.52341"/>
<path d="M45.8617 281.429C45.8525 282.598 46.6851 283.624 47.8858 284.033L47.481 284.594C46.5793 284.258 45.8709 283.591 45.5167 282.731C45.167 283.711 44.4218 284.47 43.4327 284.843L43.0371 284.254C44.2976 283.812 45.1348 282.726 45.144 281.457V280.61H45.8617V281.429ZM44.3712 286.775C44.3666 285.79 45.4109 285.224 47.113 285.229C48.8105 285.224 49.8547 285.79 49.8547 286.775C49.8547 287.75 48.8105 288.302 47.113 288.302C45.4109 288.302 44.3666 287.75 44.3712 286.775ZM45.0888 286.775C45.0842 287.368 45.8571 287.727 47.113 287.722C48.3642 287.727 49.1371 287.368 49.1371 286.775C49.1371 286.163 48.3642 285.799 47.113 285.799C45.8571 285.799 45.0842 286.163 45.0888 286.775ZM47.2786 282.496V281.898H49.1003V280.141H49.8271V284.99H49.1003V282.496H47.2786ZM57.896 280.141V288.32H57.1784V280.141H57.896ZM51.2348 286.085C52.8035 286.085 54.8506 286.08 56.6356 285.855L56.6908 286.388C54.846 286.692 52.8679 286.71 51.3452 286.701L51.2348 286.085ZM51.4096 281.843V281.254H53.5534V280.233H54.2894V281.254H56.4239V281.843H51.4096ZM51.9709 283.84C51.9617 282.897 52.7621 282.299 53.9214 282.294C55.0853 282.299 55.8811 282.897 55.8903 283.84C55.8811 284.76 55.0853 285.376 53.9214 285.367C52.7621 285.376 51.9617 284.76 51.9709 283.84ZM52.6425 283.84C52.6425 284.415 53.1669 284.801 53.9214 284.806C54.6758 284.801 55.1957 284.415 55.2003 283.84C55.1957 283.26 54.6758 282.865 53.9214 282.865C53.1669 282.865 52.6425 283.26 52.6425 283.84ZM66.8114 284.502V285.1H59.3221V284.502H62.7079V283.739H60.2974V281.788H65.1185V280.969H60.2698V280.38H65.8453V282.322H61.015V283.168H66.0201V283.739H63.4164V284.502H66.8114ZM60.2054 286.986C60.1962 286.117 61.2404 285.657 63.0576 285.652C64.8563 285.657 65.8959 286.117 65.9005 286.986C65.8959 287.842 64.8563 288.302 63.0576 288.302C61.2404 288.302 60.1962 287.842 60.2054 286.986ZM60.9414 286.986C60.9322 287.479 61.7051 287.764 63.0576 287.759C64.387 287.764 65.1599 287.479 65.1645 286.986C65.1599 286.49 64.387 286.214 63.0576 286.214C61.7051 286.214 60.9322 286.49 60.9414 286.986ZM74.1074 280.675V284.005H70.2708V280.675H74.1074ZM70.8596 287.732C72.2673 287.575 73.6198 286.779 73.6198 285.965H71.2001V285.404H73.629V284.603H74.3467V285.404H76.794V285.965H74.3651C74.3605 286.761 75.6761 287.557 77.0792 287.732L76.8308 288.293C75.6025 288.123 74.4801 287.543 73.9924 286.789C73.5002 287.561 72.3501 288.123 71.1173 288.293L70.8596 287.732ZM70.9792 283.435H73.399V281.264H70.9792V283.435ZM75.874 284.843V280.141H76.5824V284.843H75.874ZM83.1608 281.429C83.1516 282.598 83.9843 283.624 85.1849 284.033L84.7801 284.594C83.8785 284.258 83.17 283.591 82.8158 282.731C82.4662 283.711 81.7209 284.47 80.7319 284.843L80.3362 284.254C81.5967 283.812 82.434 282.726 82.4432 281.457V280.61H83.1608V281.429ZM81.6703 286.775C81.6657 285.79 82.71 285.224 84.4121 285.229C86.1096 285.224 87.1539 285.79 87.1539 286.775C87.1539 287.75 86.1096 288.302 84.4121 288.302C82.71 288.302 81.6657 287.75 81.6703 286.775ZM82.388 286.775C82.3834 287.368 83.1562 287.727 84.4121 287.722C85.6634 287.727 86.4362 287.368 86.4362 286.775C86.4362 286.163 85.6634 285.799 84.4121 285.799C83.1562 285.799 82.3834 286.163 82.388 286.775ZM84.5777 282.496V281.898H86.3994V280.141H87.1263V284.99H86.3994V282.496H84.5777ZM91.3309 281.65C91.3309 282.713 92.1498 283.729 93.3458 284.143L92.9686 284.714C92.0486 284.383 91.3355 283.697 90.9859 282.855C90.6317 283.794 89.8726 284.548 88.902 284.907L88.5247 284.337C89.73 283.904 90.6041 282.814 90.6041 281.659V281.3H88.7548V280.712H93.1618V281.3H91.3309V281.65ZM89.7668 286.076V285.477H95.2688V288.32H94.5419V286.076H89.7668ZM92.9042 282.892V282.285H94.5419V280.141H95.2688V285.045H94.5419V282.892H92.9042ZM102.427 281.098V283.233H103.669V280.316H104.359V287.906H103.669V283.831H102.427V286.122H99.2986V281.098H102.427ZM99.9795 285.542H101.746V281.678H99.9795V285.542ZM105.307 288.32V280.141H106.006V288.32H105.307ZM110.045 282.34C110.04 283.835 111.057 285.335 112.262 285.882L111.821 286.453C110.887 286.002 110.082 285.031 109.691 283.867C109.313 285.1 108.508 286.135 107.552 286.618L107.091 286.011C108.311 285.454 109.318 283.89 109.327 282.34V280.85H110.045V282.34ZM113.155 288.339V280.141H113.882V288.339H113.155ZM118.206 282.653C118.21 284.042 119.218 285.454 120.423 285.974L120.018 286.545C119.061 286.112 118.238 285.169 117.856 284.038C117.474 285.238 116.646 286.278 115.712 286.747L115.28 286.177C116.453 285.615 117.474 284.07 117.479 282.653V281.586H115.547V280.988H120.156V281.586H118.206V282.653ZM121.297 288.32V280.141H122.024V288.32H121.297Z" fill="#F4F4F4"/>
<rect x="28.7532" y="300.604" width="144.373" height="32.7184" fill="#111C1C"/>
<rect x="28.7532" y="300.604" width="144.373" height="32.7184" stroke="#1F2727" stroke-width="0.52341"/>
<path d="M49.8271 312.345V318.39H49.1003V316.182H46.9842C46.6069 316.665 45.9997 316.955 45.3004 316.955C44.0768 316.955 43.1705 316.108 43.1751 314.912C43.1705 313.712 44.0768 312.865 45.3004 312.861C45.9951 312.865 46.5931 313.15 46.975 313.624H49.1003V312.345H49.8271ZM43.8652 314.912C43.8652 315.731 44.4632 316.315 45.3004 316.311C46.1055 316.315 46.7173 315.731 46.7173 314.912C46.7173 314.098 46.1055 313.509 45.3004 313.505C44.4632 313.509 43.8652 314.098 43.8652 314.912ZM44.5736 320.341V317.755H45.3004V319.733H50.0571V320.341H44.5736ZM47.3016 314.222C47.3752 314.434 47.4166 314.664 47.4166 314.912C47.4166 315.152 47.3752 315.377 47.3062 315.584H49.1003V314.222H47.3016ZM55.2463 312.833V315.087H52.2653V316.274C53.719 316.269 54.7724 316.219 56.0467 316.007L56.1203 316.605C54.8092 316.821 53.7144 316.877 52.1917 316.872H51.5568V314.517H54.5378V313.422H51.5384V312.833H55.2463ZM52.2285 318.335V317.746H57.5832V320.516H56.8656V318.335H52.2285ZM56.8656 317.314V312.345H57.5832V314.443H58.8253V315.05H57.5832V317.314H56.8656ZM66.1121 312.336V320.534H65.3853V316.228H63.5912V315.63H65.3853V312.336H66.1121ZM59.3497 318.372C60.5504 317.811 61.4475 316.412 61.4475 315.004V314.351H59.5705V313.762H61.4475V312.493H62.1651V313.762H64.0144V314.351H62.1559V315.004C62.1559 316.352 63.0806 317.682 64.2904 318.225L63.8764 318.786C62.9425 318.363 62.1743 317.466 61.8109 316.389C61.4567 317.53 60.6976 318.482 59.7638 318.933L59.3497 318.372ZM74.1074 312.87V316.2H70.2708V312.87H74.1074ZM70.8596 319.927C72.2673 319.77 73.6198 318.974 73.6198 318.16H71.2001V317.599H73.629V316.798H74.3467V317.599H76.794V318.16H74.3651C74.3605 318.956 75.6761 319.752 77.0792 319.927L76.8308 320.488C75.6025 320.318 74.4801 319.738 73.9924 318.984C73.5002 319.756 72.3501 320.318 71.1173 320.488L70.8596 319.927ZM70.9792 315.63H73.399V313.459H70.9792V315.63ZM75.874 317.038V312.336H76.5824V317.038H75.874ZM84.4765 313.081V316.844H80.6951V313.081H84.4765ZM81.4035 316.265H83.7772V313.67H81.4035V316.265ZM81.6243 320.341V317.765H82.3328V319.733H87.1171V320.341H81.6243ZM86.0222 318.335V312.336H86.7398V314.83H87.9727V315.437H86.7398V318.335H86.0222ZM94.8823 312.345V314.222H96.1244V314.83H94.8823V316.964H94.1647V312.345H94.8823ZM88.8836 316.338V312.759H89.6104V315.731C90.7789 315.727 91.9796 315.635 93.2998 315.363L93.3918 315.97C92.0026 316.251 90.7651 316.334 89.5368 316.338H88.8836ZM89.7024 320.405V317.415H94.8823V320.405H89.7024ZM90.4109 319.816H94.1831V317.985H90.4109V319.816ZM104.111 317.001V317.599H102.132V320.516H101.406V317.599H99.3078V320.516H98.5626V317.599H96.6212V317.001H104.111ZM97.4677 314.452C97.4723 313.362 98.627 312.672 100.347 312.667C102.063 312.672 103.227 313.362 103.227 314.452C103.227 315.543 102.063 316.223 100.347 316.219C98.627 316.223 97.4723 315.543 97.4677 314.452ZM98.2129 314.452C98.2037 315.175 99.0732 315.639 100.347 315.639C101.622 315.639 102.487 315.175 102.491 314.452C102.487 313.725 101.622 313.256 100.347 313.256C99.0732 313.256 98.2037 313.725 98.2129 314.452ZM111.379 316.173V316.762H108.849V318.878H112.262V319.485H104.773V318.878H108.14V316.762H105.73V313.008H111.296V313.597H106.457V316.173H111.379Z" fill="#F4F4F4"/>
<rect x="28.7532" y="332.798" width="144.373" height="32.7184" fill="#111C1C"/>
<rect x="28.7532" y="332.798" width="144.373" height="32.7184" stroke="#1F2727" stroke-width="0.52341"/>
<path d="M46.7449 349.702C48.4976 349.702 49.6109 350.254 49.6155 351.201C49.6109 352.14 48.4976 352.692 46.7449 352.692C44.9922 352.692 43.879 352.14 43.8836 351.201C43.879 350.254 44.9922 349.702 46.7449 349.702ZM43.0555 348.938V348.349H46.1377V346.767H46.8461V348.349H50.4988V348.938H43.0555ZM43.9388 345.543V344.954H49.5511V345.644C49.5465 346.307 49.5465 346.969 49.3211 347.816L48.6127 347.733C48.8335 346.891 48.8335 346.284 48.8335 345.644V345.543H43.9388ZM44.6012 351.201C44.5966 351.772 45.4431 352.121 46.7449 352.121C48.0514 352.121 48.8887 351.772 48.8979 351.201C48.8887 350.617 48.0514 350.258 46.7449 350.254C45.4431 350.258 44.5966 350.617 44.6012 351.201ZM55.5039 345.092C55.5039 345.41 55.4671 345.713 55.4027 346.003H57.2428V344.54H57.9696V349.417H57.2428V348.331H55.0715V347.733H57.2428V346.601H55.2049C54.6528 347.889 53.3694 348.823 51.6028 349.306L51.3176 348.726C53.3141 348.174 54.5792 347.08 54.7264 345.681H51.7316V345.092H55.5039ZM52.4677 350.355V349.775H57.9696V352.701H57.2428V350.355H52.4677ZM62.1743 346.04C62.1743 347.103 62.9932 348.119 64.1892 348.533L63.812 349.104C62.8919 348.772 62.1789 348.087 61.8293 347.245C61.4751 348.184 60.716 348.938 59.7453 349.297L59.3681 348.726C60.5734 348.294 61.4475 347.204 61.4475 346.049V345.69H59.5981V345.101H64.0052V345.69H62.1743V346.04ZM60.6102 350.465V349.867H66.1121V352.71H65.3853V350.465H60.6102ZM63.7476 347.282V346.675H65.3853V344.531H66.1121V349.435H65.3853V347.282H63.7476ZM74.2271 344.54V350.521H73.5094V344.54H74.2271ZM67.667 347.116C67.6624 345.939 68.5871 345.115 69.8108 345.111C71.0345 345.115 71.9499 345.939 71.9545 347.116C71.9499 348.308 71.0345 349.136 69.8108 349.131C68.5871 349.136 67.6624 348.308 67.667 347.116ZM68.3755 347.116C68.3663 347.931 68.9827 348.496 69.8108 348.496C70.625 348.496 71.2461 347.931 71.2461 347.116C71.2461 346.316 70.625 345.746 69.8108 345.746C68.9827 345.746 68.3663 346.316 68.3755 347.116ZM68.9459 352.536V349.913H69.6636V351.928H74.4847V352.536H68.9459ZM84.3753 344.531V346.307H85.6082V346.914H84.3753V348.699H83.6576V344.531H84.3753ZM78.3305 348.266V345H82.1119V348.266H78.3305ZM79.039 347.687H81.4127V345.589H79.039V347.687ZM79.1586 349.665V349.085H84.3753V351.082H79.8854V352.02H84.6789V352.6H79.177V350.53H83.6576V349.665H79.1586ZM93.6035 349.49V350.088H90.1992V352.71H89.4908V350.088H86.1142V349.49H93.6035ZM87.1171 348.644V344.917H92.665V345.506H87.8347V346.463H92.4718V347.043H87.8347V348.055H92.757V348.644H87.1171Z" fill="#F4F4F4"/>
</g>
<rect x="28.7532" y="199.908" width="142.318" height="32.0334" rx="7.11171" fill="#111C1C"/>
<rect x="28.7532" y="199.908" width="142.318" height="32.0334" rx="7.11171" stroke="#1F2727" stroke-width="0.52341"/>
<path d="M46.2719 212.953V214.97H47.4459V212.214H48.0981V219.388H47.4459V215.536H46.2719V217.701H43.3151V212.953H46.2719ZM43.9587 217.153H45.6283V213.501H43.9587V217.153ZM48.9938 219.779V212.048H49.6547V219.779H48.9938ZM53.4724 214.127C53.468 215.54 54.429 216.957 55.5682 217.475L55.1508 218.014C54.2681 217.588 53.5072 216.67 53.1376 215.57C52.781 216.736 52.0201 217.714 51.1157 218.171L50.6809 217.597C51.8331 217.07 52.7854 215.592 52.7941 214.127V212.718H53.4724V214.127ZM56.4117 219.797V212.048H57.0987V219.797H56.4117ZM61.186 214.422C61.1904 215.736 62.1426 217.07 63.2818 217.562L62.8992 218.101C61.9948 217.692 61.2164 216.801 60.8555 215.731C60.4947 216.866 59.712 217.849 58.8293 218.292L58.4206 217.753C59.5294 217.223 60.4947 215.762 60.499 214.422V213.414H58.6728V212.848H63.0296V213.414H61.186V214.422ZM64.108 219.779V212.048H64.795V219.779H64.108ZM74.7348 212.057V217.727H74.0565V212.057H74.7348ZM68.43 216.075C69.5997 215.618 70.3954 214.488 70.3954 213.266V212.492H71.0911V213.266C71.0824 214.444 71.8868 215.501 73.039 215.918L72.6825 216.466C71.7868 216.123 71.0911 215.427 70.7476 214.535C70.4128 215.483 69.7084 216.244 68.804 216.605L68.43 216.075ZM69.7432 219.614V217.205H70.4215V219.04H74.9783V219.614H69.7432ZM82.2484 212.831V213.605C82.2397 214.553 82.2397 215.614 81.9614 217.17L81.2657 217.092C81.5571 215.614 81.5571 214.531 81.5614 213.605V213.396H76.7958V212.831H82.2484ZM76.048 218.684V218.118H78.8134V215.353H79.483V218.118H83.092V218.684H76.048ZM92.6144 212.935V213.501H86.3444V212.935H89.162V212.005H89.8316V212.935H92.6144ZM85.9791 217.623V217.057H93.0579V217.623H89.8316V219.797H89.162V217.623H85.9791ZM86.9792 215.24C86.9705 214.405 87.9184 213.944 89.5011 213.944C91.0708 213.944 92.0187 214.405 92.023 215.24C92.0187 216.057 91.0708 216.518 89.5011 216.527C87.9184 216.518 86.9705 216.057 86.9792 215.24ZM87.6836 215.24C87.6749 215.718 88.3489 216.001 89.5011 215.996C90.6403 216.001 91.3099 215.718 91.3186 215.24C91.3099 214.753 90.6403 214.47 89.5011 214.466C88.3489 214.47 87.6749 214.753 87.6836 215.24ZM98.4844 214.57C98.4887 215.809 99.2931 217.075 100.415 217.614L100.015 218.144C99.1627 217.727 98.4887 216.879 98.167 215.883C97.8278 216.962 97.1104 217.857 96.2321 218.284L95.8407 217.753C96.9756 217.223 97.8191 215.901 97.8235 214.57V213.953H96.0494V213.396H97.8148V212.196H98.5018V213.396H100.241V213.953H98.4844V214.57ZM101.215 219.779V212.048H101.893V215.222H103.189V215.805H101.893V219.779H101.215ZM109.65 212.048V214.353H110.824V214.927H109.65V217.649H108.972V212.048H109.65ZM103.972 216.275V212.718H107.415V213.292H104.65V215.701C106.202 215.705 107.085 215.657 108.12 215.449L108.207 216.014C107.12 216.223 106.198 216.275 104.572 216.275H103.972ZM104.815 219.614V217.084H105.485V219.04H110.007V219.614H104.815Z" fill="#F4F4F4"/>
<path d="M150.415 214.825V217.442" stroke="#DC3B3B" stroke-width="1.04682" stroke-linecap="round" stroke-linejoin="round"/>
<path d="M149.51 210.638L143.753 220.583C143.661 220.742 143.613 220.922 143.613 221.106C143.612 221.289 143.66 221.469 143.752 221.628C143.843 221.787 143.975 221.92 144.134 222.012C144.292 222.104 144.472 222.153 144.656 222.153H156.171C156.354 222.153 156.534 222.104 156.693 222.012C156.851 221.92 156.983 221.787 157.075 221.628C157.166 221.469 157.214 221.289 157.214 221.106C157.214 220.922 157.165 220.742 157.074 220.583L151.316 210.638C151.225 210.479 151.094 210.347 150.935 210.255C150.777 210.163 150.596 210.115 150.413 210.115C150.23 210.115 150.05 210.163 149.891 210.255C149.733 210.347 149.601 210.479 149.51 210.638V210.638Z" stroke="#DC3B3B" stroke-width="1.04682" stroke-linecap="round" stroke-linejoin="round"/>
<path d="M150.414 220.583C150.848 220.583 151.199 220.231 151.199 219.798C151.199 219.364 150.848 219.013 150.414 219.013C149.98 219.013 149.629 219.364 149.629 219.798C149.629 220.231 149.98 220.583 150.414 220.583Z" fill="#DC3B3B"/>
<rect x="141.693" y="470" width="108.307" height="32.8416" rx="16.4208" fill="#1BA3A1"/>
<rect x="25" y="470" width="108.307" height="32.8416" rx="16.4208" fill="#2B424A"/>
<rect x="14.25" y="8.25342" width="247.176" height="527.186" rx="17.8305" stroke="black" stroke-width="2.74316"/>
<g filter="url(#filter1_d_1_1061)">
<mask id="path-52-inside-1_1_1061" fill="white">
<path d="M10.5862 25.2201C10.5862 13.4031 20.1658 3.82349 31.9828 3.82349H244.459C256.276 3.82349 265.855 13.4031 265.855 25.2201V519.239C265.855 531.056 256.276 540.635 244.459 540.635H31.9828C20.1658 540.635 10.5862 531.056 10.5862 519.239V25.2201Z"/>
</mask>
<path d="M8.94029 25.2201C8.94029 12.4941 19.2568 2.17759 31.9828 2.17759H242.813C255.539 2.17759 265.855 12.4941 265.855 25.2201V25.2201C265.855 14.3121 256.276 5.46938 244.459 5.46938H31.9828C21.0748 5.46938 12.2321 14.3121 12.2321 25.2201L8.94029 25.2201ZM265.855 540.635H10.5862H265.855ZM31.9828 540.635C19.2568 540.635 8.94029 530.319 8.94029 517.593V25.2201C8.94029 12.4941 19.2568 2.17759 31.9828 2.17759L31.9828 5.46938C21.0748 5.46938 12.2321 14.3121 12.2321 25.2201V519.239C12.2321 531.056 21.0748 540.635 31.9828 540.635H31.9828ZM265.855 3.82349V540.635V3.82349Z" fill="#939393" mask="url(#path-52-inside-1_1_1061)"/>
<path d="M8.94029 25.2201C8.94029 12.4941 19.2568 2.17759 31.9828 2.17759H242.813C255.539 2.17759 265.855 12.4941 265.855 25.2201V25.2201C265.855 14.3121 256.276 5.46938 244.459 5.46938H31.9828C21.0748 5.46938 12.2321 14.3121 12.2321 25.2201L8.94029 25.2201ZM265.855 540.635H10.5862H265.855ZM31.9828 540.635C19.2568 540.635 8.94029 530.319 8.94029 517.593V25.2201C8.94029 12.4941 19.2568 2.17759 31.9828 2.17759L31.9828 5.46938C21.0748 5.46938 12.2321 14.3121 12.2321 25.2201V519.239C12.2321 531.056 21.0748 540.635 31.9828 540.635H31.9828ZM265.855 3.82349V540.635V3.82349Z" fill="black" fill-opacity="0.2" mask="url(#path-52-inside-1_1_1061)"/>
</g>
<ellipse cx="37.3353" cy="26.6486" rx="8.40704" ry="8.29632" fill="black"/>
<ellipse cx="37.335" cy="29.9671" rx="5.04422" ry="4.97779" fill="#0B0B0B"/>
<ellipse cx="39.0164" cy="28.3075" rx="6.72563" ry="6.63706" fill="#D9D9D9" fill-opacity="0.11"/>
<ellipse cx="37.335" cy="26.6482" rx="5.04422" ry="4.97779" fill="black"/>
<ellipse cx="37.3352" cy="26.6485" rx="1.68141" ry="1.65926" fill="#474747"/>
<ellipse cx="0.840704" cy="0.829632" rx="0.840704" ry="0.829632" transform="matrix(-1 0 0 1 40.6987 24.9893)" fill="#D9D9D9"/>
<path d="M106.885 528.4H169.174" stroke="#DBDBDB" stroke-width="1.6459" stroke-linecap="round"/>
<path d="M222.494 22.6145C222.268 22.4706 220.021 20.9219 216.656 20.9219C213.286 20.9219 211.044 22.4706 210.818 22.6145L216.656 28.7501L222.494 22.6145Z" fill="#D2D2D2" fill-opacity="0.3"/>
<path d="M212.408 24.2817L216.656 28.7502L220.904 24.2817C220.688 24.1421 219.068 23.0334 216.656 23.0334C214.244 23.0334 212.624 24.1421 212.408 24.2817V24.2817Z" fill="white"/>
<path d="M243.237 21.9076C243.237 21.5987 242.936 21.3448 242.57 21.3448H241.732V20.4985H239.726V21.3448H238.888C238.522 21.3448 238.221 21.5987 238.221 21.9076V23.0374H243.237V21.9076Z" fill="#D2D2D2" fill-opacity="0.3"/>
<path d="M238.221 23.0376V28.3989C238.221 28.7078 238.522 28.9617 238.888 28.9617H242.565C242.936 28.9617 243.237 28.7078 243.237 28.3989V23.0376H238.221Z" fill="white"/>
<path d="M223.676 28.9615H233.694V20.4985L223.676 28.9615Z" fill="#D2D2D2" fill-opacity="0.3"/>
<path d="M231.19 22.6145L223.676 28.9617H231.19V22.6145Z" fill="white"/>
<path d="M55.0487 24.6423V28.9446H54.2678V25.5529L53.2335 25.8947V25.2641L54.9603 24.6423H55.0487ZM59.0518 28.3317V28.9446H56.1463V28.4201L57.5401 26.9143C57.6855 26.7492 57.8004 26.6058 57.8849 26.484C57.9694 26.3622 58.0293 26.2522 58.0646 26.154C58.102 26.0538 58.1206 25.9585 58.1206 25.8682C58.1206 25.7365 58.0971 25.6216 58.0499 25.5234C58.0028 25.4232 57.934 25.3456 57.8436 25.2906C57.7552 25.2356 57.6462 25.2081 57.5165 25.2081C57.3731 25.2081 57.2504 25.2415 57.1482 25.3083C57.048 25.3731 56.9714 25.4635 56.9184 25.5794C56.8673 25.6953 56.8417 25.8279 56.8417 25.9772H56.0608C56.0608 25.7238 56.1198 25.493 56.2377 25.2847C56.3555 25.0745 56.5245 24.9065 56.7445 24.7808C56.9645 24.6551 57.2258 24.5922 57.5283 24.5922C57.823 24.5922 58.0725 24.6413 58.2768 24.7396C58.4811 24.8358 58.6363 24.9733 58.7424 25.1521C58.8485 25.3309 58.9015 25.544 58.9015 25.7916C58.9015 25.9291 58.8789 26.0646 58.8337 26.1982C58.7886 26.3318 58.7247 26.4644 58.6422 26.596C58.5617 26.7257 58.4654 26.8573 58.3534 26.9909C58.2414 27.1245 58.1167 27.261 57.9792 27.4005L57.1423 28.3317H59.0518ZM59.7133 28.5644C59.7133 28.4466 59.7536 28.3474 59.8341 28.2668C59.9147 28.1863 60.0237 28.146 60.1612 28.146C60.2987 28.146 60.4077 28.1863 60.4883 28.2668C60.5688 28.3474 60.6091 28.4466 60.6091 28.5644C60.6091 28.6804 60.5688 28.7786 60.4883 28.8591C60.4077 28.9377 60.2987 28.977 60.1612 28.977C60.0237 28.977 59.9147 28.9377 59.8341 28.8591C59.7536 28.7786 59.7133 28.6804 59.7133 28.5644ZM59.7162 26.0921C59.7162 25.9743 59.7565 25.875 59.8371 25.7945C59.9176 25.714 60.0266 25.6737 60.1641 25.6737C60.3017 25.6737 60.4107 25.714 60.4912 25.7945C60.5718 25.875 60.612 25.9743 60.612 26.0921C60.612 26.208 60.5718 26.3063 60.4912 26.3868C60.4107 26.4654 60.3017 26.5047 60.1641 26.5047C60.0266 26.5047 59.9176 26.4654 59.8371 26.3868C59.7565 26.3063 59.7162 26.208 59.7162 26.0921ZM64.2586 26.431V27.153C64.2586 27.483 64.2252 27.7649 64.1584 27.9987C64.0916 28.2324 63.9954 28.424 63.8696 28.5733C63.7439 28.7206 63.5936 28.8297 63.4188 28.9004C63.2439 28.9691 63.0494 29.0035 62.8353 29.0035C62.6644 29.0035 62.5053 28.9819 62.3579 28.9387C62.2106 28.8935 62.078 28.8247 61.9601 28.7324C61.8442 28.6381 61.744 28.5183 61.6596 28.3729C61.5771 28.2275 61.5132 28.0537 61.468 27.8513C61.4248 27.649 61.4032 27.4162 61.4032 27.153V26.431C61.4032 26.101 61.4366 25.82 61.5034 25.5882C61.5721 25.3564 61.6694 25.1668 61.7951 25.0195C61.9208 24.8722 62.0711 24.7651 62.246 24.6983C62.4208 24.6296 62.6153 24.5952 62.8294 24.5952C63.0023 24.5952 63.1614 24.6168 63.3068 24.66C63.4541 24.7032 63.5858 24.771 63.7017 24.8633C63.8195 24.9537 63.9197 25.0716 64.0022 25.2169C64.0847 25.3603 64.1476 25.5332 64.1908 25.7356C64.236 25.9359 64.2586 26.1678 64.2586 26.431ZM63.4807 27.259V26.322C63.4807 26.157 63.4708 26.0135 63.4512 25.8917C63.4335 25.768 63.407 25.6629 63.3716 25.5764C63.3363 25.49 63.2921 25.4203 63.239 25.3672C63.186 25.3122 63.1251 25.2719 63.0563 25.2464C62.9876 25.2209 62.9119 25.2081 62.8294 25.2081C62.7273 25.2081 62.6359 25.2287 62.5554 25.27C62.4748 25.3093 62.4071 25.3721 62.352 25.4586C62.297 25.545 62.2548 25.6599 62.2253 25.8033C62.1978 25.9448 62.1841 26.1177 62.1841 26.322V27.259C62.1841 27.4241 62.1929 27.5684 62.2106 27.6922C62.2302 27.816 62.2578 27.9221 62.2931 28.0105C62.3304 28.0989 62.3746 28.1715 62.4257 28.2285C62.4788 28.2835 62.5397 28.3248 62.6084 28.3523C62.6772 28.3778 62.7528 28.3906 62.8353 28.3906C62.9394 28.3906 63.0308 28.37 63.1094 28.3287C63.1899 28.2875 63.2577 28.2226 63.3127 28.1342C63.3677 28.0439 63.409 27.927 63.4365 27.7836C63.4659 27.6382 63.4807 27.4633 63.4807 27.259ZM67.8845 26.431V27.153C67.8845 27.483 67.8511 27.7649 67.7843 27.9987C67.7175 28.2324 67.6213 28.424 67.4955 28.5733C67.3698 28.7206 67.2195 28.8297 67.0447 28.9004C66.8699 28.9691 66.6754 29.0035 66.4612 29.0035C66.2903 29.0035 66.1312 28.9819 65.9839 28.9387C65.8365 28.8935 65.7039 28.8247 65.586 28.7324C65.4701 28.6381 65.37 28.5183 65.2855 28.3729C65.203 28.2275 65.1391 28.0537 65.0939 27.8513C65.0507 27.649 65.0291 27.4162 65.0291 27.153V26.431C65.0291 26.101 65.0625 25.82 65.1293 25.5882C65.1981 25.3564 65.2953 25.1668 65.421 25.0195C65.5468 24.8722 65.697 24.7651 65.8719 24.6983C66.0467 24.6296 66.2412 24.5952 66.4553 24.5952C66.6282 24.5952 66.7873 24.6168 66.9327 24.66C67.0801 24.7032 67.2117 24.771 67.3276 24.8633C67.4455 24.9537 67.5456 25.0716 67.6281 25.2169C67.7107 25.3603 67.7735 25.5332 67.8167 25.7356C67.8619 25.9359 67.8845 26.1678 67.8845 26.431ZM67.1066 27.259V26.322C67.1066 26.157 67.0968 26.0135 67.0771 25.8917C67.0594 25.768 67.0329 25.6629 66.9975 25.5764C66.9622 25.49 66.918 25.4203 66.8649 25.3672C66.8119 25.3122 66.751 25.2719 66.6822 25.2464C66.6135 25.2209 66.5379 25.2081 66.4553 25.2081C66.3532 25.2081 66.2618 25.2287 66.1813 25.27C66.1007 25.3093 66.033 25.3721 65.978 25.4586C65.923 25.545 65.8807 25.6599 65.8513 25.8033C65.8238 25.9448 65.81 26.1177 65.81 26.322V27.259C65.81 27.4241 65.8188 27.5684 65.8365 27.6922C65.8562 27.816 65.8837 27.9221 65.919 28.0105C65.9564 28.0989 66.0006 28.1715 66.0516 28.2285C66.1047 28.2835 66.1656 28.3248 66.2343 28.3523C66.3031 28.3778 66.3787 28.3906 66.4612 28.3906C66.5654 28.3906 66.6567 28.37 66.7353 28.3287C66.8158 28.2875 66.8836 28.2226 66.9386 28.1342C66.9936 28.0439 67.0349 27.927 67.0624 27.7836C67.0918 27.6382 67.1066 27.4633 67.1066 27.259Z" fill="#D9D9D9" fill-opacity="0.92"/>
</g>
<defs>
<filter id="filter0_d_1_1061" x="0.079834" y="0" width="275.732" height="551.694" filterUnits="userSpaceOnUse" color-interpolation-filters="sRGB">
<feFlood flood-opacity="0" result="BackgroundImageFix"/>
<feColorMatrix in="SourceAlpha" type="matrix" values="0 0 0 0 0 0 0 0 0 0 0 0 0 0 0 0 0 0 127 0" result="hardAlpha"/>
<feOffset dy="4"/>
<feGaussianBlur stdDeviation="2"/>
<feComposite in2="hardAlpha" operator="out"/>
<feColorMatrix type="matrix" values="0 0 0 0 0 0 0 0 0 0 0 0 0 0 0 0 0 0 0.25 0"/>
<feBlend mode="normal" in2="BackgroundImageFix" result="effect1_dropShadow_1_1061"/>
<feBlend mode="normal" in="SourceGraphic" in2="effect1_dropShadow_1_1061" result="shape"/>
</filter>
<filter id="filter1_d_1_1061" x="8.39165" y="3.82349" width="259.658" height="541.201" filterUnits="userSpaceOnUse" color-interpolation-filters="sRGB">
<feFlood flood-opacity="0" result="BackgroundImageFix"/>
<feColorMatrix in="SourceAlpha" type="matrix" values="0 0 0 0 0 0 0 0 0 0 0 0 0 0 0 0 0 0 127 0" result="hardAlpha"/>
<feOffset dy="2.19453"/>
<feGaussianBlur stdDeviation="1.09726"/>
<feComposite in2="hardAlpha" operator="out"/>
<feColorMatrix type="matrix" values="0 0 0 0 0 0 0 0 0 0 0 0 0 0 0 0 0 0 0.25 0"/>
<feBlend mode="normal" in2="BackgroundImageFix" result="effect1_dropShadow_1_1061"/>
<feBlend mode="normal" in="SourceGraphic" in2="effect1_dropShadow_1_1061" result="shape"/>
</filter>
<clipPath id="clip0_1_1061">
<rect x="29.0149" y="236.475" width="141.795" height="128.78" rx="5.2341" fill="white"/>
</clipPath>
</defs>
</svg>
