<svg width="283" height="18" viewBox="0 0 283 18" fill="none" xmlns="http://www.w3.org/2000/svg">
<path d="M3.74138 6V13C3.74138 13.6314 3.55538 14 2.66092 14C1.76646 14 0.5 13.6314 0.5 13V6C0.5 5.36856 1.76646 5 2.66092 5C3.55538 5 3.74138 5.36856 3.74138 6Z" fill="#263238"/>
<path d="M11.3046 4V15C11.3046 15.6206 11.1186 16 10.2242 16C9.32969 16 8.06323 15.6206 8.06323 15V4C8.06323 3.37943 9.32969 3 10.2242 3C11.1186 3 11.3046 3.37943 11.3046 4Z" fill="#263238"/>
<path d="M18.8678 2V15C18.8678 15.5934 18.6818 16 17.7874 16C16.8929 16 15.6265 15.5934 15.6265 15V2C15.6265 1.40664 16.8929 1 17.7874 1C18.6818 1 18.8678 1.40664 18.8678 2Z" fill="#263238"/>
<path d="M25.3505 3V16C25.3505 16.6143 25.1645 17 24.27 17C23.3756 17 22.1091 16.6143 22.1091 16V3C22.1091 2.38568 23.3756 2 24.27 2C25.1645 2 25.3505 2.38568 25.3505 3Z" fill="#263238"/>
<path d="M32.9137 3V16C32.9137 16.6182 32.7277 17 31.8333 17C30.9388 17 29.6724 16.6182 29.6724 16V3C29.6724 2.38176 30.9388 2 31.8333 2C32.7277 2 32.9137 2.38176 32.9137 3Z" fill="#263238"/>
<path d="M40.477 4V15C40.477 15.6249 40.291 16 39.3965 16C38.5021 16 37.2356 15.6249 37.2356 15V4C37.2356 3.37509 38.5021 3 39.3965 3C40.291 3 40.477 3.37509 40.477 4Z" fill="#263238"/>
<path d="M48.0402 4V14C48.0402 14.5928 47.8542 15 46.9597 15C46.0653 15 44.7988 14.5928 44.7988 14V4C44.7988 3.40715 46.0653 3 46.9597 3C47.8542 3 48.0402 3.40715 48.0402 4Z" fill="#263238"/>
<path d="M55.6034 4V13C55.6034 13.5969 55.4174 14 54.523 14C53.6285 14 52.3621 13.5969 52.3621 13V4C52.3621 3.40313 53.6285 3 54.523 3C55.4174 3 55.6034 3.40313 55.6034 4Z" fill="#263238"/>
<path d="M62.0861 4V14C62.0861 14.5883 61.9001 15 61.0056 15C60.1112 15 58.8447 14.5883 58.8447 14V4C58.8447 3.41166 60.1112 3 61.0056 3C61.9001 3 62.0861 3.41166 62.0861 4Z" fill="#263238"/>
<path d="M69.6493 5V13C69.6493 13.6074 69.4633 14 68.5689 14C67.6744 14 66.408 13.6074 66.408 13V5C66.408 4.39255 67.6744 4 68.5689 4C69.4633 4 69.6493 4.39255 69.6493 5Z" fill="#263238"/>
<path d="M77.2126 4V14C77.2126 14.5974 77.0266 15 76.1321 15C75.2377 15 73.9712 14.5974 73.9712 14V4C73.9712 3.40258 75.2377 3 76.1321 3C77.0266 3 77.2126 3.40258 77.2126 4Z" fill="#263238"/>
<path d="M84.7758 2V15C84.7758 15.6007 84.5898 16 83.6953 16C82.8009 16 81.5344 15.6007 81.5344 15V2C81.5344 1.39927 82.8009 1 83.6953 1C84.5898 1 84.7758 1.39927 84.7758 2Z" fill="#263238"/>
<path d="M92.339 4V14C92.339 14.5903 92.153 15 91.2586 15C90.3641 15 89.0977 14.5903 89.0977 14V4C89.0977 3.40969 90.3641 3 91.2586 3C92.153 3 92.339 3.40969 92.339 4Z" fill="#263238"/>
<path d="M98.8218 5V13C98.8218 13.5986 98.6358 14 97.7414 14C96.8469 14 95.5804 13.5986 95.5804 13V5C95.5804 4.40136 96.8469 4 97.7414 4C98.6358 4 98.8218 4.40136 98.8218 5Z" fill="#263238"/>
<path d="M106.385 6V12C106.385 12.5802 106.199 13 105.304 13C104.41 13 103.144 12.5802 103.144 12V6C103.144 5.41979 104.41 5 105.304 5C106.199 5 106.385 5.41979 106.385 6Z" fill="#263238"/>
<path d="M113.948 6V13C113.948 13.6143 113.762 14 112.868 14C111.973 14 110.707 13.6143 110.707 13V6C110.707 5.38568 111.973 5 112.868 5C113.762 5 113.948 5.38568 113.948 6Z" fill="#263238"/>
<path d="M121.511 6V11C121.511 11.5845 121.325 12 120.431 12C119.536 12 118.27 11.5845 118.27 11V6C118.27 5.4155 119.536 5 120.431 5C121.325 5 121.511 5.4155 121.511 6Z" fill="#263238"/>
<path d="M129.075 6V13C129.075 13.6143 128.889 14 127.994 14C127.1 14 125.833 13.6143 125.833 13V6C125.833 5.38568 127.1 5 127.994 5C128.889 5 129.075 5.38568 129.075 6Z" fill="#263238"/>
<path d="M135.557 5V14C135.557 14.6207 135.371 15 134.477 15C133.583 15 132.316 14.6207 132.316 14V5C132.316 4.3793 133.583 4 134.477 4C135.371 4 135.557 4.3793 135.557 5Z" fill="#263238"/>
<path d="M143.121 4V15C143.121 15.609 142.935 16 142.04 16C141.146 16 139.879 15.609 139.879 15V4C139.879 3.39098 141.146 3 142.04 3C142.935 3 143.121 3.39098 143.121 4Z" fill="#263238"/>
<path d="M150.684 2V15C150.684 15.5897 150.498 16 149.603 16C148.709 16 147.442 15.5897 147.442 15V2C147.442 1.41026 148.709 1 149.603 1C150.498 1 150.684 1.41026 150.684 2Z" fill="#263238"/>
<path d="M158.247 1V17C158.247 17.6079 158.061 18 157.167 18C156.272 18 155.006 17.6079 155.006 17V1C155.006 0.392118 156.272 0 157.167 0C158.061 0 158.247 0.392118 158.247 1Z" fill="#263238"/>
<path d="M165.81 1V17C165.81 17.6228 165.624 18 164.73 18C163.835 18 162.569 17.6228 162.569 17V1C162.569 0.377241 163.835 0 164.73 0C165.624 0 165.81 0.377241 165.81 1Z" fill="#263238"/>
<path d="M172.293 2V15C172.293 15.5934 172.107 16 171.213 16C170.318 16 169.052 15.5934 169.052 15V2C169.052 1.40664 170.318 1 171.213 1C172.107 1 172.293 1.40664 172.293 2Z" fill="#263238"/>
<path d="M179.856 4V14C179.856 14.5883 179.67 15 178.776 15C177.881 15 176.615 14.5883 176.615 14V4C176.615 3.41166 177.881 3 178.776 3C179.67 3 179.856 3.41166 179.856 4Z" fill="#263238"/>
<path d="M187.419 4V14C187.419 14.5974 187.233 15 186.339 15C185.444 15 184.178 14.5974 184.178 14V4C184.178 3.40258 185.444 3 186.339 3C187.233 3 187.419 3.40258 187.419 4Z" fill="#263238"/>
<path d="M194.983 3V14C194.983 14.5937 194.797 15 193.902 15C193.008 15 191.741 14.5937 191.741 14V3C191.741 2.40634 193.008 2 193.902 2C194.797 2 194.983 2.40634 194.983 3Z" fill="#263238"/>
<path d="M202.546 5V13C202.546 13.5986 202.36 14 201.465 14C200.571 14 199.304 13.5986 199.304 13V5C199.304 4.40136 200.571 4 201.465 4C202.36 4 202.546 4.40136 202.546 5Z" fill="#263238"/>
<path d="M209.029 3V14C209.029 14.5937 208.843 15 207.948 15C207.054 15 205.787 14.5937 205.787 14V3C205.787 2.40634 207.054 2 207.948 2C208.843 2 209.029 2.40634 209.029 3Z" fill="#263238"/>
<path d="M216.592 3V16C216.592 16.6143 216.406 17 215.511 17C214.617 17 213.35 16.6143 213.35 16V3C213.35 2.38568 214.617 2 215.511 2C216.406 2 216.592 2.38568 216.592 3Z" fill="#263238"/>
<path d="M224.155 2V16C224.155 16.6064 223.969 17 223.074 17C222.18 17 220.914 16.6064 220.914 16V2C220.914 1.39358 222.18 1 223.074 1C223.969 1 224.155 1.39358 224.155 2Z" fill="#263238"/>
<path d="M231.718 3V15C231.718 15.6151 231.532 16 230.638 16C229.743 16 228.477 15.6151 228.477 15V3C228.477 2.3849 229.743 2 230.638 2C231.532 2 231.718 2.3849 231.718 3Z" fill="#263238"/>
<path d="M239.281 4V14C239.281 14.6095 239.095 15 238.201 15C237.306 15 236.04 14.6095 236.04 14V4C236.04 3.39052 237.306 3 238.201 3C239.095 3 239.281 3.39052 239.281 4Z" fill="#263238"/>
<path d="M245.764 6V13C245.764 13.6079 245.578 14 244.684 14C243.789 14 242.523 13.6079 242.523 13V6C242.523 5.39212 243.789 5 244.684 5C245.578 5 245.764 5.39212 245.764 6Z" fill="#263238"/>
<path d="M253.327 6V12C253.327 12.6231 253.141 13 252.247 13C251.353 13 250.086 12.6231 250.086 12V6C250.086 5.37688 251.353 5 252.247 5C253.141 5 253.327 5.37688 253.327 6Z" fill="#263238"/>
<path d="M260.891 5V13C260.891 13.6074 260.705 14 259.81 14C258.916 14 257.649 13.6074 257.649 13V5C257.649 4.39255 258.916 4 259.81 4C260.705 4 260.891 4.39255 260.891 5Z" fill="#263238"/>
<path d="M268.454 4V14C268.454 14.5974 268.268 15 267.373 15C266.479 15 265.212 14.5974 265.212 14V4C265.212 3.40258 266.479 3 267.373 3C268.268 3 268.454 3.40258 268.454 4Z" fill="#263238"/>
<path d="M274.937 2V16C274.937 16.6136 274.751 17 273.856 17C272.962 17 271.695 16.6136 271.695 16V2C271.695 1.38637 272.962 1 273.856 1C274.751 1 274.937 1.38637 274.937 2Z" fill="#263238"/>
<path d="M282.5 4V15C282.5 15.6206 282.314 16 281.419 16C280.525 16 279.258 15.6206 279.258 15V4C279.258 3.37943 280.525 3 281.419 3C282.314 3 282.5 3.37943 282.5 4Z" fill="#263238"/>
<path d="M3.74138 6V13C3.74138 13.6314 3.55538 14 2.66092 14C1.76646 14 0.5 13.6314 0.5 13V6C0.5 5.36856 1.76646 5 2.66092 5C3.55538 5 3.74138 5.36856 3.74138 6Z" fill="#1BA3A1"/>
<path d="M11.3046 4V15C11.3046 15.6206 11.1186 16 10.2242 16C9.32969 16 8.06323 15.6206 8.06323 15V4C8.06323 3.37943 9.32969 3 10.2242 3C11.1186 3 11.3046 3.37943 11.3046 4Z" fill="#1BA3A1"/>
<path d="M18.8678 2V15C18.8678 15.5934 18.6818 16 17.7874 16C16.8929 16 15.6265 15.5934 15.6265 15V2C15.6265 1.40664 16.8929 1 17.7874 1C18.6818 1 18.8678 1.40664 18.8678 2Z" fill="#1BA3A1"/>
<path d="M25.3505 3V16C25.3505 16.6143 25.1645 17 24.27 17C23.3756 17 22.1091 16.6143 22.1091 16V3C22.1091 2.38568 23.3756 2 24.27 2C25.1645 2 25.3505 2.38568 25.3505 3Z" fill="#1BA3A1"/>
<path d="M32.9137 3V16C32.9137 16.6182 32.7277 17 31.8333 17C30.9388 17 29.6724 16.6182 29.6724 16V3C29.6724 2.38176 30.9388 2 31.8333 2C32.7277 2 32.9137 2.38176 32.9137 3Z" fill="#1BA3A1"/>
<path d="M40.477 4V15C40.477 15.6249 40.291 16 39.3965 16C38.5021 16 37.2356 15.6249 37.2356 15V4C37.2356 3.37509 38.5021 3 39.3965 3C40.291 3 40.477 3.37509 40.477 4Z" fill="#1BA3A1"/>
<path d="M48.0402 4V14C48.0402 14.5928 47.8542 15 46.9597 15C46.0653 15 44.7988 14.5928 44.7988 14V4C44.7988 3.40715 46.0653 3 46.9597 3C47.8542 3 48.0402 3.40715 48.0402 4Z" fill="#1BA3A1"/>
<path d="M55.6034 4V13C55.6034 13.5969 55.4174 14 54.523 14C53.6285 14 52.3621 13.5969 52.3621 13V4C52.3621 3.40313 53.6285 3 54.523 3C55.4174 3 55.6034 3.40313 55.6034 4Z" fill="#1BA3A1"/>
<path d="M62.0861 4V14C62.0861 14.5883 61.9001 15 61.0056 15C60.1112 15 58.8447 14.5883 58.8447 14V4C58.8447 3.41166 60.1112 3 61.0056 3C61.9001 3 62.0861 3.41166 62.0861 4Z" fill="#1BA3A1"/>
<path d="M69.6493 5V13C69.6493 13.6074 69.4633 14 68.5689 14C67.6744 14 66.408 13.6074 66.408 13V5C66.408 4.39255 67.6744 4 68.5689 4C69.4633 4 69.6493 4.39255 69.6493 5Z" fill="#1BA3A1"/>
<path d="M77.2126 4V14C77.2126 14.5974 77.0266 15 76.1321 15C75.2377 15 73.9712 14.5974 73.9712 14V4C73.9712 3.40258 75.2377 3 76.1321 3C77.0266 3 77.2126 3.40258 77.2126 4Z" fill="#1BA3A1"/>
<path d="M84.7758 2V15C84.7758 15.6007 84.5898 16 83.6953 16C82.8009 16 81.5344 15.6007 81.5344 15V2C81.5344 1.39927 82.8009 1 83.6953 1C84.5898 1 84.7758 1.39927 84.7758 2Z" fill="#1BA3A1"/>
<path d="M92.339 4V14C92.339 14.5903 92.153 15 91.2586 15C90.3641 15 89.0977 14.5903 89.0977 14V4C89.0977 3.40969 90.3641 3 91.2586 3C92.153 3 92.339 3.40969 92.339 4Z" fill="#1BA3A1"/>
<path d="M98.8218 5V13C98.8218 13.5986 98.6358 14 97.7414 14C96.8469 14 95.5804 13.5986 95.5804 13V5C95.5804 4.40136 96.8469 4 97.7414 4C98.6358 4 98.8218 4.40136 98.8218 5Z" fill="#1BA3A1"/>
<path d="M106.385 6V12C106.385 12.5802 106.199 13 105.304 13C104.41 13 103.144 12.5802 103.144 12V6C103.144 5.41979 104.41 5 105.304 5C106.199 5 106.385 5.41979 106.385 6Z" fill="#1BA3A1"/>
<path d="M113.948 6V13C113.948 13.6143 113.762 14 112.868 14C111.973 14 110.707 13.6143 110.707 13V6C110.707 5.38568 111.973 5 112.868 5C113.762 5 113.948 5.38568 113.948 6Z" fill="#1BA3A1"/>
<path d="M121.511 6V11C121.511 11.5845 121.325 12 120.431 12C119.536 12 118.27 11.5845 118.27 11V6C118.27 5.4155 119.536 5 120.431 5C121.325 5 121.511 5.4155 121.511 6Z" fill="#1BA3A1"/>
<path d="M129.075 6V13C129.075 13.6143 128.889 14 127.994 14C127.1 14 125.833 13.6143 125.833 13V6C125.833 5.38568 127.1 5 127.994 5C128.889 5 129.075 5.38568 129.075 6Z" fill="#1BA3A1"/>
<path d="M135.557 5V14C135.557 14.6207 135.371 15 134.477 15C133.583 15 132.316 14.6207 132.316 14V5C132.316 4.3793 133.583 4 134.477 4C135.371 4 135.557 4.3793 135.557 5Z" fill="#1BA3A1"/>
<path d="M143.121 4V15C143.121 15.609 142.935 16 142.04 16C141.146 16 139.879 15.609 139.879 15V4C139.879 3.39098 141.146 3 142.04 3C142.935 3 143.121 3.39098 143.121 4Z" fill="#1BA3A1"/>
<path d="M150.684 2V15C150.684 15.5897 150.498 16 149.603 16C148.709 16 147.442 15.5897 147.442 15V2C147.442 1.41026 148.709 1 149.603 1C150.498 1 150.684 1.41026 150.684 2Z" fill="#1BA3A1"/>
<path d="M158.247 1V17C158.247 17.6079 158.061 18 157.167 18C156.272 18 155.006 17.6079 155.006 17V1C155.006 0.392118 156.272 0 157.167 0C158.061 0 158.247 0.392118 158.247 1Z" fill="#1BA3A1"/>
<path d="M165.81 1V17C165.81 17.6228 165.624 18 164.73 18C163.835 18 162.569 17.6228 162.569 17V1C162.569 0.377241 163.835 0 164.73 0C165.624 0 165.81 0.377241 165.81 1Z" fill="#1BA3A1"/>
<path d="M172.293 2V15C172.293 15.5934 172.107 16 171.213 16C170.318 16 169.052 15.5934 169.052 15V2C169.052 1.40664 170.318 1 171.213 1C172.107 1 172.293 1.40664 172.293 2Z" fill="#1BA3A1"/>
<path d="M179.856 4V14C179.856 14.5883 179.67 15 178.776 15C177.881 15 176.615 14.5883 176.615 14V4C176.615 3.41166 177.881 3 178.776 3C179.67 3 179.856 3.41166 179.856 4Z" fill="#1BA3A1"/>
<path d="M187.419 4V14C187.419 14.5974 187.233 15 186.339 15C185.444 15 184.178 14.5974 184.178 14V4C184.178 3.40258 185.444 3 186.339 3C187.233 3 187.419 3.40258 187.419 4Z" fill="#1BA3A1"/>
<path d="M194.983 3V14C194.983 14.5937 194.797 15 193.902 15C193.008 15 191.741 14.5937 191.741 14V3C191.741 2.40634 193.008 2 193.902 2C194.797 2 194.983 2.40634 194.983 3Z" fill="#1BA3A1"/>
<path d="M202.546 5V13C202.546 13.5986 202.36 14 201.465 14C200.571 14 199.304 13.5986 199.304 13V5C199.304 4.40136 200.571 4 201.465 4C202.36 4 202.546 4.40136 202.546 5Z" fill="#1BA3A1"/>
<path d="M209.029 3V14C209.029 14.5937 208.843 15 207.948 15C207.054 15 205.787 14.5937 205.787 14V3C205.787 2.40634 207.054 2 207.948 2C208.843 2 209.029 2.40634 209.029 3Z" fill="#1BA3A1"/>
<path d="M216.592 3V16C216.592 16.6143 216.406 17 215.511 17C214.617 17 213.35 16.6143 213.35 16V3C213.35 2.38568 214.617 2 215.511 2C216.406 2 216.592 2.38568 216.592 3Z" fill="#1BA3A1"/>
</svg>
